<svg width="19" height="20" viewBox="0 0 19 20" fill="none" xmlns="http://www.w3.org/2000/svg">
<path d="M3.06072 7.24401C2.92117 6.9649 2.78161 6.68541 2.64168 6.4063C2.58481 5.85706 2.52794 5.30782 2.47107 4.7582C2.449 4.54419 2.28812 4.29352 2.03482 4.32195C1.59857 4.37059 1.16195 4.41886 0.725698 4.46749C0.511314 4.49144 0.262135 4.64895 0.289448 4.90374C0.357168 5.53754 0.424887 6.17134 0.492981 6.80551C0.502709 6.89493 0.512063 6.98435 0.52179 7.0734C0.414411 7.71804 0.333223 8.36718 0.291319 9.01856C0.212374 10.2484 0.271863 11.4954 0.53713 12.7012C0.826342 14.016 1.39092 15.2581 2.24584 16.3013C3.25864 17.537 4.66018 18.3815 6.15713 18.9019C6.34607 18.9678 9.67145 19.6667 12.7203 17.9336C14.1653 17.1038 15.315 15.8452 16.1385 14.4066C16.91 13.0586 17.4177 11.5639 17.7447 10.0497C18.0193 8.77799 18.1753 7.47747 18.2315 6.1777C18.258 5.56298 18.2782 4.93704 18.2318 4.3227C18.2311 4.3141 18.2307 4.30586 18.2303 4.29726C18.2157 4.08138 18.0758 3.89543 17.8521 3.86887C17.6201 3.84118 17.4581 3.97437 17.3732 4.18127C17.4241 4.05706 17.3728 4.17753 17.3474 4.22468C17.3242 4.2677 17.2411 4.39304 17.2265 4.41511C17.194 4.45103 17.1644 4.48994 17.1322 4.52586C16.9687 4.7062 16.7828 4.86221 16.5931 5.01412C16.5927 5.01449 16.5931 5.01412 16.5927 5.01449C16.5901 5.01636 16.589 5.01748 16.5856 5.01973C16.5609 5.03806 16.0973 5.3703 15.9784 5.45111C15.7157 5.62921 15.4505 5.80356 15.1871 5.98053C13.9509 6.81225 12.7641 7.73301 11.9234 8.98227C11.5553 9.52927 11.2776 10.1204 11.085 10.7434C10.5522 11.1718 9.93297 11.538 9.32985 11.7247C9.18544 11.7693 9.03915 11.8067 8.89099 11.8359C8.83973 11.846 8.57371 11.8811 8.5247 11.8849C8.393 11.8942 8.26056 11.8968 8.12848 11.8927C8.05777 11.8905 7.98743 11.8864 7.91709 11.88C7.8823 11.877 7.77118 11.8635 7.75659 11.8613C7.4973 11.8157 7.24364 11.7521 6.99633 11.6619C6.94245 11.6424 6.74453 11.5586 6.72545 11.5493C6.593 11.4872 6.46317 11.4187 6.33634 11.3454C6.22934 11.2832 5.75792 10.9604 5.73771 10.9454C5.53418 10.7856 5.33962 10.615 5.15405 10.4347C4.97633 10.2618 4.80647 10.0804 4.64409 9.89294C4.56253 9.79865 4.2692 9.42862 4.23628 9.38373C3.99608 9.0571 3.77421 8.71663 3.57629 8.36269C3.37276 7.96909 3.19579 7.59271 3.06072 7.24401ZM4.04659 10.5327C5.13908 11.7876 6.66858 12.8292 8.39674 12.7634C9.25615 12.7304 10.0523 12.4401 10.7755 12.0102C10.5933 12.751 10.3591 13.4914 10.0725 14.166C9.83981 14.7141 9.54424 15.2832 9.20976 15.8107C7.88791 15.5414 6.62031 15.0426 5.52482 14.242C4.54944 13.5289 3.75513 12.5905 3.16324 11.5407C2.6357 10.6053 2.26829 9.58838 2.02435 8.54453C1.91772 8.08807 1.83877 7.64359 1.78003 7.19499C1.85711 7.16169 1.93455 7.12802 2.01163 7.09472C2.10067 7.27319 2.19009 7.45166 2.27914 7.63012C2.32441 7.72104 2.7412 8.66238 2.84783 8.8502C3.1883 9.44883 3.59462 10.0138 4.04659 10.5327ZM6.08679 17.9501C6.03777 17.9314 5.98876 17.9123 5.93975 17.8929C5.92104 17.8854 5.84098 17.8524 5.82938 17.848C5.46347 17.6931 5.10728 17.5135 4.76569 17.3111C4.60107 17.2134 4.43944 17.1098 4.28192 17.0009C4.21308 16.9534 4.14536 16.9044 4.07802 16.8546C4.06492 16.8449 4.02189 16.8123 4.01104 16.8041C3.97775 16.7779 3.94445 16.7517 3.91152 16.7252C3.63728 16.5033 3.37912 16.262 3.13967 16.0027C3.02817 15.8822 2.92117 15.7576 2.81828 15.6297C2.81267 15.6229 2.78086 15.5821 2.76627 15.5634C2.75168 15.5444 2.72362 15.5069 2.71726 15.4983C2.666 15.4295 2.61624 15.3595 2.5676 15.2888C2.38577 15.0247 2.22152 14.7482 2.07523 14.4627C2.0019 14.3198 1.93306 14.1746 1.8687 14.0272C1.85823 14.0036 1.83989 13.9587 1.84027 13.9602C1.83054 13.9363 1.82044 13.912 1.81071 13.8877C1.78003 13.8113 1.75085 13.7343 1.72241 13.6572C1.61578 13.3657 1.52524 13.0687 1.44892 12.7678C1.37371 12.4708 1.31273 12.17 1.26446 11.8673C1.25399 11.8003 1.24426 11.7333 1.23453 11.666C1.23266 11.6522 1.23004 11.6342 1.22817 11.6192C1.22293 11.5773 1.2177 11.535 1.21283 11.4928C1.19525 11.3409 1.18103 11.189 1.16943 11.0363C1.12491 10.4571 1.12079 9.87498 1.14811 9.29468C1.1612 9.01707 1.1814 8.73983 1.20834 8.46334C1.22106 8.33126 1.32882 7.51638 1.35089 7.37982C1.3565 7.3772 1.36249 7.37496 1.3681 7.37234C1.41449 7.70308 1.46912 8.03307 1.53759 8.35933C1.76095 9.42189 2.11003 10.4616 2.60801 11.4277C3.17184 12.5213 3.94033 13.5161 4.89327 14.2981C6.03852 15.2379 7.40714 15.8564 8.84871 16.1797C8.88163 16.1871 8.91493 16.1931 8.94786 16.2002C8.87527 16.3031 8.80194 16.4049 8.72674 16.5059C8.723 16.5108 8.7215 16.513 8.71925 16.5164C8.71664 16.5194 8.71439 16.522 8.71027 16.5276C8.68895 16.5542 8.668 16.5811 8.64667 16.6077C8.59841 16.6679 8.54939 16.7274 8.49963 16.7861C8.33276 16.9833 8.15767 17.173 7.97359 17.3541C7.81869 17.5064 7.65781 17.6519 7.4902 17.79C7.45877 17.8158 7.42659 17.8412 7.39479 17.867C7.39928 17.8637 7.40227 17.8614 7.40788 17.8577C7.38955 17.8708 7.37197 17.885 7.35401 17.8985C7.29302 17.9437 7.23166 17.9886 7.16881 18.032C7.07303 18.0983 6.97425 18.157 6.87436 18.2146C6.71161 18.166 6.54923 18.1155 6.38835 18.0593C6.28733 18.0253 6.18668 17.9886 6.08679 17.9501ZM17.2766 7.37196C17.2621 7.52723 17.246 7.6825 17.2284 7.8374C17.2194 7.91559 17.2104 7.99341 17.2007 8.07124C17.1966 8.10453 17.1925 8.13783 17.188 8.17113C17.1854 8.19208 17.1824 8.21304 17.1797 8.23399C17.1797 8.23436 17.1797 8.23436 17.1797 8.23436C17.133 8.56473 17.0821 8.89472 17.0215 9.22285C16.8898 9.93746 16.7207 10.6457 16.5055 11.3397C16.3922 11.7057 16.2661 12.0678 16.1254 12.424C16.0925 12.5071 16.0584 12.5894 16.0248 12.6721C16.018 12.6878 16.0117 12.7031 16.0049 12.7188C15.9832 12.769 15.9612 12.8191 15.9391 12.8692C15.862 13.0425 15.7812 13.2138 15.6963 13.3833C15.5238 13.7283 15.3348 14.0654 15.1283 14.3913C15.0232 14.557 14.9136 14.7197 14.7994 14.8791C14.7467 14.9528 14.6917 15.025 14.6378 15.098C14.6363 15.1003 14.6359 15.1006 14.6344 15.1025C14.6214 15.1193 14.6079 15.1365 14.5948 15.1534C14.5634 15.193 14.5319 15.2323 14.4998 15.2716C14.2521 15.5747 13.9853 15.862 13.6995 16.1299C13.5528 16.2672 13.4016 16.3993 13.2456 16.5254C13.2105 16.5538 13.1753 16.5815 13.1397 16.6095C13.139 16.6103 13.1386 16.6103 13.1379 16.611C13.121 16.6234 13.1046 16.6361 13.0881 16.6488C13.0043 16.7117 12.919 16.7727 12.833 16.8322C12.4925 17.0667 12.1337 17.2744 11.761 17.454C11.6664 17.4996 11.5706 17.543 11.4741 17.5853C11.4647 17.5894 11.455 17.5935 11.4453 17.5977C11.4337 17.6025 11.4172 17.6096 11.4078 17.613C11.3502 17.6362 11.2926 17.6594 11.2346 17.6815C11.0296 17.76 10.8216 17.8304 10.6113 17.8929C10.1586 18.0275 9.69614 18.1241 9.22884 18.1914C9.22435 18.1922 9.2236 18.1922 9.22098 18.1925C9.21724 18.1929 9.21574 18.1933 9.21125 18.1937C9.18544 18.1967 9.15999 18.2 9.13418 18.2034C9.06945 18.2112 9.00435 18.2184 8.93925 18.2251C8.8068 18.2386 8.67398 18.2494 8.54116 18.258C8.45062 18.264 8.36008 18.2674 8.26953 18.2711C8.28899 18.2539 8.30845 18.2367 8.32753 18.2199C9.26326 17.384 10.0014 16.3218 10.5537 15.2005C10.9667 14.3621 11.29 13.4791 11.5324 12.577C11.6552 12.1198 11.727 11.6458 11.8534 11.1897C11.8703 11.1519 11.8811 11.1119 11.8856 11.07C11.8882 11.0614 11.8901 11.0528 11.8927 11.0442C12.0218 10.6278 12.1501 10.3247 12.3593 9.94344C12.7398 9.24904 13.1659 8.73235 13.7485 8.1831C13.8802 8.05889 14.0156 7.93841 14.1537 7.82131C14.2779 7.71617 14.4665 7.5639 14.5559 7.49468C14.6356 7.43332 14.8223 7.29452 14.9457 7.20584C15.0879 7.10333 15.232 7.00306 15.3764 6.90391C15.8882 6.55334 16.415 6.22372 16.9148 5.85594C17.0716 5.7407 17.2288 5.62172 17.3788 5.49451C17.3769 5.58842 17.3754 5.68271 17.3728 5.77662C17.3582 6.30902 17.326 6.84143 17.2766 7.37196Z" fill="#F9EFC6"/>
<path d="M7.72855 17.8708C7.72968 17.8697 7.73117 17.8689 7.73229 17.8678C7.63764 17.9366 7.70311 17.8914 7.72855 17.8708Z" fill="#F9EFC6"/>
<path d="M9.86642 6.80333C11.241 6.53357 12.2235 5.26672 12.237 3.88539C12.2246 2.62603 11.4378 1.51969 10.2619 1.07969C9.11963 0.652049 7.74428 1.02544 6.97317 1.9694C6.17737 2.94367 6.04006 4.33698 6.7008 5.42424C7.35854 6.50588 8.631 7.04615 9.86642 6.80333Z" fill="#F9EFC6"/>
</svg>
