<?xml version="1.0" encoding="UTF-8"?><svg id="Capa_2" xmlns="http://www.w3.org/2000/svg" viewBox="0 0 301.19 239.71"><defs><style>.cls-1{fill:#f39200;}.cls-2{font-family:Montserrat-Bold, 'Montserrat Bold';font-size:66.44px;font-weight:700;}.cls-2,.cls-3{fill:#3c3c3b;}.cls-4{fill:#f9b233;}.cls-5{fill:#063;}</style></defs><g id="Capa_1-2"><g><g><g><path class="cls-5" d="M212.17,.58c-9.78,0-20.45-.12-28.19-.12H115.97C47.97,.46,0,44.72,0,120.18c0,11.51,1.24,22.34,3.58,32.37,.01,.02,.01,.06,.02,.1,2.96,12.73,7.7,24.18,13.9,34.25,.3,.47,.61,.96,.91,1.45,1.35,2.13,2.78,4.18,4.26,6.16,.26,.35,.51,.69,.78,1.04,.32,.41,.64,.83,.97,1.25,17.75,22.19,65.41,50.99,130.51-1.25,3.44-2.75,6.69-5.81,9.73-9.21-20.07,12.58-36.78,17.22-49.53,18.3-1.87,.21-3.77,.3-5.68,.3-1.34,0-2.67-.04-4-.13-.05,0-.1-.01-.13-.01-6.69-.45-13.03-2.02-18.94-4.54l-.02-.02c-17.69-7.6-31.44-23.96-38.71-45.48-3.7-10.97-5.73-23.27-5.73-36.45,0-32.82,12.57-67.04,39.88-80.8,3.52-1.79,7.28-3.22,11.28-4.26,.04-.01,.06-.02,.11-.02,.33-.08,.68-.18,1.02-.26,.1-.02,.18-.05,.28-.06,.45-.11,.89-.21,1.32-.3,.4-.08,.8-.16,1.21-.24,6.97-1.41,16.62-2.49,29.54-2.31,6.45,.1,13.3,.27,20.14,.46,1.34-8.9,9-15.72,18.28-15.72s16.93,6.8,18.27,15.69c6.95,.27,13,.44,18.33,.56,17.65,.39,32.38-13.4,33.17-31.05-4.17,.46-12.94,.58-22.58,.58Z"/><path class="cls-4" d="M233.98,165.39c-.56,2.16-1.19,4.32-1.87,6.46-8.39,26.02-25.17,46.65-47.3,58.23-.33,.17-.67,.35-1.01,.52-19.29,9.78-40.95,11.73-61.36,5.61-.67-.19-1.32-.41-1.99-.62-.45-.16-.9-.3-1.35-.46-2.08-.72-3.43-2.19-4.15-3.94-.68-1.63-.81-3.47-.46-5.16,.24-1.24,1.2-2.17,2.38-2.31,19.93-2.21,38.6-11.5,53.51-26.48,2.5-2.53,4.91-5.2,7.19-8.03,15.97-19.85,24.65-45.44,24.44-72.09-.11-12.58-2.21-25.11-6.16-36.83-1.36-4.03-2.93-7.97-4.71-11.78-3.63-7.76-8.15-15.03-13.36-21.57-.05-.06-.1-.12-.15-.18,1.62-1.49,2.95-3.28,3.94-5.28,20.36,9.79,37.24,27.61,46.99,50.34,2.32,5.43,4.21,10.99,5.65,16.67,4.71,18.54,4.66,38.12-.22,56.91Z"/><path class="cls-4" d="M183.39,141.96c-.69,1.64-1.42,3.26-2.2,4.86-9.44,19.45-24.38,33.78-42.09,40.46-.28,.1-.55,.19-.81,.29-15.41,5.58-31.58,4.77-45.82-2.22-.47-.23-.92-.46-1.38-.7-.32-.17-.62-.33-.94-.5-1.43-.79-2.23-2.09-2.55-3.53-.3-1.34-.17-2.81,.3-4.08,.34-.95,1.15-1.57,2.04-1.54,14.93,.41,29.83-4.85,42.66-14.96,2.16-1.7,4.26-3.53,6.3-5.5,14.25-13.8,23.84-32.89,27.04-53.77,1.51-9.85,1.53-19.87,.11-29.47-.5-3.3-1.15-6.55-1.98-9.73-.92-3.52-2.05-6.97-3.4-10.29,1.38,.34,2.83,.51,4.31,.51,2.58,0,5.04-.52,7.26-1.49,7.73,9.12,13.45,20.61,16.4,33.54,1.03,4.49,1.71,9.06,2.05,13.65,1.13,15-1.37,30.32-7.31,44.49Z"/><path class="cls-3" d="M105.32,204.81c-11.9-.65-18.49-4.3-18.93-4.55,5.9,2.53,12.24,4.1,18.93,4.55Z"/></g><path class="cls-1" d="M178.1,30.39c-1.32-6.02-6.7-10.54-13.12-10.54s-11.96,4.66-13.17,10.82c-.18,.85-.27,1.72-.27,2.61,0,4.7,2.42,8.84,6.09,11.24,2.11,1.4,4.64,2.2,7.35,2.2,1.23,0,2.4-.17,3.53-.47,2.23-.61,4.23-1.77,5.84-3.34,1.03-1.02,1.91-2.19,2.56-3.49,.96-1.83,1.49-3.92,1.49-6.13,0-1-.11-1.96-.32-2.89Zm-13.12,11.47c-.5,0-.98-.05-1.46-.13-2.62-.45-4.85-2.1-6.09-4.36h0c-.66-1.23-1.03-2.61-1.03-4.08,0-.94,.16-1.85,.45-2.7,1.12-3.41,4.35-5.88,8.13-5.88s6.84,2.34,8.04,5.62c.35,.92,.53,1.92,.53,2.95,0,4.73-3.85,8.58-8.58,8.58Z"/></g><text class="cls-2" transform="translate(255.41 90.84)"><tspan x="0" y="0">O</tspan><tspan x="6.54" y="54.9">E</tspan><tspan x="4.88" y="109.81">B</tspan></text></g></g></svg>