<?xml version="1.0" encoding="UTF-8"?><svg id="Capa_2" xmlns="http://www.w3.org/2000/svg" viewBox="0 0 728.41 728.41"><defs><style>.cls-1{fill:#083710;}.cls-2{fill:#f9efc6;}</style></defs><g id="Layer_1"><g><circle class="cls-1" cx="364.21" cy="364.21" r="360.33"/><g><g><g><g><path class="cls-2" d="M309.22,215.88c-1.24-2.48-2.48-4.96-3.72-7.43-.5-4.87-1.01-9.75-1.51-14.62-.2-1.9-1.62-4.12-3.87-3.87-3.87,.43-7.74,.86-11.61,1.29-1.9,.21-4.11,1.61-3.87,3.87,.6,5.62,1.2,11.25,1.8,16.87,.08,.79,.17,1.59,.25,2.38-.95,5.72-1.67,11.48-2.04,17.26-.7,10.91-.17,21.97,2.18,32.67,2.56,11.66,7.57,22.68,15.16,31.94,8.99,10.96,21.42,18.46,34.7,23.07,1.68,.58,31.18,6.78,58.23-8.59,12.82-7.36,23.02-18.53,30.33-31.29,6.84-11.96,11.35-25.22,14.25-38.65,2.43-11.28,3.82-22.82,4.32-34.35,.24-5.45,.42-11.01,0-16.46,0-.08,0-.15-.01-.23-.13-1.91-1.37-3.57-3.36-3.8-2.06-.24-3.49,.94-4.25,2.77,.45-1.1,0-.03-.23,.38-.21,.38-.94,1.49-1.07,1.69-.29,.32-.55,.66-.84,.98-1.45,1.6-3.1,2.98-4.78,4.33h0l-.06,.05c-.22,.16-4.33,3.11-5.39,3.83-2.33,1.58-4.68,3.13-7.02,4.7-10.97,7.38-21.5,15.55-28.95,26.63-3.27,4.85-5.73,10.1-7.44,15.62-4.73,3.8-10.22,7.05-15.57,8.71-1.28,.4-2.58,.73-3.89,.98-.46,.09-2.82,.4-3.25,.43-1.17,.08-2.34,.11-3.52,.07-.63-.02-1.25-.06-1.88-.11-.31-.03-1.29-.15-1.43-.17-2.3-.4-4.55-.97-6.75-1.77-.48-.17-2.23-.92-2.4-1-1.18-.55-2.33-1.16-3.45-1.81-.95-.55-5.13-3.42-5.31-3.55-1.81-1.42-3.53-2.93-5.18-4.53-1.58-1.53-3.08-3.14-4.52-4.81-.72-.84-3.33-4.12-3.62-4.52-2.13-2.9-4.1-5.92-5.86-9.06-1.79-3.48-3.37-6.82-4.56-9.92Zm8.75,29.18c9.69,11.13,23.26,20.37,38.59,19.79,7.63-.29,14.69-2.87,21.1-6.68-1.62,6.57-3.69,13.14-6.24,19.13-2.06,4.86-4.69,9.91-7.65,14.59-11.73-2.39-22.97-6.81-32.69-13.92-8.65-6.33-15.7-14.65-20.95-23.96-4.68-8.3-7.94-17.32-10.1-26.58-.95-4.05-1.64-7.99-2.17-11.97,.68-.3,1.37-.59,2.05-.89,.79,1.58,1.58,3.17,2.37,4.75,.4,.81,4.1,9.16,5.04,10.82,3.02,5.31,6.62,10.32,10.63,14.93Zm18.1,65.81c-.44-.17-.87-.34-1.3-.51-.17-.07-.88-.36-.98-.4-3.25-1.37-6.41-2.97-9.44-4.76-1.46-.87-2.89-1.78-4.29-2.75-.61-.42-1.21-.86-1.81-1.3-.12-.09-.5-.38-.59-.45-.3-.23-.59-.46-.88-.7-2.43-1.97-4.72-4.11-6.85-6.41-.99-1.07-1.94-2.17-2.85-3.31-.05-.06-.33-.42-.46-.59-.13-.17-.38-.5-.43-.58-.45-.61-.9-1.23-1.33-1.86-1.61-2.34-3.07-4.8-4.37-7.33-.65-1.27-1.26-2.56-1.83-3.86-.09-.21-.26-.61-.25-.6-.09-.21-.18-.43-.26-.64-.27-.68-.53-1.36-.78-2.04-.95-2.58-1.75-5.22-2.43-7.89-.67-2.64-1.21-5.3-1.64-7.99-.09-.59-.18-1.19-.27-1.78-.02-.12-.04-.28-.06-.41-.05-.37-.09-.75-.13-1.12-.15-1.35-.28-2.7-.39-4.05-.39-5.14-.43-10.3-.19-15.45,.12-2.46,.3-4.92,.53-7.37,.11-1.17,1.07-8.4,1.26-9.61l.15-.07c.41,2.94,.9,5.86,1.5,8.76,1.98,9.43,5.08,18.65,9.5,27.22,5,9.7,11.82,18.53,20.27,25.47,10.16,8.34,22.3,13.82,35.09,16.69,.29,.07,.59,.12,.88,.18-.64,.91-1.3,1.82-1.96,2.71-.03,.04-.05,.06-.07,.09-.02,.03-.04,.05-.08,.1-.19,.24-.37,.47-.56,.71-.43,.53-.86,1.06-1.3,1.58-1.48,1.75-3.03,3.43-4.67,5.04-1.37,1.35-2.8,2.64-4.29,3.87-.28,.23-.56,.46-.85,.68l.11-.08c-.16,.12-.32,.24-.48,.36-.54,.4-1.09,.8-1.64,1.18-.85,.59-1.73,1.11-2.61,1.62-1.45-.43-2.89-.88-4.31-1.38-.9-.31-1.79-.64-2.68-.98Zm99.27-93.85c-.13,1.38-.27,2.75-.43,4.13-.08,.69-.16,1.38-.25,2.08-.04,.3-.07,.59-.11,.89-.02,.19-.05,.37-.07,.56h0c-.41,2.94-.87,5.86-1.4,8.77-1.17,6.34-2.67,12.62-4.58,18.78-1.01,3.25-2.13,6.46-3.37,9.62-.29,.74-.59,1.47-.89,2.2h0c-.06,.14-.12,.28-.18,.41-.19,.45-.39,.89-.58,1.33-.68,1.54-1.4,3.06-2.15,4.56-1.53,3.06-3.21,6.05-5.04,8.94-.93,1.47-1.9,2.91-2.92,4.33-.47,.65-.96,1.29-1.43,1.94l-.03,.04c-.12,.15-.23,.3-.35,.45-.28,.35-.56,.7-.84,1.05-2.2,2.69-4.57,5.24-7.1,7.61-1.3,1.22-2.64,2.39-4.03,3.51-.31,.25-.62,.5-.94,.75h-.02c-.15,.12-.3,.24-.44,.35-.74,.56-1.5,1.1-2.26,1.63-3.02,2.08-6.2,3.93-9.51,5.52-.84,.4-1.69,.79-2.55,1.17-.08,.04-.17,.07-.25,.11-.1,.04-.25,.1-.33,.14-.51,.2-1.02,.41-1.54,.61-1.82,.7-3.66,1.32-5.53,1.88-4.02,1.19-8.12,2.05-12.26,2.65h-.07l-.09,.02c-.23,.03-.46,.06-.68,.08-.58,.07-1.15,.13-1.73,.19-1.18,.12-2.35,.22-3.53,.29-.8,.05-1.61,.08-2.41,.12,.17-.15,.35-.3,.52-.46,8.3-7.42,14.85-16.84,19.75-26.79,3.66-7.44,6.53-15.27,8.68-23.27,1.09-4.06,1.73-8.26,2.85-12.31,.15-.33,.25-.69,.29-1.06,.02-.08,.04-.15,.06-.23,1.15-3.7,2.28-6.38,4.14-9.77,3.38-6.16,7.16-10.74,12.32-15.62,1.17-1.1,2.37-2.17,3.59-3.21,1.1-.93,2.77-2.28,3.57-2.9,.71-.55,2.36-1.77,3.46-2.56,1.26-.91,2.54-1.8,3.82-2.68,4.54-3.11,9.21-6.03,13.65-9.3,1.39-1.02,2.78-2.08,4.11-3.21-.02,.83-.03,1.67-.05,2.5-.12,4.73-.41,9.45-.85,14.15Z"/><path class="cls-2" d="M350.63,310.16l.03-.03c-.84,.61-.26,.21-.03,.03Z"/><path class="cls-2" d="M369.6,211.97c12.2-2.39,20.91-13.63,21.03-25.89-.11-11.17-7.09-20.99-17.52-24.89-10.13-3.79-22.34-.48-29.18,7.89-7.06,8.64-8.28,21.01-2.42,30.65,5.83,9.6,17.12,14.39,28.08,12.24Z"/></g><g><path class="cls-2" d="M419.2,512.53c1.24,2.48,2.48,4.96,3.72,7.43,.5,4.87,1.01,9.75,1.51,14.62,.2,1.9,1.62,4.12,3.87,3.87,3.87-.43,7.74-.86,11.61-1.29,1.9-.21,4.11-1.61,3.87-3.87-.6-5.62-1.2-11.25-1.8-16.87-.08-.79-.17-1.59-.25-2.38,.95-5.72,1.67-11.48,2.04-17.26,.7-10.91,.17-21.97-2.18-32.67-2.56-11.66-7.57-22.68-15.16-31.94-8.99-10.96-21.42-18.46-34.7-23.07-1.68-.58-31.18-6.78-58.23,8.59-12.82,7.36-23.02,18.53-30.33,31.29-6.84,11.96-11.35,25.22-14.25,38.65-2.43,11.28-3.82,22.82-4.32,34.35-.24,5.45-.42,11.01,0,16.46,0,.08,0,.15,.01,.23,.13,1.91,1.37,3.57,3.36,3.8,2.06,.24,3.49-.94,4.25-2.77-.45,1.1,0,.03,.23-.38,.21-.38,.94-1.49,1.07-1.69,.29-.32,.55-.66,.84-.98,1.45-1.6,3.1-2.98,4.78-4.33h0l.06-.05c.22-.16,4.33-3.11,5.39-3.83,2.33-1.58,4.68-3.13,7.02-4.7,10.97-7.38,21.5-15.55,28.95-26.63,3.27-4.85,5.73-10.1,7.44-15.62,4.73-3.8,10.22-7.05,15.57-8.71,1.28-.4,2.58-.73,3.89-.98,.46-.09,2.82-.4,3.25-.43,1.17-.08,2.34-.11,3.52-.07,.63,.02,1.25,.06,1.88,.11,.31,.03,1.29,.15,1.43,.17,2.3,.4,4.55,.97,6.75,1.77,.48,.17,2.23,.92,2.4,1,1.18,.55,2.33,1.16,3.45,1.81,.95,.55,5.13,3.42,5.31,3.55,1.81,1.42,3.53,2.93,5.18,4.53,1.58,1.53,3.08,3.14,4.52,4.81,.72,.84,3.33,4.12,3.62,4.52,2.13,2.9,4.1,5.92,5.86,9.06,1.79,3.48,3.37,6.82,4.56,9.92Zm-8.75-29.18c-9.69-11.13-23.26-20.37-38.59-19.79-7.63,.29-14.69,2.87-21.1,6.68,1.62-6.57,3.69-13.14,6.24-19.13,2.06-4.86,4.69-9.91,7.65-14.59,11.73,2.39,22.97,6.81,32.69,13.92,8.65,6.33,15.7,14.65,20.95,23.96,4.68,8.3,7.94,17.32,10.1,26.58,.95,4.05,1.64,7.99,2.17,11.97-.68,.3-1.37,.59-2.05,.89-.79-1.58-1.58-3.17-2.37-4.75-.4-.81-4.1-9.16-5.04-10.82-3.02-5.31-6.62-10.32-10.63-14.93Zm-18.1-65.81c.44,.17,.87,.34,1.3,.51,.17,.07,.88,.36,.98,.4,3.25,1.37,6.41,2.97,9.44,4.76,1.46,.87,2.89,1.78,4.29,2.75,.61,.42,1.21,.86,1.81,1.3,.12,.09,.5,.38,.59,.45,.3,.23,.59,.46,.88,.7,2.43,1.97,4.72,4.11,6.85,6.41,.99,1.07,1.94,2.17,2.85,3.31,.05,.06,.33,.42,.46,.59,.13,.17,.38,.5,.43,.58,.45,.61,.9,1.23,1.33,1.86,1.61,2.34,3.07,4.8,4.37,7.33,.65,1.27,1.26,2.56,1.83,3.86,.09,.21,.26,.61,.25,.6,.09,.21,.18,.43,.26,.64,.27,.68,.53,1.36,.78,2.04,.95,2.58,1.75,5.22,2.43,7.89,.67,2.64,1.21,5.3,1.64,7.99,.09,.59,.18,1.19,.27,1.78,.02,.12,.04,.28,.06,.41,.05,.37,.09,.75,.13,1.12,.15,1.35,.28,2.7,.39,4.05,.39,5.14,.43,10.3,.19,15.45-.12,2.46-.3,4.92-.53,7.37-.11,1.17-1.07,8.4-1.26,9.61l-.15,.07c-.41-2.94-.9-5.86-1.5-8.76-1.98-9.43-5.08-18.65-9.5-27.22-5-9.7-11.82-18.53-20.27-25.47-10.16-8.34-22.3-13.82-35.09-16.69-.29-.07-.59-.12-.88-.18,.64-.91,1.3-1.82,1.96-2.71,.03-.04,.05-.06,.07-.09,.02-.03,.04-.05,.08-.1,.19-.24,.37-.47,.56-.71,.43-.53,.86-1.06,1.3-1.58,1.48-1.75,3.03-3.43,4.67-5.04,1.37-1.35,2.8-2.64,4.29-3.87,.28-.23,.56-.46,.85-.68l-.11,.08c.16-.12,.32-.24,.48-.36,.54-.4,1.09-.8,1.64-1.18,.85-.59,1.73-1.11,2.61-1.62,1.45,.43,2.89,.88,4.31,1.38,.9,.31,1.79,.64,2.68,.98Zm-99.27,93.85c.13-1.38,.27-2.75,.43-4.13,.08-.69,.16-1.38,.25-2.08,.04-.3,.07-.59,.11-.89,.02-.19,.05-.37,.07-.56h0c.41-2.94,.87-5.86,1.4-8.77,1.17-6.34,2.67-12.62,4.58-18.78,1.01-3.25,2.13-6.46,3.37-9.62,.29-.74,.59-1.47,.89-2.2h0c.06-.14,.12-.28,.18-.41,.19-.45,.39-.89,.58-1.33,.68-1.54,1.4-3.06,2.15-4.56,1.53-3.06,3.21-6.05,5.04-8.94,.93-1.47,1.9-2.91,2.92-4.33,.47-.65,.96-1.29,1.43-1.94l.03-.04c.12-.15,.23-.3,.35-.45,.28-.35,.56-.7,.84-1.05,2.2-2.69,4.57-5.24,7.1-7.61,1.3-1.22,2.64-2.39,4.03-3.51,.31-.25,.62-.5,.94-.75h.02c.15-.12,.3-.24,.44-.35,.74-.56,1.5-1.1,2.26-1.63,3.02-2.08,6.2-3.93,9.51-5.52,.84-.4,1.69-.79,2.55-1.17,.08-.04,.17-.07,.25-.11,.1-.04,.25-.1,.33-.14,.51-.2,1.02-.41,1.54-.61,1.82-.7,3.66-1.32,5.53-1.88,4.02-1.19,8.12-2.05,12.26-2.65h.07l.09-.02c.23-.03,.46-.06,.68-.08,.58-.07,1.15-.13,1.73-.19,1.18-.12,2.35-.22,3.53-.29,.8-.05,1.61-.08,2.41-.12-.17,.15-.35,.3-.52,.46-8.3,7.42-14.85,16.84-19.75,26.79-3.66,7.44-6.53,15.27-8.68,23.27-1.09,4.06-1.73,8.26-2.85,12.31-.15,.33-.25,.69-.29,1.06-.02,.08-.04,.15-.06,.23-1.15,3.7-2.28,6.38-4.14,9.77-3.38,6.16-7.16,10.74-12.32,15.62-1.17,1.1-2.37,2.17-3.59,3.21-1.1,.93-2.77,2.28-3.57,2.9-.71,.55-2.36,1.77-3.46,2.56-1.26,.91-2.54,1.8-3.82,2.68-4.54,3.11-9.21,6.03-13.65,9.3-1.39,1.02-2.78,2.08-4.11,3.21,.02-.83,.03-1.67,.05-2.5,.12-4.73,.41-9.45,.85-14.15Z"/><path class="cls-2" d="M377.78,418.25l-.03,.03c.84-.61,.26-.21,.03-.03Z"/><path class="cls-2" d="M358.82,516.44c-12.2,2.39-20.91,13.63-21.03,25.89,.11,11.17,7.09,20.99,17.52,24.89,10.13,3.79,22.34,.48,29.18-7.89,7.06-8.64,8.28-21.01,2.42-30.65-5.83-9.6-17.12-14.39-28.08-12.24Z"/></g></g><g><g><path class="cls-2" d="M512.53,309.22c2.48-1.24,4.96-2.48,7.43-3.72,4.87-.5,9.75-1.01,14.62-1.51,1.9-.2,4.12-1.62,3.87-3.87-.43-3.87-.86-7.74-1.29-11.61-.21-1.9-1.61-4.11-3.87-3.87-5.62,.6-11.25,1.2-16.87,1.8-.79,.08-1.59,.17-2.38,.25-5.72-.95-11.48-1.67-17.26-2.04-10.91-.7-21.97-.17-32.67,2.18-11.66,2.56-22.68,7.57-31.94,15.16-10.96,8.99-18.46,21.42-23.07,34.7-.58,1.68-6.78,31.18,8.59,58.23,7.36,12.82,18.53,23.02,31.29,30.33,11.96,6.84,25.22,11.35,38.65,14.25,11.28,2.43,22.82,3.82,34.35,4.32,5.45,.24,11.01,.42,16.46,0,.08,0,.15,0,.23-.01,1.91-.13,3.57-1.37,3.8-3.36,.24-2.06-.94-3.49-2.77-4.25,1.1,.45,.03,0-.38-.23-.38-.21-1.49-.94-1.69-1.07-.32-.29-.66-.55-.98-.84-1.6-1.45-2.98-3.1-4.33-4.78h0l-.05-.06c-.16-.22-3.11-4.33-3.83-5.39-1.58-2.33-3.13-4.68-4.7-7.02-7.38-10.97-15.55-21.5-26.63-28.95-4.85-3.27-10.1-5.73-15.62-7.44-3.8-4.73-7.05-10.22-8.71-15.57-.4-1.28-.73-2.58-.98-3.89-.09-.46-.4-2.82-.43-3.25-.08-1.17-.11-2.34-.07-3.52,.02-.63,.06-1.25,.11-1.88,.03-.31,.15-1.29,.17-1.43,.4-2.3,.97-4.55,1.77-6.75,.17-.48,.92-2.23,1-2.4,.55-1.18,1.16-2.33,1.81-3.45,.55-.95,3.42-5.13,3.55-5.31,1.42-1.81,2.93-3.53,4.53-5.18,1.53-1.58,3.14-3.08,4.81-4.52,.84-.72,4.12-3.33,4.52-3.62,2.9-2.13,5.92-4.1,9.06-5.86,3.48-1.79,6.82-3.37,9.92-4.56Zm-29.18,8.75c-11.13,9.69-20.37,23.26-19.79,38.59,.29,7.63,2.87,14.69,6.68,21.1-6.57-1.62-13.14-3.69-19.13-6.24-4.86-2.06-9.91-4.69-14.59-7.65,2.39-11.73,6.81-22.97,13.92-32.69,6.33-8.65,14.65-15.7,23.96-20.95,8.3-4.68,17.32-7.94,26.58-10.1,4.05-.95,7.99-1.64,11.97-2.17,.3,.68,.59,1.37,.89,2.05-1.58,.79-3.17,1.58-4.75,2.37-.81,.4-9.16,4.1-10.82,5.04-5.31,3.02-10.32,6.62-14.93,10.63Zm-65.81,18.1c.17-.44,.34-.87,.51-1.3,.07-.17,.36-.88,.4-.98,1.37-3.25,2.97-6.41,4.76-9.44,.87-1.46,1.78-2.89,2.75-4.29,.42-.61,.86-1.21,1.3-1.81,.09-.12,.38-.5,.45-.59,.23-.3,.46-.59,.7-.88,1.97-2.43,4.11-4.72,6.41-6.85,1.07-.99,2.17-1.94,3.31-2.85,.06-.05,.42-.33,.59-.46,.17-.13,.5-.38,.58-.43,.61-.45,1.23-.9,1.86-1.33,2.34-1.61,4.8-3.07,7.33-4.37,1.27-.65,2.56-1.26,3.86-1.83,.21-.09,.61-.26,.6-.25,.21-.09,.43-.18,.64-.26,.68-.27,1.36-.53,2.04-.78,2.58-.95,5.22-1.75,7.89-2.43,2.64-.67,5.3-1.21,7.99-1.64,.59-.09,1.19-.18,1.78-.27,.12-.02,.28-.04,.41-.06,.37-.05,.75-.09,1.12-.13,1.35-.15,2.7-.28,4.05-.39,5.14-.39,10.3-.43,15.45-.19,2.46,.12,4.92,.3,7.37,.53,1.17,.11,8.4,1.07,9.61,1.26l.07,.15c-2.94,.41-5.86,.9-8.76,1.5-9.43,1.98-18.65,5.08-27.22,9.5-9.7,5-18.53,11.82-25.47,20.27-8.34,10.16-13.82,22.3-16.69,35.09-.07,.29-.12,.59-.18,.88-.91-.64-1.82-1.3-2.71-1.96-.04-.03-.06-.05-.09-.07-.03-.02-.05-.04-.1-.08-.24-.19-.47-.37-.71-.56-.53-.43-1.06-.86-1.58-1.3-1.75-1.48-3.43-3.03-5.04-4.67-1.35-1.37-2.64-2.8-3.87-4.29-.23-.28-.46-.56-.68-.85l.08,.11c-.12-.16-.24-.32-.36-.48-.4-.54-.8-1.09-1.18-1.64-.59-.85-1.11-1.73-1.62-2.61,.43-1.45,.88-2.89,1.38-4.31,.31-.9,.64-1.79,.98-2.68Zm93.85,99.27c-1.38-.13-2.75-.27-4.13-.43-.69-.08-1.38-.16-2.08-.25-.3-.04-.59-.07-.89-.11-.19-.02-.37-.05-.56-.07h0c-2.93-.42-5.86-.87-8.77-1.4-6.34-1.17-12.62-2.67-18.78-4.58-3.25-1.01-6.46-2.13-9.62-3.37-.74-.29-1.47-.59-2.2-.89h0c-.14-.06-.28-.12-.41-.18-.45-.19-.89-.39-1.33-.58-1.54-.68-3.06-1.4-4.56-2.15-3.06-1.53-6.05-3.21-8.94-5.04-1.47-.93-2.91-1.9-4.33-2.92-.65-.47-1.29-.96-1.94-1.43l-.04-.03c-.15-.12-.3-.23-.45-.35-.35-.28-.7-.56-1.05-.84-2.69-2.2-5.24-4.57-7.61-7.1-1.22-1.3-2.39-2.64-3.51-4.03-.25-.31-.5-.62-.75-.94v-.02c-.12-.15-.24-.3-.35-.44-.56-.74-1.1-1.5-1.63-2.26-2.08-3.02-3.93-6.2-5.52-9.51-.4-.84-.79-1.69-1.17-2.55-.04-.08-.07-.17-.11-.25-.04-.1-.1-.25-.14-.33-.2-.51-.41-1.02-.61-1.54-.7-1.82-1.32-3.66-1.88-5.53-1.19-4.02-2.05-8.12-2.65-12.26v-.07l-.02-.09c-.03-.23-.06-.46-.08-.68-.07-.58-.13-1.15-.19-1.73-.12-1.18-.22-2.35-.29-3.53-.05-.8-.08-1.61-.12-2.41,.15,.17,.3,.35,.46,.52,7.42,8.3,16.84,14.85,26.79,19.75,7.44,3.66,15.27,6.53,23.27,8.68,4.06,1.09,8.26,1.73,12.31,2.85,.33,.15,.69,.25,1.06,.29,.08,.02,.15,.04,.23,.06,3.7,1.15,6.38,2.28,9.77,4.14,6.16,3.38,10.74,7.16,15.62,12.32,1.1,1.17,2.17,2.37,3.21,3.59,.93,1.1,2.28,2.77,2.9,3.57,.55,.71,1.77,2.36,2.56,3.46,.91,1.26,1.8,2.54,2.68,3.82,3.11,4.54,6.03,9.21,9.3,13.65,1.02,1.39,2.08,2.78,3.21,4.11-.83-.02-1.67-.03-2.5-.05-4.73-.12-9.45-.41-14.15-.85Z"/><path class="cls-2" d="M418.25,350.63l.03,.03c-.61-.84-.21-.26-.03-.03Z"/><path class="cls-2" d="M516.44,369.6c2.39,12.2,13.63,20.91,25.89,21.03,11.17-.11,20.99-7.09,24.89-17.52,3.79-10.13,.48-22.34-7.89-29.18-8.64-7.06-21.01-8.28-30.65-2.42-9.6,5.83-14.39,17.12-12.24,28.08Z"/></g><g><path class="cls-2" d="M215.88,419.2c-2.48,1.24-4.96,2.48-7.43,3.72-4.87,.5-9.75,1.01-14.62,1.51-1.9,.2-4.12,1.62-3.87,3.87,.43,3.87,.86,7.74,1.29,11.61,.21,1.9,1.61,4.11,3.87,3.87,5.62-.6,11.25-1.2,16.87-1.8,.79-.08,1.59-.17,2.38-.25,5.72,.95,11.48,1.67,17.26,2.04,10.91,.7,21.97,.17,32.67-2.18,11.66-2.56,22.68-7.57,31.94-15.16,10.96-8.99,18.46-21.42,23.07-34.7,.58-1.68,6.78-31.18-8.59-58.23-7.36-12.82-18.53-23.02-31.29-30.33-11.96-6.84-25.22-11.35-38.65-14.25-11.28-2.43-22.82-3.82-34.35-4.32-5.45-.24-11.01-.42-16.46,0-.08,0-.15,0-.23,.01-1.91,.13-3.57,1.37-3.8,3.36-.24,2.06,.94,3.49,2.77,4.25-1.1-.45-.03,0,.38,.23,.38,.21,1.49,.94,1.69,1.07,.32,.29,.66,.55,.98,.84,1.6,1.45,2.98,3.1,4.33,4.78h0l.05,.06c.16,.22,3.11,4.33,3.83,5.39,1.58,2.33,3.13,4.68,4.7,7.02,7.38,10.97,15.55,21.5,26.63,28.95,4.85,3.27,10.1,5.73,15.62,7.44,3.8,4.73,7.05,10.22,8.71,15.57,.4,1.28,.73,2.58,.98,3.89,.09,.46,.4,2.82,.43,3.25,.08,1.17,.11,2.34,.07,3.52-.02,.63-.06,1.25-.11,1.88-.03,.31-.15,1.29-.17,1.43-.4,2.3-.97,4.55-1.77,6.75-.17,.48-.92,2.23-1,2.4-.55,1.18-1.16,2.33-1.81,3.45-.55,.95-3.42,5.13-3.55,5.31-1.42,1.81-2.93,3.53-4.53,5.18-1.53,1.58-3.14,3.08-4.81,4.52-.84,.72-4.12,3.33-4.52,3.62-2.9,2.13-5.92,4.1-9.06,5.86-3.48,1.79-6.82,3.37-9.92,4.56Zm29.18-8.75c11.13-9.69,20.37-23.26,19.79-38.59-.29-7.63-2.87-14.69-6.68-21.1,6.57,1.62,13.14,3.69,19.13,6.24,4.86,2.06,9.91,4.69,14.59,7.65-2.39,11.73-6.81,22.97-13.92,32.69-6.33,8.65-14.65,15.7-23.96,20.95-8.3,4.68-17.32,7.94-26.58,10.1-4.05,.95-7.99,1.64-11.97,2.17-.3-.68-.59-1.37-.89-2.05,1.58-.79,3.17-1.58,4.75-2.37,.81-.4,9.16-4.1,10.82-5.04,5.31-3.02,10.32-6.62,14.93-10.63Zm65.81-18.1c-.17,.44-.34,.87-.51,1.3-.07,.17-.36,.88-.4,.98-1.37,3.25-2.97,6.41-4.76,9.44-.87,1.46-1.78,2.89-2.75,4.29-.42,.61-.86,1.21-1.3,1.81-.09,.12-.38,.5-.45,.59-.23,.3-.46,.59-.7,.88-1.97,2.43-4.11,4.72-6.41,6.85-1.07,.99-2.17,1.94-3.31,2.85-.06,.05-.42,.33-.59,.46-.17,.13-.5,.38-.58,.43-.61,.45-1.23,.9-1.86,1.33-2.34,1.61-4.8,3.07-7.33,4.37-1.27,.65-2.56,1.26-3.86,1.83-.21,.09-.61,.26-.6,.25-.21,.09-.43,.18-.64,.26-.68,.27-1.36,.53-2.04,.78-2.58,.95-5.22,1.75-7.89,2.43-2.64,.67-5.3,1.21-7.99,1.64-.59,.09-1.19,.18-1.78,.27-.12,.02-.28,.04-.41,.06-.37,.05-.75,.09-1.12,.13-1.35,.15-2.7,.28-4.05,.39-5.14,.39-10.3,.43-15.45,.19-2.46-.12-4.92-.3-7.37-.53-1.17-.11-8.4-1.07-9.61-1.26l-.07-.15c2.94-.41,5.86-.9,8.76-1.5,9.43-1.98,18.65-5.08,27.22-9.5,9.7-5,18.53-11.82,25.47-20.27,8.34-10.16,13.82-22.3,16.69-35.09,.07-.29,.12-.59,.18-.88,.91,.64,1.82,1.3,2.71,1.96,.04,.03,.06,.05,.09,.07,.03,.02,.05,.04,.1,.08,.24,.19,.47,.37,.71,.56,.53,.43,1.06,.86,1.58,1.3,1.75,1.48,3.43,3.03,5.04,4.67,1.35,1.37,2.64,2.8,3.87,4.29,.23,.28,.46,.56,.68,.85l-.08-.11c.12,.16,.24,.32,.36,.48,.4,.54,.8,1.09,1.18,1.64,.59,.85,1.11,1.73,1.62,2.61-.43,1.45-.88,2.89-1.38,4.31-.31,.9-.64,1.79-.98,2.68Zm-93.85-99.27c1.38,.13,2.75,.27,4.13,.43,.69,.08,1.38,.16,2.08,.25,.3,.04,.59,.07,.89,.11,.19,.02,.37,.05,.56,.07h0c2.93,.42,5.86,.87,8.77,1.4,6.34,1.17,12.62,2.67,18.78,4.58,3.25,1.01,6.46,2.13,9.62,3.37,.74,.29,1.47,.59,2.2,.89h0c.14,.06,.28,.12,.41,.18,.45,.19,.89,.39,1.33,.58,1.54,.68,3.06,1.4,4.56,2.15,3.06,1.53,6.05,3.21,8.94,5.04,1.47,.93,2.91,1.9,4.33,2.92,.65,.47,1.29,.96,1.94,1.43l.04,.03c.15,.12,.3,.23,.45,.35,.35,.28,.7,.56,1.05,.84,2.69,2.2,5.24,4.57,7.61,7.1,1.22,1.3,2.39,2.64,3.51,4.03,.25,.31,.5,.62,.75,.94v.02c.12,.15,.24,.3,.35,.44,.56,.74,1.1,1.5,1.63,2.26,2.08,3.02,3.93,6.2,5.52,9.51,.4,.84,.79,1.69,1.17,2.55,.04,.08,.07,.17,.11,.25,.04,.1,.1,.25,.14,.33,.2,.51,.41,1.02,.61,1.54,.7,1.82,1.32,3.66,1.88,5.53,1.19,4.02,2.05,8.12,2.65,12.26v.07l.02,.09c.03,.23,.06,.46,.08,.68,.07,.58,.13,1.15,.19,1.73,.12,1.18,.22,2.35,.29,3.53,.05,.8,.08,1.61,.12,2.41-.15-.17-.3-.35-.46-.52-7.42-8.3-16.84-14.85-26.79-19.75-7.44-3.66-15.27-6.53-23.27-8.68-4.06-1.09-8.26-1.73-12.31-2.85-.33-.15-.69-.25-1.06-.29-.08-.02-.15-.04-.23-.06-3.7-1.15-6.38-2.28-9.77-4.14-6.16-3.38-10.74-7.16-15.62-12.32-1.1-1.17-2.17-2.37-3.21-3.59-.93-1.1-2.28-2.77-2.9-3.57-.55-.71-1.77-2.36-2.56-3.46-.91-1.26-1.8-2.54-2.68-3.82-3.11-4.54-6.03-9.21-9.3-13.65-1.02-1.39-2.08-2.78-3.21-4.11,.83,.02,1.67,.03,2.5,.05,4.73,.12,9.45,.41,14.15,.85Z"/><path class="cls-2" d="M310.16,377.78l-.03-.03c.61,.84,.21,.26,.03,.03Z"/><path class="cls-2" d="M211.97,358.82c-2.39-12.2-13.63-20.91-25.89-21.03-11.17,.11-20.99,7.09-24.89,17.52-3.79,10.13-.48,22.34,7.89,29.18,8.64,7.06,21.01,8.28,30.65,2.42,9.6-5.83,14.39-17.12,12.24-28.08Z"/></g></g></g><g><g><path class="cls-2" d="M66.05,387.57l2.4-.27,2.36,20.67-2.4,.28-2.36-20.67Z"/><path class="cls-2" d="M49.86,341.3l.29-3.7,29.1-10.29-.32,4.14-9.44,3.34-1.22,15.59,8.8,4.77-.07,.84-27.14-14.69Zm17.67,8.7l1.17-14.9-17.37,6.12,16.21,8.79Z"/><path class="cls-2" d="M74.62,312.22c1.35-.54,2.57-1.19,3.67-1.94,.96-.62,1.87-1.39,2.76-2.32,.88-.92,1.45-2,1.72-3.24l.18-.87c.22-1.05,.3-2.04,.22-2.96-.08-.92-.3-1.74-.65-2.46-.35-.72-.85-1.33-1.49-1.82-.64-.49-1.39-.83-2.26-1.01-.71-.15-1.4-.09-2.08,.2-.68,.28-1.35,.73-2.02,1.34-.66,.61-1.31,1.37-1.94,2.27-.63,.9-1.26,1.88-1.9,2.95-.61,1.05-1.25,2.12-1.93,3.19-.68,1.08-1.43,2.02-2.24,2.82-.82,.8-1.71,1.41-2.69,1.82-.98,.41-2.07,.49-3.28,.23-1.26-.27-2.28-.81-3.05-1.64-.77-.82-1.36-1.79-1.75-2.9-.4-1.11-.61-2.29-.65-3.52-.04-1.23,.05-2.37,.27-3.42l.18-.87c.35-1.65,.86-3.13,1.53-4.41,.67-1.29,1.56-2.47,2.67-3.55l1.35-1.32,2.68,2.71c-1.19,.41-2.28,.92-3.29,1.53-.86,.53-1.68,1.23-2.48,2.09s-1.33,1.91-1.59,3.14l-.18,.87c-.26,1.24-.34,2.32-.24,3.26,.1,.94,.34,1.74,.71,2.39,.37,.66,.86,1.19,1.46,1.59,.6,.4,1.27,.68,2.01,.84,.82,.17,1.54,.11,2.16-.2,.63-.31,1.22-.78,1.78-1.41,.56-.64,1.1-1.4,1.62-2.29,.52-.89,1.08-1.85,1.68-2.88,.61-1.08,1.24-2.15,1.89-3.2s1.37-1.98,2.17-2.77c2.04-2.12,4.28-2.92,6.73-2.41,1.42,.3,2.56,.87,3.43,1.7,.87,.83,1.51,1.8,1.93,2.92,.42,1.12,.64,2.33,.65,3.62,.01,1.29-.11,2.56-.37,3.79l-.18,.87c-.82,3.86-2.58,6.88-5.29,9.05l-1.49,1.21-2.38-2.98Z"/><path class="cls-2" d="M67.17,269.32c-.76-1.64-1.16-3.39-1.2-5.26-.05-1.87,.27-3.75,.95-5.65,.68-1.9,1.62-3.56,2.83-5,1.21-1.43,2.64-2.54,4.29-3.33,.89-.42,1.77-.77,2.62-1.05,.86-.28,1.73-.46,2.61-.54,.89-.08,1.81-.06,2.76,.07,.95,.12,1.97,.38,3.06,.77l.83,.3c2.15,.77,3.84,1.78,5.06,3.03,1.22,1.25,2.23,2.77,3.01,4.56,.76,1.64,1.15,3.4,1.19,5.28,.04,1.88-.28,3.77-.95,5.67-.68,1.9-1.62,3.56-2.83,4.98-1.21,1.42-2.63,2.53-4.28,3.31-.89,.42-1.77,.77-2.62,1.05-.86,.28-1.73,.46-2.61,.54-.89,.08-1.8,.06-2.76-.06s-1.97-.38-3.06-.77l-.84-.3c-1.09-.39-2.04-.83-2.86-1.34-.82-.51-1.54-1.07-2.18-1.7-.63-.63-1.2-1.32-1.69-2.08-.5-.76-.95-1.58-1.34-2.47Zm10.25,4.13c.83,.3,1.75,.56,2.74,.77,.99,.21,1.99,.36,2.99,.44,1,.09,1.95,.08,2.85,0,.9-.09,1.68-.29,2.33-.6,2.42-1.19,4.15-3.24,5.19-6.15,.51-1.44,.77-2.85,.76-4.22,0-1.37-.3-2.66-.87-3.86-.31-.65-.78-1.3-1.42-1.94-.64-.64-1.37-1.25-2.2-1.81-.83-.56-1.69-1.08-2.59-1.55-.9-.46-1.77-.85-2.61-1.15l-.83-.3c-.83-.3-1.75-.56-2.76-.77-1.01-.22-2.01-.37-3.01-.45-1-.08-1.94-.08-2.85,.01-.9,.09-1.67,.3-2.29,.61-2.42,1.19-4.16,3.25-5.2,6.19-1.04,2.91-1,5.59,.12,8.04,.31,.65,.78,1.3,1.42,1.94,.64,.64,1.37,1.25,2.2,1.81,.82,.57,1.69,1.08,2.59,1.55,.9,.46,1.77,.85,2.61,1.14l.84,.3Z"/><path class="cls-2" d="M90.76,236.52c-1.02-.54-1.9-1.11-2.64-1.73-.74-.61-1.38-1.28-1.93-1.99-.55-.71-1.01-1.48-1.39-2.3-.37-.82-.7-1.69-.97-2.63-.52-1.73-.67-3.52-.45-5.38,.22-1.86,.79-3.68,1.73-5.46,.47-.9,1.04-1.81,1.69-2.73,.65-.92,1.35-1.79,2.11-2.6,.76-.81,1.56-1.53,2.4-2.15,.84-.62,1.68-1.07,2.53-1.36l1.84,3.33c-1.37,.07-2.59,.29-3.65,.66-1.06,.37-2,.83-2.81,1.37-.82,.54-1.5,1.15-2.06,1.81-.56,.66-1.02,1.34-1.38,2.03-1.44,2.73-1.77,5.4-1,7.98,.22,.69,.59,1.4,1.14,2.12s1.19,1.43,1.92,2.1c.74,.68,1.52,1.31,2.35,1.89,.83,.59,1.64,1.09,2.42,1.5l.78,.41c.79,.41,1.65,.79,2.61,1.14,.96,.35,1.92,.64,2.89,.86,.97,.22,1.92,.35,2.82,.39s1.7-.05,2.39-.27c2.56-.84,4.56-2.63,6-5.36,.36-.69,.63-1.51,.79-2.45,.16-.95,.21-1.96,.15-3.06-.06-1.09-.26-2.24-.59-3.43-.33-1.19-.8-2.37-1.4-3.53l3.73-.77c.27,.87,.46,1.8,.57,2.78,.11,.98,.09,2.04-.04,3.16-.14,1.13-.4,2.33-.8,3.61-.4,1.28-.97,2.63-1.72,4.06-.94,1.78-2.1,3.3-3.5,4.54-1.39,1.24-2.96,2.13-4.7,2.67-.94,.3-1.86,.52-2.74,.68-.89,.16-1.77,.21-2.66,.17-.89-.04-1.8-.19-2.72-.45-.93-.26-1.9-.66-2.92-1.19l-.78-.41Z"/><path class="cls-2" d="M123.6,207.92l-23.55-15.53,2.11-3.19,23.55,15.52-2.11,3.2Z"/><path class="cls-2" d="M118.97,166.32l2.34-2.87,29.78,8.12-2.62,3.22-9.66-2.63-9.88,12.11,4.51,8.94-.53,.66-13.93-27.54Zm9.56,17.22l9.45-11.58-17.76-4.87,8.31,16.46Z"/><path class="cls-2" d="M147.56,154.12c-.79-.84-1.44-1.67-1.94-2.5-.5-.82-.89-1.66-1.18-2.51-.29-.85-.48-1.73-.56-2.62-.09-.89-.11-1.83-.06-2.79,.07-1.8,.51-3.55,1.32-5.24,.81-1.69,1.95-3.22,3.41-4.6,.74-.7,1.57-1.38,2.48-2.04,.91-.66,1.86-1.25,2.85-1.77,.98-.52,1.98-.94,2.97-1.25,1-.31,1.94-.46,2.83-.46l.66,3.75c-1.32-.38-2.54-.57-3.66-.56-1.12,0-2.16,.13-3.1,.38-.95,.25-1.79,.59-2.54,1.04-.75,.44-1.4,.93-1.97,1.47-2.25,2.12-3.43,4.53-3.55,7.22-.02,.72,.11,1.52,.39,2.38,.28,.86,.66,1.73,1.13,2.61,.48,.88,1.01,1.73,1.61,2.55,.59,.83,1.19,1.56,1.8,2.21l.61,.64c.61,.65,1.31,1.29,2.1,1.93,.79,.64,1.61,1.23,2.46,1.75,.85,.53,1.7,.96,2.54,1.29,.85,.33,1.63,.5,2.35,.53,2.7,.04,5.17-1,7.42-3.12,.57-.53,1.08-1.22,1.54-2.06,.46-.84,.84-1.79,1.14-2.85,.3-1.05,.48-2.2,.56-3.43,.07-1.24,.02-2.5-.17-3.8l3.78,.48c-.03,.91-.15,1.85-.37,2.81-.22,.96-.58,1.96-1.07,2.98-.5,1.02-1.14,2.07-1.93,3.15-.79,1.08-1.78,2.17-2.95,3.28-1.47,1.38-3.06,2.43-4.78,3.15-1.72,.72-3.49,1.05-5.32,1-.99-.03-1.93-.11-2.81-.25-.89-.14-1.75-.38-2.57-.7-.83-.33-1.64-.77-2.43-1.31-.79-.55-1.58-1.24-2.38-2.08l-.61-.65Z"/><path class="cls-2" d="M187.94,137.76l-17.2-22.36,3.04-2.33,17.19,22.36-3.03,2.33Z"/><path class="cls-2" d="M218.61,99.75l.47,.76c2.41,3.91,2.48,7.18,1.55,10.97-.88,3.48-3.23,6.58-6.66,8.69-3.4,2.09-7.22,2.8-10.73,2.02-3.8-.87-6.69-2.41-9.1-6.32l-.46-.75c-2.41-3.91-2.48-7.18-1.55-10.97,.89-3.48,3.23-6.58,6.63-8.68,3.43-2.11,7.26-2.81,10.76-2.04,3.8,.87,6.69,2.41,9.1,6.32Zm-3.4,2.09c-1.86-3.02-5.37-6.64-8.14-7.29-2.59-.59-5.32-.04-7.93,1.57-2.57,1.59-4.3,3.78-4.94,6.35-.69,2.79,.99,7.53,2.85,10.55l.47,.76c1.86,3.02,5.33,6.65,8.14,7.29,2.58,.59,5.32,.03,7.89-1.55,2.61-1.61,4.33-3.8,4.97-6.37,.66-2.77-.99-7.53-2.85-10.55l-.46-.75Zm-18.47-6.7l-1.58,.97,.39-6.2,2.74-1.69-1.56,6.92Z"/><path class="cls-2" d="M237.66,106.37l-11.35-25.82,3.84-1.68,26.18,12.79-8.95-20.36,.66-.29,11.35,25.82-.66,.29-30.97-15.18,10.6,24.13-.7,.31Z"/><path class="cls-2" d="M299.1,55.9c1.89-.4,3.71-.41,5.45-.02,1.74,.39,3.32,1.09,4.72,2.09,1.41,1.01,2.61,2.28,3.61,3.83,1,1.55,1.7,3.26,2.1,5.16,.4,1.89,.45,3.75,.17,5.57-.29,1.82-.87,3.47-1.75,4.96-.88,1.49-2.04,2.77-3.48,3.82-1.44,1.06-3.1,1.79-5,2.19l-13.13,2.77-5.82-27.6,13.13-2.77Zm-9.22,2.73l5.51,26.1,6.9-1.46c1.71-.36,3.22-.97,4.53-1.84,1.31-.87,2.37-1.96,3.18-3.29,.8-1.32,1.33-2.86,1.56-4.61,.23-1.75,.13-3.68-.31-5.78-.46-2.18-1.15-4.02-2.07-5.53-.92-1.51-2.02-2.69-3.28-3.55-1.27-.86-2.67-1.41-4.22-1.66-1.55-.25-3.18-.19-4.89,.16l-6.9,1.46Z"/><path class="cls-2" d="M328.24,51.01l17.3-1.49,.07,.76-13.49,1.16,1.03,12,8.23-.71,.07,.76-8.23,.71,1.19,13.81,14.69-1.27,.07,.76-18.51,1.6-2.42-28.1Z"/><path class="cls-2" d="M386.14,49.65l17.28,1.71-.07,.76-13.47-1.33-1.19,11.99,8.22,.81-.07,.76-8.22-.82-1.37,13.8,14.68,1.45-.07,.76-18.49-1.83,2.78-28.07Z"/><path class="cls-2" d="M419.78,53.68l4.88,1.09,6.4,13.9,12.56-9.67,1.1,.24-13.27,10.25,8.03,17.48-4.88-1.09-6.4-13.9-12.56,9.67-1.1-.25,13.27-10.25-8.03-17.48Z"/><path class="cls-2" d="M461.4,64.2l13.74,5.01c.98,.36,1.84,.88,2.58,1.58s1.3,1.5,1.69,2.42c.4,.92,.61,1.91,.65,2.98,.04,1.07-.14,2.16-.55,3.27-.4,1.09-.95,2.03-1.67,2.82-.72,.8-1.52,1.42-2.42,1.87-.89,.45-1.85,.71-2.86,.78-1.01,.07-2.01-.07-3-.43l-10.15-3.7-4.08,11.21-3.6-1.31,9.66-26.5Zm3.34,2.03l-5.05,13.86,8.86,3.23c.91,.33,1.76,.37,2.55,.13,.79-.24,1.5-.64,2.13-1.2,.63-.56,1.18-1.21,1.64-1.96,.46-.75,.81-1.46,1.06-2.14,.22-.61,.41-1.33,.56-2.18,.15-.84,.17-1.7,.05-2.55-.12-.86-.41-1.65-.89-2.38-.48-.73-1.25-1.29-2.31-1.68l-8.59-3.13Z"/><path class="cls-2" d="M498.94,83.03c1.73-.52,3.52-.68,5.38-.47,1.86,.21,3.68,.78,5.47,1.71,1.79,.93,3.31,2.09,4.56,3.49,1.26,1.4,2.16,2.96,2.71,4.7,.3,.94,.52,1.86,.68,2.74,.16,.88,.22,1.77,.18,2.66-.04,.89-.19,1.8-.44,2.72-.26,.93-.65,1.9-1.19,2.93l-.41,.79c-1.05,2.03-2.28,3.56-3.69,4.6-1.41,1.04-3.05,1.83-4.93,2.36-1.73,.53-3.53,.68-5.4,.46-1.87-.22-3.7-.79-5.49-1.72-1.79-.93-3.3-2.09-4.55-3.48-1.25-1.39-2.14-2.96-2.69-4.7-.3-.94-.53-1.86-.68-2.74-.16-.89-.22-1.77-.18-2.66,.04-.89,.18-1.8,.44-2.72,.26-.93,.65-1.9,1.18-2.93l.41-.79c.53-1.02,1.11-1.91,1.72-2.65,.61-.74,1.27-1.38,1.98-1.92,.71-.54,1.47-1.01,2.29-1.39,.82-.39,1.7-.72,2.63-.99Zm-5.49,9.59c-.41,.79-.79,1.66-1.13,2.61-.35,.96-.63,1.92-.85,2.9-.22,.98-.35,1.92-.38,2.82s.06,1.7,.28,2.39c.85,2.56,2.64,4.56,5.38,5.98,1.36,.71,2.72,1.15,4.08,1.33,1.36,.18,2.67,.07,3.94-.33,.69-.22,1.39-.6,2.12-1.15,.72-.55,1.42-1.19,2.1-1.93,.67-.74,1.3-1.53,1.89-2.36,.58-.83,1.08-1.64,1.49-2.42l.41-.79c.41-.79,.79-1.66,1.14-2.63,.35-.97,.64-1.94,.86-2.91,.22-.98,.35-1.92,.38-2.82,.03-.91-.07-1.69-.3-2.36-.85-2.56-2.65-4.56-5.42-6-2.74-1.43-5.4-1.75-7.99-.98-.69,.22-1.4,.6-2.12,1.14-.72,.55-1.42,1.19-2.09,1.93-.67,.74-1.3,1.53-1.89,2.36-.59,.83-1.08,1.64-1.49,2.43l-.41,.79Z"/><path class="cls-2" d="M548.16,108.35c.86,.61,1.56,1.32,2.12,2.14,.56,.82,.92,1.7,1.09,2.65,.17,.94,.15,1.91-.05,2.9-.2,.99-.65,1.97-1.33,2.93-.59,.83-1.26,1.5-2.03,2-.76,.5-1.56,.85-2.39,1.05-.83,.2-1.69,.25-2.56,.14s-1.72-.35-2.54-.73c.28,.4,.48,.85,.58,1.37,.11,.52,.11,1.14,0,1.85l-2.14,11.7-4.58-3.23,3.2-12.44c.08-.4,.02-.75-.18-1.04-.2-.29-.5-.59-.88-.89l-5.5-3.88-7.48,10.6-3.13-2.21,16.26-23.05,11.52,8.13Zm-9.72,10.85c.79,.56,1.6,.86,2.42,.9,.83,.04,1.61-.08,2.36-.38s1.45-.71,2.09-1.24,1.17-1.1,1.59-1.69c.37-.53,.72-1.16,1.06-1.89,.34-.73,.54-1.5,.61-2.31,.07-.8-.05-1.6-.36-2.4-.31-.79-.93-1.52-1.85-2.17l-7.05-4.97-7.9,11.2,7.01,4.95Z"/><path class="cls-2" d="M565.82,122.74l.51-.57,17.47,15.71-.51,.57-7.31-6.57-18.35,20.4-2.85-2.56,18.35-20.41-7.31-6.57Z"/><path class="cls-2" d="M600.03,155.14l2.45,2.79-12.93,28.02-2.74-3.12,4.19-9.09-10.31-11.75-9.56,2.98-.56-.64,29.47-9.19Zm-18.56,6.58l9.86,11.24,7.74-16.71-17.6,5.47Z"/><path class="cls-2" d="M628.18,191.99c1.06,1.62,1.72,3.31,1.99,5.08,.27,1.77,.19,3.48-.24,5.16-.43,1.68-1.19,3.26-2.26,4.75-1.08,1.49-2.43,2.77-4.05,3.82-1.62,1.06-3.33,1.78-5.13,2.17-1.8,.39-3.55,.44-5.26,.16-1.71-.28-3.32-.9-4.82-1.86-1.51-.96-2.79-2.24-3.85-3.86l-7.34-11.23,23.62-15.43,7.34,11.23Zm-5.89-7.61l-22.33,14.59,3.86,5.9c.95,1.46,2.07,2.65,3.36,3.56,1.28,.91,2.69,1.5,4.22,1.77,1.52,.27,3.15,.2,4.86-.21,1.72-.42,3.48-1.21,5.27-2.39,1.87-1.22,3.34-2.53,4.41-3.94,1.07-1.41,1.78-2.85,2.12-4.35,.34-1.49,.35-3,.02-4.54-.33-1.53-.97-3.03-1.93-4.5l-3.86-5.9Z"/><path class="cls-2" d="M641.98,222.47c1.69,.63,3.21,1.6,4.56,2.89,1.35,1.3,2.45,2.85,3.31,4.68,.86,1.82,1.36,3.67,1.51,5.55,.15,1.87-.08,3.67-.7,5.38-.34,.93-.71,1.79-1.12,2.59-.41,.8-.9,1.54-1.47,2.23-.57,.68-1.24,1.31-2,1.89-.77,.58-1.67,1.12-2.72,1.61l-.8,.38c-2.07,.97-3.98,1.44-5.72,1.42-1.75-.03-3.53-.4-5.35-1.12-1.69-.63-3.21-1.6-4.57-2.91-1.35-1.31-2.46-2.87-3.31-4.7s-1.36-3.67-1.5-5.53c-.15-1.86,.09-3.65,.71-5.36,.34-.93,.71-1.79,1.12-2.59,.41-.8,.9-1.54,1.47-2.23,.57-.68,1.24-1.32,2.01-1.9,.76-.58,1.67-1.12,2.72-1.61l.8-.38c1.05-.49,2.04-.84,2.97-1.06,.94-.22,1.85-.33,2.74-.33s1.78,.09,2.67,.28c.89,.19,1.79,.46,2.69,.81Zm-10.18,4.29c-.8,.38-1.63,.84-2.49,1.39-.86,.55-1.67,1.14-2.43,1.78-.77,.64-1.44,1.31-2.02,2.01-.58,.7-.99,1.39-1.23,2.07-.88,2.55-.67,5.22,.64,8.02,.65,1.39,1.46,2.56,2.44,3.53,.97,.97,2.08,1.68,3.33,2.13,.68,.25,1.47,.37,2.38,.38,.91,0,1.85-.08,2.84-.26,.99-.18,1.96-.42,2.93-.73,.97-.31,1.85-.65,2.66-1.02l.8-.38c.8-.37,1.64-.84,2.5-1.4,.87-.56,1.68-1.15,2.45-1.8s1.44-1.31,2.02-2.01c.58-.7,.97-1.39,1.2-2.05,.88-2.55,.66-5.24-.66-8.06-1.31-2.8-3.23-4.67-5.75-5.63-.68-.25-1.47-.37-2.38-.38-.91,0-1.85,.08-2.84,.26-.98,.18-1.96,.42-2.93,.73-.97,.31-1.86,.65-2.66,1.02l-.8,.38Z"/><path class="cls-2" d="M665.72,272.53c.31,1,.44,2,.38,2.98-.06,.99-.3,1.91-.74,2.76-.44,.86-1.04,1.61-1.8,2.27-.76,.66-1.71,1.17-2.84,1.52-.97,.31-1.92,.43-2.82,.36-.91-.07-1.75-.28-2.54-.62-.78-.35-1.49-.83-2.12-1.45-.63-.62-1.15-1.33-1.57-2.12-.02,.48-.14,.96-.37,1.45-.23,.48-.6,.97-1.12,1.47l-8.82,7.99-1.67-5.34,10.1-7.93c.31-.27,.47-.58,.49-.93s-.04-.77-.15-1.24l-2.01-6.42-12.38,3.87-1.14-3.66,26.92-8.41,4.21,13.46Zm-14.31,2.7c.29,.92,.75,1.65,1.38,2.19,.63,.53,1.33,.91,2.11,1.14,.77,.22,1.58,.32,2.41,.28,.83-.03,1.6-.16,2.29-.38,.62-.19,1.28-.48,1.99-.85,.71-.38,1.34-.86,1.89-1.46,.55-.59,.94-1.3,1.17-2.12s.19-1.77-.15-2.85l-2.57-8.23-13.08,4.08,2.56,8.19Z"/><path class="cls-2" d="M671.85,295.99l3.49,17.01-.75,.16-2.72-13.26-11.8,2.42,1.66,8.09-.75,.16-1.66-8.09-13.58,2.78,2.96,14.45-.75,.15-3.73-18.2,27.63-5.67Z"/><path class="cls-2" d="M656.72,333.24c-1.14,.89-2.14,1.86-2.97,2.89-.74,.86-1.41,1.86-1.99,3-.59,1.14-.83,2.33-.74,3.59l.07,.88c.08,1.07,.29,2.04,.63,2.9,.33,.86,.77,1.59,1.32,2.18,.54,.59,1.19,1.03,1.94,1.33,.75,.29,1.56,.41,2.45,.34,.72-.06,1.37-.31,1.94-.78,.57-.46,1.09-1.08,1.55-1.86,.47-.78,.87-1.68,1.23-2.72,.35-1.04,.69-2.16,1-3.37,.29-1.18,.61-2.38,.96-3.61,.35-1.23,.81-2.34,1.36-3.34,.56-1,1.25-1.83,2.07-2.5,.82-.67,1.85-1.05,3.08-1.14,1.29-.1,2.42,.14,3.39,.71,.97,.57,1.81,1.34,2.5,2.3,.69,.96,1.23,2.02,1.62,3.19,.38,1.17,.62,2.29,.7,3.36l.07,.89c.13,1.69,.05,3.24-.23,4.66-.28,1.42-.8,2.81-1.56,4.16l-.92,1.65-3.33-1.85c1.02-.72,1.93-1.52,2.73-2.39,.67-.75,1.27-1.65,1.8-2.7s.74-2.21,.64-3.46l-.07-.88c-.1-1.26-.33-2.33-.69-3.2-.36-.87-.81-1.58-1.35-2.1-.54-.52-1.15-.9-1.84-1.11-.69-.22-1.41-.3-2.16-.24-.83,.06-1.5,.33-2.02,.8-.52,.47-.96,1.09-1.31,1.86-.36,.77-.66,1.65-.91,2.66-.25,1-.52,2.08-.81,3.23-.29,1.21-.59,2.41-.92,3.61-.33,1.2-.76,2.29-1.31,3.27-1.36,2.61-3.29,4.01-5.78,4.2-1.45,.11-2.7-.11-3.77-.66s-1.96-1.31-2.68-2.26c-.72-.96-1.27-2.05-1.64-3.29-.38-1.24-.61-2.49-.71-3.74l-.07-.88c-.3-3.94,.55-7.33,2.54-10.17l1.09-1.58,3.12,2.19Z"/><path class="cls-2" d="M659.8,410.04l-2.4-.29,2.46-20.64,2.4,.29-2.46,20.64Z"/></g><g><path class="cls-2" d="M99.61,469.62c.71,1.8,1.02,3.59,.94,5.37-.09,1.78-.51,3.45-1.27,5.01-.76,1.56-1.81,2.96-3.17,4.2-1.36,1.25-2.93,2.22-4.73,2.94-1.8,.71-3.62,1.08-5.46,1.1s-3.57-.27-5.19-.89c-1.62-.61-3.07-1.54-4.35-2.78-1.28-1.24-2.28-2.76-3-4.55l-4.95-12.47,26.22-10.4,4.95,12.47Zm-4.25-8.63l-24.8,9.83,2.6,6.55c.64,1.62,1.5,3.01,2.58,4.16,1.08,1.15,2.33,2.01,3.77,2.58,1.44,.57,3.04,.83,4.81,.76,1.77-.07,3.65-.49,5.65-1.29,2.07-.82,3.77-1.82,5.11-2.98,1.33-1.17,2.31-2.44,2.94-3.83,.63-1.39,.94-2.87,.93-4.44-.02-1.57-.35-3.16-.99-4.79l-2.6-6.55Z"/><path class="cls-2" d="M109.96,493l8.34,15.23-.67,.37-6.5-11.88-10.57,5.78,3.97,7.25-.67,.37-3.97-7.25-12.16,6.65,7.08,12.94-.67,.37-8.92-16.3,24.74-13.54Z"/><path class="cls-2" d="M146.51,547.93c.67,.81,1.14,1.67,1.42,2.59,.28,.92,.37,1.85,.27,2.79-.09,.94-.38,1.84-.85,2.7-.47,.86-1.11,1.63-1.91,2.3-.45,.38-.99,.67-1.61,.87-.62,.2-1.25,.3-1.9,.3-.65,0-1.28-.1-1.89-.29-.61-.19-1.16-.49-1.64-.89,.62,.74,1.05,1.57,1.3,2.48,.25,.91,.33,1.82,.25,2.72-.08,.91-.32,1.77-.72,2.6-.4,.82-.95,1.52-1.65,2.11-1.05,.88-2.12,1.48-3.21,1.81-1.09,.33-2.14,.43-3.16,.3-1.02-.13-1.99-.47-2.92-1.03-.93-.55-1.77-1.27-2.51-2.16l-10.03-12.05,21.68-18.05,9.07,10.9Zm-16.78,.5l-10.93,9.1,6.37,7.65c.69,.83,1.45,1.41,2.3,1.76,.85,.34,1.72,.5,2.62,.47,.9-.03,1.79-.24,2.66-.62,.87-.38,1.68-.87,2.43-1.49,.54-.45,1.06-.98,1.56-1.59,.5-.61,.86-1.3,1.07-2.05,.21-.75,.23-1.58,.04-2.47-.19-.89-.69-1.84-1.51-2.83l-6.6-7.93Zm.59-.49l5.95,7.16c.55,.66,1.14,1.12,1.76,1.39,.62,.27,1.25,.41,1.87,.41,.62,0,1.21-.1,1.76-.31,.55-.22,1.04-.5,1.45-.84,1.59-1.32,2.59-2.72,2.99-4.19,.4-1.47,.09-2.83-.94-4.06l-5.85-7.03-8.98,7.48Z"/><path class="cls-2" d="M168.58,571.23l2.71,2.53-10.05,29.18-3.04-2.83,3.25-9.47-11.44-10.65-9.21,3.92-.62-.58,28.39-12.11Zm-17.8,8.42l10.94,10.19,6.02-17.41-16.96,7.22Z"/><path class="cls-2" d="M173.8,612.92l16.28-23.04,3.42,2.42,2.53,29.03,12.84-18.17,.59,.42-16.28,23.04-.59-.42-2.96-34.36-15.21,21.52-.63-.44Z"/><path class="cls-2" d="M230.93,615.89l3.29,1.71-1.94,30.8-3.68-1.92,.62-9.99-13.86-7.23-7.84,6.23-.75-.39,24.16-19.21Zm-14.93,12.85l13.25,6.92,1.18-18.38-14.44,11.47Z"/><path class="cls-2" d="M247.09,654.73l9.57-26.53,3.94,1.42,10.15,27.31,7.55-20.92,.68,.25-9.57,26.53-.68-.25-11.98-32.34-8.94,24.79-.72-.26Z"/><path class="cls-2" d="M294.28,644.14c1.52-.97,3.21-1.6,5.06-1.89,1.85-.29,3.76-.23,5.73,.19,1.97,.42,3.75,1.14,5.33,2.15,1.58,1.01,2.87,2.28,3.86,3.81,.54,.83,1,1.65,1.39,2.46,.39,.81,.68,1.65,.88,2.52,.2,.87,.3,1.78,.3,2.74,0,.96-.12,2.01-.36,3.14l-.19,.87c-.48,2.23-1.25,4.04-2.33,5.42-1.08,1.38-2.45,2.57-4.12,3.59-1.52,.97-3.22,1.59-5.08,1.88-1.86,.29-3.78,.22-5.75-.2-1.97-.42-3.74-1.13-5.31-2.14-1.57-1.01-2.85-2.28-3.84-3.81-.54-.83-1-1.65-1.39-2.46-.39-.81-.68-1.65-.89-2.52-.2-.87-.3-1.78-.3-2.74,0-.96,.12-2.01,.36-3.14l.18-.87c.24-1.13,.56-2.13,.95-3.01,.39-.87,.86-1.67,1.39-2.38,.54-.71,1.15-1.36,1.84-1.96,.69-.6,1.45-1.15,2.27-1.66Zm-2.74,10.7c-.18,.87-.32,1.81-.4,2.82-.08,1.01-.09,2.02-.05,3.02,.05,1,.18,1.94,.39,2.82,.21,.88,.51,1.62,.9,2.23,1.5,2.24,3.76,3.69,6.78,4.33,1.5,.32,2.93,.38,4.29,.19,1.36-.19,2.6-.65,3.71-1.37,.61-.39,1.18-.95,1.74-1.67,.55-.72,1.05-1.53,1.5-2.42,.45-.89,.85-1.82,1.19-2.77,.34-.96,.6-1.87,.79-2.74l.19-.87c.18-.87,.32-1.81,.4-2.84,.08-1.03,.1-2.04,.05-3.04-.05-1-.18-1.94-.39-2.82-.21-.88-.52-1.61-.91-2.19-1.5-2.24-3.77-3.69-6.82-4.34-3.02-.64-5.67-.25-7.96,1.19-.61,.39-1.19,.95-1.74,1.67-.55,.72-1.05,1.53-1.5,2.42-.45,.89-.85,1.82-1.19,2.78-.34,.96-.61,1.87-.79,2.74l-.19,.87Z"/><path class="cls-2" d="M365.71,649.06c1.94-.01,3.71,.35,5.35,1.08,1.63,.73,3.03,1.73,4.21,3,1.18,1.27,2.1,2.76,2.77,4.48,.67,1.71,1.01,3.54,1.02,5.47,.01,1.94-.31,3.76-.96,5.48-.65,1.73-1.55,3.23-2.71,4.51s-2.55,2.3-4.17,3.05c-1.62,.75-3.4,1.13-5.33,1.14l-13.42,.08-.17-28.21,13.42-.08Zm-9.58,.82l.16,26.67,7.05-.04c1.75-.01,3.35-.31,4.81-.9,1.46-.58,2.72-1.45,3.77-2.58,1.05-1.14,1.87-2.54,2.45-4.21,.58-1.67,.86-3.58,.85-5.73-.01-2.23-.32-4.17-.92-5.84-.6-1.66-1.43-3.04-2.5-4.14-1.07-1.09-2.34-1.92-3.8-2.48-1.47-.55-3.07-.83-4.82-.82l-7.05,.04Z"/><path class="cls-2" d="M391.29,647.89l17.22-2.24,.1,.76-13.43,1.75,1.55,11.95,8.19-1.06,.1,.76-8.19,1.07,1.79,13.74,14.62-1.9,.1,.76-18.42,2.39-3.63-27.97Z"/><path class="cls-2" d="M426.31,642.11l6.09,26.76,14.38-3.28,.17,.75-18.11,4.13-6.27-27.5,3.73-.85Z"/><path class="cls-2" d="M471.82,628.09l15.87-7.06,.31,.7-12.37,5.5,4.9,11.01,7.55-3.36,.31,.7-7.55,3.36,5.63,12.66,13.48-5.99,.31,.7-16.97,7.55-11.46-25.77Z"/><path class="cls-2" d="M504.57,628.03c-.59-.99-1.04-1.95-1.34-2.86-.31-.91-.5-1.81-.6-2.71-.09-.9-.09-1.79,.03-2.68,.11-.89,.3-1.81,.55-2.74,.47-1.75,1.28-3.35,2.44-4.82,1.16-1.47,2.61-2.72,4.34-3.74,.88-.52,1.83-1,2.87-1.44,1.03-.44,2.09-.81,3.16-1.1,1.08-.29,2.13-.48,3.18-.57,1.04-.08,2-.03,2.87,.18l-.18,3.81c-1.2-.66-2.35-1.11-3.45-1.35-1.1-.24-2.13-.35-3.11-.31-.98,.03-1.88,.18-2.71,.46-.82,.27-1.57,.6-2.24,1-2.66,1.57-4.34,3.66-5.05,6.27-.18,.7-.23,1.5-.15,2.4,.08,.91,.26,1.84,.53,2.8,.27,.96,.61,1.91,1.01,2.85,.4,.94,.82,1.79,1.27,2.55l.45,.76c.45,.76,.99,1.55,1.62,2.34,.63,.8,1.3,1.55,2.01,2.25,.71,.7,1.45,1.31,2.2,1.81,.75,.51,1.48,.85,2.18,1.03,2.62,.63,5.26,.16,7.92-1.41,.67-.4,1.32-.96,1.96-1.67,.64-.72,1.21-1.56,1.74-2.53,.52-.96,.95-2.04,1.3-3.23,.34-1.19,.56-2.43,.66-3.74l3.58,1.3c-.23,.88-.55,1.77-.97,2.66-.43,.89-.99,1.78-1.7,2.67-.71,.89-1.57,1.77-2.58,2.65-1.01,.88-2.21,1.73-3.59,2.55-1.73,1.03-3.52,1.7-5.36,2.03-1.84,.32-3.64,.26-5.41-.19-.96-.25-1.86-.53-2.69-.86-.84-.33-1.62-.75-2.36-1.25-.73-.5-1.43-1.11-2.08-1.81-.65-.71-1.27-1.56-1.86-2.55l-.45-.76Z"/><path class="cls-2" d="M531.39,595.18l3-2.38,10.64,13.43c.9,1.14,1.9,2.09,3,2.87,1.09,.78,2.21,1.34,3.35,1.69,1.13,.35,2.23,.46,3.3,.34,1.07-.13,2.01-.51,2.83-1.16l2.12-1.68c1.2-.95,2.07-2.03,2.63-3.24,.55-1.21,.84-2.46,.88-3.75,.04-1.3-.18-2.59-.64-3.86-.46-1.28-1.11-2.44-1.95-3.49l-10.64-13.42,.6-.47,10.63,13.42c.97,1.22,1.69,2.54,2.17,3.94,.48,1.4,.69,2.79,.62,4.16-.06,1.37-.41,2.69-1.03,3.95-.63,1.27-1.56,2.39-2.8,3.38l-2.12,1.68c-1.47,1.17-2.96,1.96-4.45,2.37-1.49,.41-2.92,.5-4.29,.26-1.37-.23-2.67-.75-3.91-1.56-1.24-.81-2.34-1.81-3.31-3.04l-10.63-13.42Z"/><path class="cls-2" d="M566.98,564.24l2.58-2.66,28.96,10.67-2.89,2.98-9.4-3.46-10.9,11.21,3.72,9.29-.59,.61-11.49-28.64Zm8.04,17.98l10.42-10.72-17.27-6.39,6.86,17.11Z"/><path class="cls-2" d="M594.03,532.4c1.14-1.56,2.49-2.78,4.05-3.66,1.56-.87,3.19-1.41,4.91-1.6,1.72-.19,3.47-.04,5.25,.44,1.78,.49,3.44,1.3,5.01,2.44,1.56,1.14,2.84,2.49,3.84,4.03,1,1.55,1.67,3.17,2.01,4.86,.34,1.7,.33,3.42-.03,5.17-.36,1.75-1.12,3.4-2.26,4.96l-7.92,10.83-22.77-16.65,7.92-10.83Zm-5.04,8.19l21.53,15.75,4.16-5.69c1.03-1.41,1.75-2.87,2.14-4.4,.4-1.52,.45-3.05,.17-4.57-.28-1.52-.92-3.01-1.92-4.48-1-1.46-2.36-2.82-4.1-4.09-1.8-1.31-3.55-2.22-5.24-2.73-1.69-.51-3.3-.66-4.81-.45-1.52,.21-2.93,.73-4.25,1.58-1.32,.85-2.49,1.98-3.52,3.39l-4.16,5.69Z"/><path class="cls-2" d="M613.22,509.85c-.5-1.74-.63-3.53-.4-5.39,.24-1.86,.83-3.67,1.79-5.45,.96-1.77,2.14-3.28,3.55-4.51,1.42-1.24,3-2.12,4.74-2.64,.95-.28,1.86-.5,2.75-.65s1.78-.2,2.66-.14c.89,.05,1.79,.21,2.72,.48s1.89,.68,2.91,1.22l.78,.42c2.01,1.08,3.53,2.33,4.55,3.75,1.02,1.42,1.78,3.08,2.29,4.97,.5,1.73,.63,3.53,.39,5.4-.25,1.87-.84,3.69-1.8,5.46-.96,1.77-2.14,3.27-3.54,4.5-1.41,1.23-2.98,2.1-4.73,2.62-.95,.28-1.86,.5-2.75,.65-.89,.15-1.78,.2-2.66,.14-.89-.05-1.79-.21-2.72-.48-.92-.27-1.89-.68-2.91-1.22l-.78-.42c-1.02-.55-1.89-1.13-2.62-1.75-.73-.63-1.36-1.29-1.89-2.01-.53-.71-.99-1.48-1.36-2.31-.38-.83-.7-1.71-.96-2.64Zm9.51,5.62c.78,.42,1.64,.81,2.6,1.17,.95,.36,1.91,.66,2.88,.89,.97,.23,1.91,.37,2.82,.42,.91,.05,1.71-.03,2.4-.24,2.57-.81,4.59-2.57,6.06-5.3,.73-1.35,1.19-2.7,1.39-4.06,.2-1.36,.1-2.67-.28-3.95-.21-.69-.58-1.4-1.12-2.14-.54-.73-1.17-1.44-1.9-2.12-.73-.69-1.51-1.32-2.33-1.92-.82-.6-1.63-1.1-2.4-1.53l-.78-.42c-.78-.42-1.65-.81-2.62-1.18-.96-.36-1.93-.67-2.9-.9-.97-.23-1.91-.37-2.82-.42-.91-.04-1.69,.04-2.36,.26-2.57,.81-4.6,2.59-6.08,5.33-1.47,2.72-1.83,5.38-1.09,7.97,.21,.69,.58,1.4,1.12,2.14,.54,.73,1.17,1.44,1.9,2.12,.73,.68,1.51,1.32,2.33,1.92,.82,.6,1.63,1.1,2.41,1.53l.78,.42Z"/><path class="cls-2" d="M631.78,461.83c.37-.98,.88-1.84,1.53-2.59,.65-.74,1.42-1.32,2.29-1.72,.87-.4,1.81-.63,2.82-.68,1.01-.05,2.07,.13,3.17,.55,.96,.36,1.77,.85,2.44,1.46,.67,.61,1.21,1.3,1.62,2.05,.4,.76,.66,1.57,.78,2.45,.12,.87,.09,1.76-.07,2.64,.31-.37,.71-.67,1.18-.91,.48-.24,1.07-.39,1.79-.47l11.87-.87-1.98,5.24-12.84,.02c-.41,.02-.73,.16-.96,.44-.23,.27-.44,.63-.64,1.07l-2.37,6.3,12.14,4.57-1.35,3.58-26.39-9.95,4.97-13.2Zm12.94,6.69c.34-.91,.43-1.76,.26-2.57-.17-.81-.49-1.54-.96-2.19-.47-.65-1.05-1.22-1.73-1.71-.68-.49-1.36-.86-2.04-1.11-.6-.23-1.3-.41-2.09-.55-.79-.14-1.59-.15-2.39-.02-.79,.13-1.54,.45-2.23,.95-.69,.5-1.24,1.28-1.63,2.33l-3.04,8.07,12.82,4.83,3.03-8.03Z"/></g><path class="cls-1" d="M364.21,728.41c-97.28,0-188.74-37.88-257.53-106.67C37.88,552.95,0,461.49,0,364.21S37.88,175.46,106.67,106.67C175.46,37.88,266.92,0,364.21,0s188.74,37.88,257.53,106.67c68.79,68.79,106.67,160.25,106.67,257.53s-37.88,188.74-106.67,257.53c-68.79,68.79-160.25,106.67-257.53,106.67Zm0-720.66c-95.21,0-184.73,37.08-252.05,104.4C44.83,179.48,7.75,268.99,7.75,364.21s37.08,184.73,104.4,252.05c67.33,67.33,156.84,104.4,252.05,104.4s184.73-37.08,252.05-104.4c67.33-67.33,104.4-156.84,104.4-252.05s-37.08-184.73-104.4-252.05C548.93,44.83,459.42,7.75,364.21,7.75Z"/></g></g></g></g></svg>