<?xml version="1.0" encoding="UTF-8"?><svg id="Capa_2" xmlns="http://www.w3.org/2000/svg" viewBox="0 0 850.37 279.31"><defs><style>.cls-1{fill:#fff;}.cls-2{letter-spacing:0em;}.cls-3{fill:none;stroke:#f39200;stroke-miterlimit:10;stroke-width:4px;}.cls-4{letter-spacing:-.02em;}.cls-5{font-family:Montserrat-Bold, Montserrat;font-weight:700;}.cls-6{letter-spacing:0em;}.cls-7{letter-spacing:0em;}.cls-8{font-family:Montserrat-Light, Montserrat;font-weight:300;}.cls-9,.cls-10{fill:#3c3c3b;}.cls-11{fill:#f9b233;}.cls-12{letter-spacing:0em;}.cls-13{letter-spacing:-.02em;}.cls-10{font-size:76.19px;}.cls-14{letter-spacing:.01em;}.cls-15{fill:#063;}</style></defs><g id="Capa_1-2"><g><g><g><path class="cls-15" d="M214.38,.54h-79.24C55.89,.54,0,52.1,0,140.03c0,13.42,1.45,26.03,4.18,37.73,0,.03,0,.07,.02,.12,3.46,14.82,8.98,28.18,16.2,39.91,.35,.56,.7,1.12,1.06,1.69,1.57,2.47,3.23,4.86,4.96,7.17,.31,.41,.61,.81,.92,1.22,.37,.48,.74,.96,1.13,1.46,20.68,25.85,76.21,59.41,152.08-1.46h-.02c4.01-3.18,7.81-6.76,11.36-10.72-23.39,14.66-42.86,20.06-57.72,21.32-2.18,.24-4.39,.36-6.63,.36-1.56,0-3.11-.05-4.66-.15-.06,0-.12,0-.16,0-7.79-.53-15.18-2.35-22.06-5.3-.02,0-.03-.02-.03-.02-20.62-8.86-36.64-27.93-45.11-52.99-4.32-12.78-6.67-27.12-6.67-42.47,0-38.25,14.64-78.12,46.45-94.16h0c4.1-2.07,8.48-3.74,13.14-4.97,.04,0,.08-.02,.13-.03,.39-.1,.79-.2,1.19-.29,.12-.03,.22-.06,.34-.08,.51-.13,1.02-.24,1.54-.35,.46-.1,.93-.19,1.41-.29,8.12-1.64,19.36-2.9,34.43-2.68,9.38,.14,19.48,.41,29.39,.72l26.11-.43c3.5,.14,6.8,.07,9.97,.19,8.34,.32,15.58,.53,21.93,.67C255.46,36.62,272.61,20.56,273.53,0h0c-9.77,1.09-41.25,.54-59.15,.54Z"/><path class="cls-11" d="M272.64,192.71c-.65,2.52-1.39,5.04-2.18,7.53-9.78,30.32-29.33,54.37-55.11,67.85-.39,.2-.78,.4-1.18,.6-22.48,11.4-47.7,13.67-71.51,6.54-.77-.23-1.54-.47-2.31-.72-.53-.18-1.05-.35-1.58-.54-2.41-.83-3.98-2.55-4.83-4.59-.8-1.89-.95-4.05-.55-6.01,.29-1.44,1.41-2.53,2.77-2.68,23.23-2.58,44.99-13.41,62.35-30.87,2.92-2.94,5.72-6.05,8.38-9.35,18.62-23.12,28.72-52.95,28.47-84-.12-14.66-2.58-29.25-7.18-42.91-1.59-4.7-3.41-9.29-5.49-13.73-4.23-9.05-9.49-17.5-15.56-25.14-1.51-1.91-3.08-3.76-4.7-5.56-1.56-1.75,.06-4.67,2.14-3.85,2.34,.92,4.66,1.92,6.94,3.02,23.74,11.39,43.43,32.18,54.79,58.67,2.71,6.32,4.91,12.81,6.58,19.42,5.49,21.59,5.43,44.41-.25,66.31Z"/><path class="cls-11" d="M213.68,165.41c-.79,1.9-1.66,3.79-2.55,5.65-11,22.67-28.4,39.37-49.05,47.15-.31,.11-.63,.23-.95,.34-17.96,6.49-36.79,5.56-53.39-2.59-.54-.26-1.07-.54-1.61-.81-.37-.2-.73-.39-1.09-.59-1.67-.91-2.61-2.42-2.98-4.11-.35-1.56-.19-3.27,.36-4.76,.4-1.1,1.35-1.82,2.38-1.8,17.4,.49,34.76-5.64,49.72-17.43,2.52-1.98,4.97-4.12,7.34-6.42,16.59-16.08,27.78-38.33,31.51-62.65,1.76-11.48,1.79-23.16,.12-34.34-.57-3.85-1.34-7.63-2.31-11.33-1.97-7.53-4.77-14.72-8.28-21.34-.87-1.66-1.79-3.28-2.76-4.85-.93-1.54,.63-3.65,2.06-2.78,1.6,.97,3.18,2.01,4.72,3.11,16.01,11.47,27.87,29.86,32.89,51.81,1.2,5.24,2,10.55,2.39,15.9,1.32,17.49-1.6,35.33-8.53,51.85Z"/><path class="cls-9" d="M122.72,238.64c-13.87-.76-21.54-5.01-22.06-5.3,6.88,2.95,14.26,4.77,22.06,5.3Z"/></g><text class="cls-10" transform="translate(325.57 100.13)"><tspan class="cls-8"><tspan x="0" y="0">Obse</tspan><tspan class="cls-14" x="197.18" y="0">r</tspan><tspan class="cls-13" x="228.34" y="0">v</tspan><tspan x="267.36" y="0">a</tspan><tspan class="cls-4" x="311.77" y="0">t</tspan><tspan x="340.65" y="0">o</tspan><tspan class="cls-6" x="387.89" y="0">r</tspan><tspan x="417.22" y="0">io</tspan></tspan><tspan class="cls-8"><tspan class="cls-6" x="0" y="62.96">E</tspan><tspan class="cls-2" x="50.29" y="62.96">st</tspan><tspan class="cls-7" x="117.03" y="62.96">a</tspan><tspan x="161.53" y="62.96">dísti</tspan><tspan class="cls-6" x="319.47" y="62.96">c</tspan><tspan x="361.07" y="62.96">o de</tspan></tspan><tspan class="cls-5"><tspan x="0" y="125.93">Bana</tspan><tspan class="cls-12" x="204.95" y="125.93">n</tspan><tspan x="258.06" y="125.93">o</tspan></tspan></text></g><circle class="cls-1" cx="192.24" cy="38.78" r="21.54"/><circle class="cls-3" cx="192.24" cy="38.78" r="12.82"/></g></g></svg>