<svg xmlns="http://www.w3.org/2000/svg" viewBox="0 0 299.3 299.3"><defs><style>.cls-1{fill:#ffbc3b;}.cls-2{fill:#cc9534;}.cls-3{fill:#f9efc6;}.cls-4{fill:#083710;}</style></defs><g id="Capa_2" data-name="Capa 2"><g id="Layer_1" data-name="Layer 1"><path class="cls-1" d="M116.13,62.49c7.09,8.14,17,14.9,28.23,14.48a32.59,32.59,0,0,0,15.44-4.89,92.69,92.69,0,0,1-4.56,14,74.64,74.64,0,0,1-5.6,10.67,60.63,60.63,0,0,1-23.92-10.18A55.21,55.21,0,0,1,110.4,69,73.6,73.6,0,0,1,103,49.59c-.69-3-1.21-5.85-1.59-8.76l1.51-.65c.58,1.16,1.15,2.32,1.73,3.47.3.59,3,6.7,3.69,7.92A67.64,67.64,0,0,0,116.13,62.49Z"/><path class="cls-1" d="M129.37,110.63l-1-.37-.71-.29a57.33,57.33,0,0,1-6.91-3.49c-1.06-.63-2.11-1.31-3.13-2-.45-.31-.89-.63-1.33-1l-.43-.33-.65-.51a48.28,48.28,0,0,1-5-4.69c-.72-.78-1.41-1.59-2.08-2.42,0,0-.25-.31-.34-.43l-.32-.42c-.33-.45-.65-.9-1-1.36a49.23,49.23,0,0,1-3.2-5.36c-.47-.93-.92-1.87-1.34-2.83l-.18-.43c-.06-.16-.13-.32-.19-.47q-.3-.75-.57-1.5A55.7,55.7,0,0,1,99.27,77c-.49-1.93-.88-3.88-1.2-5.84-.07-.44-.13-.87-.19-1.31,0-.09,0-.2,0-.3,0-.27-.07-.55-.1-.82-.11-1-.21-2-.28-3a90.81,90.81,0,0,1-.14-11.31c.08-1.8.22-3.6.39-5.39.08-.86.78-6.15.92-7l.12,0c.3,2.15.65,4.29,1.1,6.4a78.52,78.52,0,0,0,6.94,19.92,59.13,59.13,0,0,0,14.83,18.63,61.6,61.6,0,0,0,25.67,12.21l.65.13c-.47.67-.95,1.33-1.44,2l-.05.06-.06.08-.41.51c-.31.39-.63.78-.95,1.16q-1.62,1.92-3.42,3.69c-1,1-2.05,1.93-3.13,2.82l-.62.5.08-.06-.35.27c-.4.29-.79.58-1.2.86-.62.43-1.26.81-1.91,1.19-1.06-.32-2.11-.64-3.15-1C130.67,111.11,130,110.88,129.37,110.63Z"/><path class="cls-2" d="M152.54,75s-11.3,33.33-21.62,37.2l3.87,1.29s19.35-12.9,25.81-42.58C158,73.52,152.54,75,152.54,75Z"/><path class="cls-3" d="M202,42c-.1,1-.2,2-.31,3l-.18,1.52-.09.64c0,.14,0,.28,0,.41h0c-.3,2.15-.63,4.29-1,6.42A118.08,118.08,0,0,1,197,67.73q-1.09,3.55-2.46,7l-.66,1.61h0l-.12.3c-.15.33-.29.65-.43,1-.5,1.12-1,2.23-1.58,3.33a73.52,73.52,0,0,1-3.68,6.54c-.69,1.08-1.4,2.13-2.14,3.17-.34.48-.7,1-1,1.42l0,0-.26.33-.61.76a55.92,55.92,0,0,1-5.2,5.57c-1,.89-1.93,1.75-2.94,2.57l-.69.55h0l-.33.24c-.54.41-1.09.81-1.65,1.19a53,53,0,0,1-7,4l-1.86.85-.19.08-.24.1-1.13.44c-1.33.51-2.68,1-4,1.38a62.57,62.57,0,0,1-9,1.93h-.12l-.5.06-1.26.14c-.86.09-1.72.16-2.59.22l-1.76.08.38-.33a64.27,64.27,0,0,0,14.44-19.6,93.22,93.22,0,0,0,6.36-17c.79-3,1.26-6.05,2.08-9A2.51,2.51,0,0,0,167,66c0-.06,0-.12.05-.17a35.67,35.67,0,0,1,3-7.15,44.3,44.3,0,0,1,9-11.42c.85-.81,1.73-1.59,2.63-2.35s2-1.67,2.61-2.12,1.73-1.3,2.53-1.87,1.85-1.32,2.79-2c3.32-2.28,6.74-4.42,10-6.8,1-.75,2-1.52,3-2.35,0,.61,0,1.22,0,1.83Q202.48,36.81,202,42Z"/><path class="cls-4" d="M109.43,41.15l-2.72-5.44L105.6,25c-.14-1.38-1.19-3-2.83-2.83l-8.5.95c-1.39.15-3,1.17-2.83,2.83L92.76,38.3c.06.58.13,1.16.19,1.74a124.45,124.45,0,0,0-1.5,12.62,85.94,85.94,0,0,0,1.6,23.9,55.44,55.44,0,0,0,11.09,23.37c6.57,8,15.66,13.5,25.38,16.87,1.22.43,22.81,5,42.59-6.28A61.09,61.09,0,0,0,194.3,87.63a99,99,0,0,0,10.42-28.28,150.58,150.58,0,0,0,3.16-25.12,102.9,102.9,0,0,0,0-12c0-.06,0-.11,0-.17a2.85,2.85,0,0,0-2.46-2.78,2.89,2.89,0,0,0-3.1,2c.33-.81,0,0-.17.28s-.69,1.09-.78,1.24-.41.48-.62.71a29.2,29.2,0,0,1-3.5,3.17h0l0,0c-.16.12-3.17,2.27-3.94,2.8l-5.14,3.43c-8,5.4-15.72,11.38-21.18,19.48a43.31,43.31,0,0,0-5.44,11.43,36,36,0,0,1-11.39,6.37,28.3,28.3,0,0,1-2.85.72c-.33.07-2.06.3-2.38.32a24.44,24.44,0,0,1-2.57,0c-.46,0-.92,0-1.37-.08l-1-.12a29,29,0,0,1-4.94-1.3c-.35-.13-1.63-.67-1.76-.73q-1.29-.6-2.52-1.32c-.7-.4-3.76-2.5-3.89-2.6A47.5,47.5,0,0,1,123,61.85q-1.73-1.7-3.31-3.52c-.52-.61-2.43-3-2.64-3.3a64.13,64.13,0,0,1-4.29-6.63A76,76,0,0,1,109.43,41.15Zm6.39,21.34c7.09,8.14,17,14.9,28.24,14.48a32.56,32.56,0,0,0,15.43-4.89,92.69,92.69,0,0,1-4.56,14,74.64,74.64,0,0,1-5.6,10.67,60.58,60.58,0,0,1-23.91-10.18A55.37,55.37,0,0,1,110.09,69a74,74,0,0,1-7.39-19.44c-.69-3-1.2-5.85-1.58-8.76l1.5-.65,1.74,3.47c.29.59,3,6.7,3.69,7.92A67,67,0,0,0,115.82,62.49Zm13.24,48.14-.95-.37c-.12-.05-.64-.27-.72-.29a58,58,0,0,1-6.9-3.49c-1.07-.63-2.12-1.31-3.14-2-.44-.31-.89-.63-1.32-1-.09-.07-.36-.28-.44-.33l-.64-.51a47.29,47.29,0,0,1-5-4.69c-.72-.78-1.42-1.59-2.09-2.42l-.33-.43c-.1-.12-.28-.36-.32-.42-.33-.45-.66-.9-1-1.36A49.23,49.23,0,0,1,103,88c-.47-.93-.92-1.87-1.34-2.83-.07-.15-.19-.44-.18-.43-.07-.16-.13-.32-.2-.47l-.57-1.5A58.19,58.19,0,0,1,99,77q-.73-2.9-1.2-5.84c-.07-.44-.13-.87-.19-1.31,0-.09,0-.2,0-.3l-.09-.82c-.12-1-.21-2-.29-3A92.77,92.77,0,0,1,97,54.46c.08-1.8.21-3.6.38-5.39.09-.86.79-6.15.93-7l.11,0c.3,2.15.66,4.29,1.1,6.4a78.93,78.93,0,0,0,6.95,19.92,59,59,0,0,0,14.83,18.63A61.48,61.48,0,0,0,147,99.15l.64.13c-.47.67-.94,1.33-1.43,2l0,.06-.06.08-.41.51c-.31.39-.63.78-1,1.16-1.09,1.28-2.22,2.51-3.42,3.69-1,1-2.05,1.93-3.14,2.82l-.62.5.09-.06-.35.27-1.2.86c-.62.43-1.27.81-1.91,1.19-1.06-.32-2.11-.64-3.16-1C130.37,111.11,129.71,110.88,129.06,110.63ZM201.69,42c-.1,1-.2,2-.32,3l-.18,1.52c0,.21-.05.43-.08.64s0,.28-.05.41h0c-.31,2.15-.64,4.29-1,6.42a120.14,120.14,0,0,1-3.35,13.74c-.74,2.37-1.55,4.72-2.47,7-.21.54-.43,1.07-.65,1.61h0l-.13.3c-.14.33-.28.65-.43,1-.5,1.12-1,2.23-1.57,3.33a73.62,73.62,0,0,1-3.69,6.54c-.68,1.08-1.39,2.13-2.13,3.17l-1.05,1.42,0,0-.26.33-.62.76a57,57,0,0,1-5.19,5.57c-.95.89-1.93,1.75-2.95,2.57-.22.19-.45.37-.68.55h0l-.32.24c-.55.41-1.1.81-1.66,1.19a53.51,53.51,0,0,1-7,4l-1.87.85-.18.08-.24.1-1.13.44q-2,.77-4.05,1.38a62,62,0,0,1-9,1.93h-.11l-.5.06-1.27.14c-.86.09-1.72.16-2.58.22l-1.76.08.37-.33a64.14,64.14,0,0,0,14.45-19.6,93.18,93.18,0,0,0,6.35-17c.8-3,1.27-6.05,2.09-9a2.51,2.51,0,0,0,.21-.77c0-.06,0-.12,0-.17a35.71,35.71,0,0,1,3-7.15,44.47,44.47,0,0,1,9-11.42c.86-.81,1.74-1.59,2.63-2.35s2-1.67,2.61-2.12,1.73-1.3,2.53-1.87,1.86-1.32,2.8-2c3.32-2.28,6.74-4.42,10-6.8,1-.75,2-1.52,3-2.35,0,.61,0,1.22,0,1.83Q202.17,36.81,201.69,42Z"/><path class="cls-4" d="M139.72,110.11l0,0C139.13,110.54,139.56,110.25,139.72,110.11Z"/><path class="cls-4" d="M153.59,38.29c8.93-1.75,15.3-10,15.39-18.94A19.64,19.64,0,0,0,156.16,1.14a19.36,19.36,0,0,0-23.11,28.2A19.62,19.62,0,0,0,153.59,38.29Z"/><path class="cls-1" d="M183.17,236.81c-7.09-8.14-17-14.9-28.23-14.48a32.7,32.7,0,0,0-15.44,4.89,93.85,93.85,0,0,1,4.57-14,74.57,74.57,0,0,1,5.59-10.67,60.77,60.77,0,0,1,23.92,10.18,55.21,55.21,0,0,1,15.32,17.53,73.26,73.26,0,0,1,7.39,19.44,86.92,86.92,0,0,1,1.59,8.76l-1.5.65-1.74-3.47c-.3-.59-3-6.7-3.69-7.92A67.46,67.46,0,0,0,183.17,236.81Z"/><path class="cls-1" d="M169.93,188.67l1,.38.71.29a57.26,57.26,0,0,1,6.91,3.48c1.07.64,2.11,1.31,3.14,2,.44.3.88.62,1.32.94l.43.33.65.51a48.28,48.28,0,0,1,5,4.69c.72.78,1.42,1.59,2.08,2.42l.34.43.32.42c.33.45.66.9,1,1.36a49.23,49.23,0,0,1,3.2,5.36c.47.93.92,1.87,1.34,2.83.07.15.19.44.18.43.07.16.13.32.19.47.2.5.39,1,.58,1.5A58.19,58.19,0,0,1,200,222.3q.74,2.89,1.2,5.85c.07.43.13.87.19,1.3,0,.09,0,.21,0,.3,0,.28.07.55.1.82.11,1,.21,2,.28,3a90.62,90.62,0,0,1,.14,11.3c-.08,1.8-.21,3.6-.39,5.39-.08.86-.78,6.15-.92,7l-.11.05c-.3-2.14-.66-4.28-1.1-6.4a78.93,78.93,0,0,0-7-19.92,59.09,59.09,0,0,0-14.83-18.62A61.5,61.5,0,0,0,152,200.15l-.65-.13q.7-1,1.44-2l0-.07.06-.07.41-.52c.31-.39.63-.78,1-1.16q1.62-1.92,3.42-3.68c1-1,2.05-1.94,3.14-2.83l.62-.5-.09.06.35-.27,1.2-.86c.62-.43,1.27-.81,1.91-1.19,1.06.32,2.11.65,3.15,1Z"/><path class="cls-2" d="M146.76,224.27s11.3-33.33,21.62-37.2l-3.87-1.29s-19.35,12.9-25.8,42.58C141.29,225.78,146.76,224.27,146.76,224.27Z"/><path class="cls-3" d="M97.31,257.32c.1-1,.2-2,.32-3,.05-.5.11-1,.18-1.51,0-.22,0-.44.08-.65s0-.27,0-.41h0q.45-3.22,1-6.42a118.08,118.08,0,0,1,3.35-13.74c.73-2.37,1.55-4.72,2.46-7l.66-1.61h0c0-.1.08-.2.13-.3l.42-1c.5-1.13,1-2.24,1.58-3.34a71.19,71.19,0,0,1,3.69-6.54c.68-1.08,1.39-2.13,2.13-3.17.34-.47.7-.94,1-1.42l0,0,.26-.33.62-.76a56.94,56.94,0,0,1,5.19-5.57c1-.89,1.93-1.75,3-2.57l.68-.55h0l.32-.24c.54-.41,1.1-.8,1.66-1.19a51.7,51.7,0,0,1,7-4c.62-.3,1.24-.58,1.86-.86l.19-.08.24-.1,1.13-.44c1.33-.51,2.68-1,4-1.37a61.27,61.27,0,0,1,9-1.94h.12l.5-.06,1.27-.14q1.29-.13,2.58-.21l1.76-.09-.38.34A64.11,64.11,0,0,0,141,206.52a93,93,0,0,0-6.35,17c-.8,3-1.27,6-2.09,9a2.5,2.5,0,0,0-.21.78.94.94,0,0,0,0,.16,36,36,0,0,1-3,7.15,44.13,44.13,0,0,1-9,11.42c-.85.81-1.73,1.59-2.63,2.35s-2,1.67-2.61,2.12-1.72,1.3-2.53,1.87-1.85,1.32-2.79,2c-3.32,2.28-6.74,4.42-10,6.8-1,.75-2,1.53-3,2.35l0-1.83Q96.83,262.49,97.31,257.32Z"/><path class="cls-4" d="M189.88,258.16l2.71,5.43,1.11,10.7c.15,1.39,1.19,3,2.83,2.83l8.5-.94c1.39-.16,3-1.18,2.83-2.84L206.54,261c-.06-.58-.12-1.16-.19-1.74a124.45,124.45,0,0,0,1.5-12.62,86,86,0,0,0-1.59-23.9,55.53,55.53,0,0,0-11.09-23.36c-6.58-8-15.67-13.51-25.39-16.88-1.22-.43-22.8-5-42.59,6.28A61.07,61.07,0,0,0,105,211.67,98.74,98.74,0,0,0,94.58,240a150.57,150.57,0,0,0-3.16,25.13,102.73,102.73,0,0,0,0,12,1,1,0,0,1,0,.17,2.86,2.86,0,0,0,2.46,2.78A2.9,2.9,0,0,0,97,278c-.34.81,0,0,.16-.28s.69-1.09.79-1.23.4-.49.61-.72a30.07,30.07,0,0,1,3.5-3.17h0l0,0c.16-.11,3.16-2.27,3.94-2.79,1.7-1.16,3.42-2.29,5.13-3.44,8-5.4,15.73-11.37,21.18-19.48a43.31,43.31,0,0,0,5.44-11.43,36,36,0,0,1,11.39-6.37,28.3,28.3,0,0,1,2.85-.72c.34-.07,2.06-.29,2.38-.32a24.49,24.49,0,0,1,2.57,0c.46,0,.92,0,1.37.08l1,.13a27.94,27.94,0,0,1,4.93,1.29c.35.13,1.64.67,1.76.73.86.4,1.7.85,2.53,1.32s3.75,2.5,3.88,2.6a49.6,49.6,0,0,1,3.79,3.31q1.72,1.7,3.31,3.52c.53.61,2.43,3,2.64,3.3a64.13,64.13,0,0,1,4.29,6.63A77.72,77.72,0,0,1,189.88,258.16Zm-6.4-21.35c-7.09-8.14-17-14.9-28.23-14.48a32.67,32.67,0,0,0-15.44,4.89,92.69,92.69,0,0,1,4.56-14,74.64,74.64,0,0,1,5.6-10.67,60.73,60.73,0,0,1,23.91,10.18,55.24,55.24,0,0,1,15.33,17.53,73.6,73.6,0,0,1,7.39,19.44c.69,3,1.2,5.85,1.58,8.76l-1.5.65-1.74-3.47c-.29-.59-3-6.7-3.69-7.92A67.4,67.4,0,0,0,183.48,236.81Zm-13.24-48.14.95.38.72.29a57.88,57.88,0,0,1,6.9,3.48c1.07.64,2.12,1.31,3.14,2,.45.3.89.62,1.32.94l.44.33.64.51a47.29,47.29,0,0,1,5,4.69c.72.78,1.42,1.59,2.09,2.42,0,.05.24.31.34.43l.31.42c.34.45.66.9,1,1.36a49.15,49.15,0,0,1,3.19,5.36c.48.93.92,1.87,1.34,2.83l.19.43c.06.16.13.32.19.47q.3.75.57,1.5c.69,1.89,1.28,3.82,1.78,5.77s.88,3.88,1.19,5.85c.07.43.13.87.2,1.3,0,.09,0,.21,0,.3,0,.28.06.55.1.82.11,1,.2,2,.28,3a92.59,92.59,0,0,1,.14,11.3c-.09,1.8-.22,3.6-.39,5.39-.09.86-.78,6.15-.93,7l-.11.05c-.3-2.14-.65-4.28-1.1-6.4A78.93,78.93,0,0,0,192.81,231,58.81,58.81,0,0,0,178,212.37a61.5,61.5,0,0,0-25.67-12.22l-.64-.13c.47-.67,1-1.33,1.43-2l.05-.07.06-.07.41-.52c.32-.39.63-.78,1-1.16q1.62-1.92,3.41-3.68c1-1,2-1.94,3.14-2.83l.62-.5-.08.06L162,189c.4-.29.8-.58,1.21-.86.62-.43,1.26-.81,1.91-1.19,1.05.32,2.11.65,3.15,1ZM97.62,257.32c.09-1,.2-2,.31-3l.18-1.51c0-.22,0-.44.08-.65s0-.27,0-.41h0c.3-2.15.63-4.29,1-6.42a122.27,122.27,0,0,1,3.35-13.74c.74-2.37,1.56-4.72,2.47-7,.21-.54.43-1.08.65-1.61h0l.13-.3c.14-.32.28-.65.43-1,.5-1.13,1-2.24,1.57-3.34a73.62,73.62,0,0,1,3.69-6.54c.68-1.08,1.39-2.13,2.13-3.17l1-1.42,0,0,.26-.33.62-.76a58.19,58.19,0,0,1,5.19-5.57c1-.89,1.94-1.75,3-2.57l.69-.55h0l.32-.24c.55-.41,1.1-.8,1.66-1.19a51.81,51.81,0,0,1,7-4c.61-.3,1.23-.58,1.86-.86l.18-.08.25-.1,1.12-.44c1.33-.51,2.68-1,4-1.37a61,61,0,0,1,9-1.94H150l.5-.06,1.27-.14q1.29-.13,2.58-.21c.59,0,1.18-.06,1.77-.09-.13.11-.26.22-.38.34a64.14,64.14,0,0,0-14.45,19.59,93,93,0,0,0-6.35,17c-.8,3-1.26,6-2.08,9a2.25,2.25,0,0,0-.21.78s0,.11-.05.16a35.46,35.46,0,0,1-3,7.15,44.09,44.09,0,0,1-9,11.42c-.86.81-1.74,1.59-2.63,2.35s-2,1.67-2.61,2.12-1.73,1.3-2.53,1.87-1.86,1.32-2.8,2c-3.32,2.28-6.74,4.42-10,6.8-1,.75-2,1.53-3,2.35,0-.61,0-1.22,0-1.83Q97.14,262.49,97.62,257.32Z"/><path class="cls-4" d="M159.58,189.19l0,0C160.17,188.76,159.75,189.06,159.58,189.19Z"/><path class="cls-4" d="M145.71,261c-8.92,1.76-15.3,10-15.39,18.94a19.64,19.64,0,0,0,12.82,18.21A19.35,19.35,0,0,0,166.25,270,19.62,19.62,0,0,0,145.71,261Z"/><path class="cls-1" d="M236.81,116.13c-8.14,7.09-14.9,17-14.48,28.23a32.7,32.7,0,0,0,4.89,15.44,92.69,92.69,0,0,1-14-4.56,74.64,74.64,0,0,1-10.67-5.6,60.77,60.77,0,0,1,10.18-23.92,55.21,55.21,0,0,1,17.53-15.32A73.6,73.6,0,0,1,249.71,103c3-.69,5.85-1.21,8.76-1.59.22.5.44,1,.65,1.51l-3.47,1.73c-.59.3-6.7,3-7.92,3.69A68.08,68.08,0,0,0,236.81,116.13Z"/><path class="cls-1" d="M188.67,129.37c.12-.32.25-.64.38-1,0-.12.26-.64.29-.71a57.26,57.26,0,0,1,3.48-6.91c.64-1.06,1.31-2.11,2-3.13.3-.45.62-.89.94-1.33.07-.08.28-.36.33-.43l.51-.65a48.28,48.28,0,0,1,4.69-5c.78-.72,1.59-1.41,2.42-2.08l.43-.34.42-.32,1.36-1a49.23,49.23,0,0,1,5.36-3.2c.93-.47,1.87-.92,2.83-1.34l.43-.18.47-.19q.75-.3,1.5-.57a55.7,55.7,0,0,1,5.77-1.78c1.93-.49,3.88-.88,5.85-1.2l1.3-.19.3,0,.82-.1c1-.11,2-.21,3-.28a90.62,90.62,0,0,1,11.3-.14c1.8.08,3.6.22,5.39.39.86.08,6.15.78,7,.92l.05.12c-2.14.3-4.28.65-6.4,1.1A78.52,78.52,0,0,0,231,106.79a59.09,59.09,0,0,0-18.62,14.83,61.61,61.61,0,0,0-12.22,25.67c0,.22-.08.43-.13.65q-1-.7-2-1.44l-.07-.05-.07-.06c-.18-.13-.35-.27-.52-.41l-1.16-.95q-1.92-1.62-3.68-3.42c-1-1-1.94-2.05-2.83-3.13l-.5-.62.06.08-.27-.35c-.29-.4-.58-.79-.86-1.2-.43-.62-.81-1.26-1.19-1.91.32-1.06.65-2.11,1-3.15C188.19,130.67,188.43,130,188.67,129.37Z"/><path class="cls-2" d="M224.27,152.54s-33.33-11.3-37.2-21.62l-1.29,3.87s12.9,19.35,42.58,25.81C225.78,158,224.27,152.54,224.27,152.54Z"/><path class="cls-3" d="M257.32,202l-3-.31-1.51-.18-.65-.09-.41,0h0c-2.15-.3-4.29-.63-6.42-1A118.08,118.08,0,0,1,231.57,197c-2.37-.73-4.72-1.55-7-2.46l-1.61-.66h0l-.3-.12-1-.43c-1.13-.5-2.24-1-3.34-1.58a73.52,73.52,0,0,1-6.54-3.68c-1.08-.69-2.13-1.4-3.17-2.14l-1.42-1,0,0-.33-.26-.76-.61a57,57,0,0,1-5.57-5.2c-.89-1-1.75-1.93-2.57-2.94l-.55-.69h0l-.24-.33c-.41-.54-.8-1.09-1.19-1.65a51.81,51.81,0,0,1-4-7c-.3-.62-.58-1.24-.86-1.86a1.54,1.54,0,0,0-.08-.19c0-.07-.07-.18-.1-.24-.15-.38-.3-.75-.44-1.13-.51-1.33-1-2.68-1.37-4a61.27,61.27,0,0,1-1.94-9v-.12l-.06-.5c-.05-.42-.1-.84-.14-1.26-.09-.86-.16-1.72-.21-2.59,0-.58-.06-1.17-.09-1.76l.34.38a64.11,64.11,0,0,0,19.59,14.44,93,93,0,0,0,17,6.36c3,.79,6,1.26,9,2.08a2.5,2.5,0,0,0,.78.21l.16.05a35.43,35.43,0,0,1,7.15,3,44.13,44.13,0,0,1,11.42,9c.81.85,1.59,1.73,2.35,2.63s1.67,2,2.12,2.61,1.3,1.73,1.87,2.53,1.32,1.85,2,2.79c2.28,3.32,4.42,6.74,6.8,10,.75,1,1.53,2,2.35,3l-1.83,0Q262.49,202.48,257.32,202Z"/><path class="cls-4" d="M258.16,109.43l5.43-2.72,10.7-1.11c1.39-.14,3-1.19,2.83-2.83-.31-2.83-.63-5.66-.94-8.5-.16-1.39-1.18-3-2.84-2.83L261,92.76l-1.74.19a124.45,124.45,0,0,0-12.62-1.5,86,86,0,0,0-23.9,1.6,55.41,55.41,0,0,0-23.36,11.09c-8,6.57-13.51,15.66-16.88,25.38-.43,1.22-5,22.81,6.28,42.59a61.17,61.17,0,0,0,22.89,22.19A99,99,0,0,0,240,204.72a150.57,150.57,0,0,0,25.13,3.16,102.73,102.73,0,0,0,12,0h.17a2.85,2.85,0,0,0,2.78-2.46,2.88,2.88,0,0,0-2-3.1c.81.33,0,0-.28-.17s-1.09-.69-1.23-.78-.49-.41-.72-.62a30.07,30.07,0,0,1-3.17-3.5h0l0,0c-.11-.16-2.27-3.17-2.79-3.94-1.16-1.71-2.29-3.43-3.44-5.14-5.4-8-11.37-15.72-19.48-21.18a43.31,43.31,0,0,0-11.43-5.44,36,36,0,0,1-6.37-11.39,28.3,28.3,0,0,1-.72-2.85c-.07-.33-.29-2.06-.32-2.38a24.44,24.44,0,0,1,0-2.57c0-.46,0-.92.08-1.37,0-.23.11-.95.13-1a28,28,0,0,1,1.29-4.94c.13-.35.67-1.63.73-1.76.4-.86.85-1.7,1.32-2.52s2.5-3.76,2.6-3.89a49.6,49.6,0,0,1,3.31-3.79q1.7-1.73,3.52-3.31c.61-.52,3-2.43,3.3-2.64a64.13,64.13,0,0,1,6.63-4.29A75,75,0,0,1,258.16,109.43Zm-21.35,6.39c-8.14,7.09-14.9,17-14.48,28.24a32.67,32.67,0,0,0,4.89,15.43,92.69,92.69,0,0,1-14-4.56,74.64,74.64,0,0,1-10.67-5.6,60.73,60.73,0,0,1,10.18-23.91,55.37,55.37,0,0,1,17.53-15.33,74,74,0,0,1,19.44-7.39c3-.69,5.85-1.2,8.76-1.58.22.5.44,1,.65,1.5l-3.47,1.74c-.59.29-6.7,3-7.92,3.69A67.4,67.4,0,0,0,236.81,115.82Zm-48.14,13.24c.12-.32.25-.63.38-.95,0-.12.26-.64.29-.72a57.88,57.88,0,0,1,3.48-6.9c.64-1.07,1.31-2.12,2-3.14.3-.44.62-.89.94-1.32.07-.09.28-.36.33-.44l.51-.64a47.29,47.29,0,0,1,4.69-5c.78-.72,1.59-1.42,2.42-2.09l.43-.33.42-.32c.45-.33.9-.66,1.36-1a49.23,49.23,0,0,1,5.36-3.2c.93-.47,1.87-.92,2.83-1.34l.43-.18.47-.2,1.5-.57A58.19,58.19,0,0,1,222.3,99q2.89-.73,5.85-1.2l1.3-.19.3,0,.82-.09c1-.12,2-.21,3-.29a92.59,92.59,0,0,1,11.3-.13c1.8.08,3.6.21,5.39.38.86.09,6.15.79,7,.93l.05.11c-2.14.3-4.28.66-6.4,1.1A78.93,78.93,0,0,0,231,106.49a59,59,0,0,0-18.62,14.83A61.5,61.5,0,0,0,200.15,147c0,.21-.08.43-.13.64-.67-.47-1.33-.94-2-1.43l-.07,0-.07-.06-.52-.41-1.16-1c-1.28-1.09-2.51-2.22-3.68-3.42-1-1-1.94-2.05-2.83-3.14-.17-.2-.34-.41-.5-.62l.06.09-.27-.35-.86-1.2c-.43-.62-.81-1.27-1.19-1.91.32-1.06.65-2.11,1-3.16C188.19,130.37,188.43,129.71,188.67,129.06Zm68.65,72.63c-1-.1-2-.2-3-.32l-1.51-.18-.65-.08-.41-.05h0c-2.15-.31-4.29-.64-6.42-1a120.14,120.14,0,0,1-13.74-3.35c-2.37-.74-4.72-1.55-7-2.47l-1.61-.65h0l-.3-.13-1-.43c-1.13-.5-2.24-1-3.34-1.57a73.62,73.62,0,0,1-6.54-3.69c-1.08-.68-2.13-1.39-3.17-2.13l-1.42-1.05,0,0-.33-.26-.76-.62a58.19,58.19,0,0,1-5.57-5.19c-.89-.95-1.75-1.93-2.57-2.95l-.55-.68v0l-.24-.32c-.41-.55-.8-1.1-1.19-1.66a52.33,52.33,0,0,1-4-7c-.3-.62-.58-1.24-.86-1.87a1.42,1.42,0,0,0-.08-.18,1.94,1.94,0,0,0-.1-.24c-.15-.38-.3-.75-.44-1.13-.51-1.33-1-2.68-1.37-4.05a60.71,60.71,0,0,1-1.94-9v-.11l-.06-.5c-.05-.42-.1-.85-.14-1.27q-.13-1.29-.21-2.58c0-.59-.06-1.18-.09-1.76.11.12.22.25.34.37a64,64,0,0,0,19.59,14.45,93,93,0,0,0,17,6.35c3,.8,6,1.27,9,2.09a2.5,2.5,0,0,0,.78.21l.16,0a35.46,35.46,0,0,1,7.15,3,44.3,44.3,0,0,1,11.42,9c.81.86,1.59,1.74,2.35,2.63s1.67,2,2.12,2.61,1.3,1.73,1.87,2.53,1.32,1.86,2,2.8c2.28,3.32,4.42,6.74,6.8,10,.75,1,1.53,2,2.35,3l-1.83,0Q262.49,202.17,257.32,201.69Z"/><path class="cls-4" d="M189.19,139.72l0,0C188.76,139.13,189.06,139.56,189.19,139.72Z"/><path class="cls-4" d="M261,153.59c1.76,8.93,10,15.3,18.94,15.39a19.64,19.64,0,0,0,18.21-12.82A19.35,19.35,0,0,0,270,133.05,19.62,19.62,0,0,0,261,153.59Z"/><path class="cls-1" d="M62.49,183.17c8.14-7.09,14.9-17,14.48-28.23a32.59,32.59,0,0,0-4.89-15.44,93.85,93.85,0,0,1,14,4.57,74.57,74.57,0,0,1,10.67,5.59,60.63,60.63,0,0,1-10.18,23.92A55.21,55.21,0,0,1,69,188.9a73.26,73.26,0,0,1-19.44,7.39,86.42,86.42,0,0,1-8.76,1.59l-.65-1.5,3.47-1.74c.59-.3,6.7-3,7.92-3.69A67,67,0,0,0,62.49,183.17Z"/><path class="cls-1" d="M110.63,169.93l-.37,1c-.05.12-.27.64-.29.71a57.33,57.33,0,0,1-3.49,6.91c-.63,1.07-1.31,2.11-2,3.14l-1,1.32c-.07.08-.28.36-.33.43l-.51.65a48.28,48.28,0,0,1-4.69,5c-.78.72-1.59,1.42-2.42,2.08l-.43.34-.42.32c-.45.33-.9.66-1.36,1A49.23,49.23,0,0,1,88,196c-.93.47-1.87.92-2.83,1.34l-.43.18-.47.19-1.5.58A58.19,58.19,0,0,1,77,200q-2.9.74-5.84,1.2l-1.31.19-.3,0-.82.1c-1,.11-2,.21-3,.28a90.81,90.81,0,0,1-11.31.14c-1.8-.08-3.6-.21-5.39-.39-.86-.08-6.15-.78-7-.92l0-.11c2.15-.3,4.29-.66,6.4-1.1a78.93,78.93,0,0,0,19.92-7,59.13,59.13,0,0,0,18.63-14.83A61.48,61.48,0,0,0,99.15,152c0-.22.09-.43.13-.65.67.47,1.33.95,2,1.44l.06,0,.08.06.51.41,1.16,1q1.92,1.62,3.69,3.42c1,1,1.93,2.05,2.82,3.14.17.2.34.41.5.62l-.06-.09.27.35.86,1.2c.43.62.81,1.27,1.19,1.91-.32,1.06-.64,2.11-1,3.15C111.11,168.63,110.88,169.28,110.63,169.93Z"/><path class="cls-2" d="M75,146.76s33.33,11.3,37.2,21.62l1.29-3.87s-12.9-19.35-42.58-25.8C73.52,141.29,75,146.76,75,146.76Z"/><path class="cls-3" d="M42,97.31c1,.1,2,.2,3,.32l1.52.18.64.08.41,0h0q3.23.45,6.42,1a118.08,118.08,0,0,1,13.74,3.35q3.55,1.09,7,2.46l1.61.66h0l.3.13,1,.42c1.12.5,2.23,1,3.33,1.58a71.19,71.19,0,0,1,6.54,3.69c1.08.68,2.13,1.39,3.17,2.13.48.34,1,.7,1.42,1l0,0,.33.26.76.62a55.82,55.82,0,0,1,5.57,5.19c.89,1,1.75,1.93,2.57,3,.19.22.37.45.55.68v0l.24.32c.41.54.81,1.1,1.19,1.66a52.86,52.86,0,0,1,4,7c.29.62.57,1.24.85,1.86,0,.07,0,.13.08.19s.08.18.1.24c.15.38.3.75.44,1.13.51,1.33,1,2.68,1.38,4a62.57,62.57,0,0,1,1.93,9v.12l.06.5c0,.42.1.84.14,1.27.09.86.16,1.72.22,2.58,0,.59.06,1.17.08,1.76l-.33-.38A64.27,64.27,0,0,0,92.78,141a93.18,93.18,0,0,0-17-6.35c-3-.8-6.05-1.27-9-2.09a2.51,2.51,0,0,0-.77-.21l-.17,0a36.3,36.3,0,0,1-7.15-3,44.3,44.3,0,0,1-11.42-9c-.81-.85-1.59-1.73-2.35-2.63s-1.67-2-2.12-2.61-1.3-1.72-1.87-2.53-1.32-1.85-2-2.79c-2.28-3.32-4.42-6.74-6.8-10-.75-1-1.52-2-2.35-3l1.83,0Q36.81,96.83,42,97.31Z"/><path class="cls-4" d="M41.15,189.88l-5.44,2.71L25,193.7c-1.38.15-3,1.19-2.83,2.83.32,2.84.63,5.67.95,8.5.15,1.39,1.17,3,2.83,2.83l12.34-1.32,1.74-.19a124.45,124.45,0,0,0,12.62,1.5,85.94,85.94,0,0,0,23.9-1.59,55.56,55.56,0,0,0,23.37-11.09c8-6.58,13.5-15.67,16.87-25.39.43-1.22,5-22.8-6.28-42.59A61,61,0,0,0,87.63,105,98.74,98.74,0,0,0,59.35,94.58a150.58,150.58,0,0,0-25.12-3.16,102.9,102.9,0,0,0-12,0H22a2.86,2.86,0,0,0-2.78,2.46,2.91,2.91,0,0,0,2,3.11c-.81-.34,0,0,.28.16s1.09.69,1.24.79.48.4.71.61a29.2,29.2,0,0,1,3.17,3.5h0l0,0c.12.16,2.27,3.16,2.8,3.94,1.15,1.7,2.28,3.42,3.43,5.13,5.4,8,11.38,15.73,19.48,21.18a43.31,43.31,0,0,0,11.43,5.44,36,36,0,0,1,6.37,11.39,28.3,28.3,0,0,1,.72,2.85c.07.34.3,2.06.32,2.38a24.49,24.49,0,0,1,0,2.57c0,.46,0,.92-.08,1.37,0,.23-.11.95-.12,1a28.86,28.86,0,0,1-1.3,4.93c-.13.35-.67,1.64-.73,1.76-.4.86-.84,1.7-1.32,2.53s-2.5,3.75-2.6,3.88a47.5,47.5,0,0,1-3.31,3.79q-1.7,1.72-3.52,3.31c-.61.53-3,2.43-3.3,2.64a64.13,64.13,0,0,1-6.63,4.29A78.81,78.81,0,0,1,41.15,189.88Zm21.34-6.4c8.14-7.09,14.9-17,14.48-28.23a32.56,32.56,0,0,0-4.89-15.44,92.69,92.69,0,0,1,14,4.56A74.64,74.64,0,0,1,96.74,150a60.58,60.58,0,0,1-10.18,23.91A55.24,55.24,0,0,1,69,189.21a73.6,73.6,0,0,1-19.44,7.39c-3,.69-5.85,1.2-8.76,1.58l-.65-1.5,3.47-1.74c.59-.29,6.7-3,7.92-3.69A67,67,0,0,0,62.49,183.48Zm48.14-13.24c-.12.32-.25.64-.37.95-.05.12-.27.64-.29.72a58,58,0,0,1-3.49,6.9c-.63,1.07-1.31,2.12-2,3.14-.31.45-.63.89-1,1.32l-.33.44-.51.64a47.29,47.29,0,0,1-4.69,5c-.78.72-1.59,1.42-2.42,2.09l-.43.34-.42.31c-.45.34-.9.66-1.36,1A49.15,49.15,0,0,1,88,196.27c-.93.48-1.87.92-2.83,1.34l-.43.19-.47.19-1.5.57c-1.89.69-3.82,1.28-5.77,1.78s-3.88.88-5.84,1.19l-1.31.2-.3,0-.82.1c-1,.11-2,.2-3,.28a92.78,92.78,0,0,1-11.31.14c-1.8-.09-3.6-.22-5.39-.39-.86-.09-6.15-.78-7-.93l0-.11c2.15-.3,4.29-.65,6.4-1.1a78.93,78.93,0,0,0,19.92-6.95A58.85,58.85,0,0,0,86.94,178a61.48,61.48,0,0,0,12.21-25.67c0-.21.09-.43.13-.64.67.47,1.33,1,2,1.43l.06.05.08.06.51.41c.39.32.78.63,1.16,1q1.92,1.62,3.69,3.41c1,1,1.93,2,2.82,3.14.17.2.34.41.5.62l-.06-.08.27.34c.29.4.58.8.86,1.21.43.62.81,1.26,1.19,1.91-.32,1.05-.64,2.11-1,3.15C111.11,168.94,110.88,169.59,110.63,170.24ZM42,97.62c1,.09,2,.2,3,.31l1.52.18.64.08.41,0h0c2.15.3,4.29.63,6.42,1a122.27,122.27,0,0,1,13.74,3.35q3.55,1.11,7,2.47l1.61.65h0l.3.13,1,.43c1.12.5,2.23,1,3.33,1.57a73.62,73.62,0,0,1,6.54,3.69c1.08.68,2.13,1.39,3.17,2.13l1.42,1,0,0,.33.26.76.62a57,57,0,0,1,5.57,5.19c.89,1,1.75,1.94,2.57,3l.55.69h0l.24.32c.41.55.81,1.1,1.19,1.66a53,53,0,0,1,4,7c.29.61.57,1.23.85,1.86l.08.18c0,.08.08.19.1.25.15.37.3.75.44,1.12q.77,2,1.38,4a62.28,62.28,0,0,1,1.93,9V150l.06.5c0,.43.1.85.14,1.27.09.86.16,1.72.22,2.58,0,.59.06,1.18.08,1.77l-.33-.38a64.3,64.3,0,0,0-19.6-14.45,93.18,93.18,0,0,0-17-6.35c-3-.8-6.05-1.26-9-2.08a2.26,2.26,0,0,0-.77-.21l-.17-.05a35.71,35.71,0,0,1-7.15-3,44.26,44.26,0,0,1-11.42-9c-.81-.86-1.59-1.74-2.35-2.63s-1.67-2-2.12-2.61-1.3-1.73-1.87-2.53-1.32-1.86-2-2.8c-2.28-3.32-4.42-6.74-6.8-10-.75-1-1.52-2-2.35-3l1.83,0Q36.81,97.14,42,97.62Z"/><path class="cls-4" d="M110.11,159.58l0,0C110.54,160.17,110.25,159.75,110.11,159.58Z"/><path class="cls-4" d="M38.29,145.71c-1.75-8.92-10-15.3-18.94-15.39A19.64,19.64,0,0,0,1.14,143.14a19.36,19.36,0,0,0,28.2,23.11A19.61,19.61,0,0,0,38.29,145.71Z"/></g></g></svg>