<?xml version="1.0" encoding="UTF-8"?><svg id="Capa_2" xmlns="http://www.w3.org/2000/svg" viewBox="0 0 1080 299.3"><defs><style>.cls-1{fill:#083710;}</style></defs><g id="Layer_1"><g><g><g><g><path class="cls-1" d="M347.72,246.11h2.56l8.65,19.48h-2.87l-2.81-6.32h-10.8l-2.81,6.32h-.58l8.65-19.48Zm-5.04,12.63h10.32l-5.15-11.63-5.18,11.63Z"/><path class="cls-1" d="M369.09,260.69c.56,.84,1.17,1.57,1.84,2.2,.56,.56,1.21,1.07,1.96,1.53,.75,.46,1.56,.7,2.43,.7h.61c.74,0,1.42-.09,2.03-.28,.61-.19,1.14-.45,1.57-.79,.44-.34,.77-.77,1.02-1.27,.24-.5,.36-1.06,.36-1.67,0-.5-.14-.96-.43-1.38-.29-.42-.69-.81-1.2-1.17-.51-.36-1.11-.69-1.81-.99-.7-.3-1.45-.58-2.27-.86-.8-.26-1.61-.54-2.43-.85-.83-.31-1.57-.68-2.23-1.11-.66-.44-1.2-.96-1.61-1.56-.42-.6-.63-1.33-.63-2.18s.22-1.66,.67-2.3c.44-.64,1.02-1.17,1.71-1.6,.7-.43,1.46-.74,2.28-.95,.83-.2,1.61-.31,2.35-.31h.61c1.17,0,2.23,.13,3.2,.4,.96,.27,1.89,.7,2.78,1.29l1.09,.72-1.45,2.2c-.44-.74-.95-1.41-1.5-2-.48-.5-1.07-.96-1.77-1.38s-1.48-.63-2.35-.63h-.61c-.87,0-1.62,.1-2.24,.31-.62,.2-1.13,.48-1.52,.82s-.68,.75-.86,1.21-.28,.96-.28,1.47c0,.58,.15,1.05,.44,1.43,.3,.38,.7,.71,1.21,1,.51,.29,1.1,.54,1.78,.76,.68,.22,1.41,.46,2.18,.72,.82,.26,1.63,.53,2.44,.82,.81,.29,1.53,.64,2.18,1.07,1.73,1.08,2.59,2.48,2.59,4.2,0,1-.22,1.86-.65,2.56-.44,.7-1,1.28-1.7,1.73s-1.48,.76-2.35,.96c-.87,.19-1.74,.29-2.62,.29h-.61c-2.73,0-5.02-.76-6.87-2.28l-1.03-.83,1.67-2.03Z"/><path class="cls-1" d="M395.36,248.53c.89-.87,1.94-1.54,3.14-2,1.21-.46,2.5-.7,3.9-.7s2.69,.23,3.91,.68c1.21,.46,2.27,1.13,3.16,2.02,.48,.48,.91,.97,1.29,1.46s.7,1.02,.96,1.57c.26,.56,.46,1.16,.6,1.81,.14,.65,.21,1.37,.21,2.17v.61c0,1.58-.26,2.91-.79,3.99s-1.28,2.09-2.27,3.02c-.89,.87-1.94,1.54-3.16,2-1.22,.46-2.52,.69-3.91,.69s-2.69-.23-3.9-.68c-1.21-.46-2.25-1.13-3.14-2.02-.48-.48-.91-.97-1.29-1.46-.38-.49-.7-1.02-.96-1.57-.26-.56-.46-1.16-.6-1.81-.14-.65-.21-1.37-.21-2.17v-.61c0-.8,.07-1.52,.21-2.17,.14-.65,.34-1.25,.6-1.81,.26-.56,.58-1.08,.96-1.58,.38-.5,.81-.98,1.29-1.45Zm-.31,7.62c0,.61,.05,1.27,.14,1.96,.09,.7,.23,1.38,.4,2.05,.18,.67,.4,1.28,.67,1.85,.27,.57,.58,1.02,.93,1.38,1.34,1.3,3.07,1.95,5.2,1.95,1.06,0,2.03-.16,2.92-.49s1.66-.81,2.31-1.46c.35-.35,.66-.81,.93-1.38,.27-.57,.49-1.18,.67-1.85,.18-.67,.31-1.35,.4-2.05,.09-.69,.14-1.35,.14-1.96v-.61c0-.61-.05-1.27-.14-1.97-.09-.7-.23-1.39-.4-2.06-.18-.67-.4-1.28-.67-1.85-.27-.57-.58-1.02-.93-1.35-1.34-1.3-3.08-1.95-5.23-1.95s-3.87,.65-5.2,1.95c-.35,.35-.66,.81-.93,1.38-.27,.57-.49,1.18-.67,1.85-.18,.67-.31,1.35-.4,2.05-.09,.69-.14,1.35-.14,1.96v.61Z"/><path class="cls-1" d="M421.43,255.54c0-.8,.07-1.52,.21-2.17,.14-.65,.34-1.26,.6-1.82,.26-.57,.58-1.09,.96-1.59,.38-.49,.81-.97,1.29-1.43,.89-.87,1.94-1.54,3.14-2,1.21-.46,2.5-.7,3.9-.7,.7,0,1.44,.05,2.21,.15,.77,.1,1.53,.26,2.27,.46,.74,.2,1.44,.46,2.09,.78,.65,.32,1.2,.69,1.64,1.11l-1.45,2.2c-.48-.82-1.01-1.49-1.57-2.02-.57-.53-1.15-.96-1.74-1.28-.59-.32-1.18-.55-1.77-.68-.58-.13-1.15-.19-1.68-.19-2.13,0-3.87,.65-5.2,1.95-.35,.35-.66,.81-.93,1.38-.27,.57-.49,1.18-.67,1.85s-.31,1.35-.4,2.05c-.09,.69-.14,1.35-.14,1.96v.61c0,.61,.05,1.27,.14,1.96,.09,.7,.23,1.38,.4,2.05s.4,1.28,.67,1.85c.27,.57,.58,1.02,.93,1.38,1.34,1.3,3.07,1.95,5.2,1.95,.54,0,1.12-.1,1.75-.31,.63-.2,1.27-.5,1.92-.89s1.28-.88,1.91-1.46c.62-.58,1.19-1.25,1.71-1.99l1.67,2.03c-.44,.44-.95,.86-1.52,1.24-.57,.38-1.21,.71-1.95,.99-.73,.28-1.55,.5-2.46,.67-.91,.17-1.92,.25-3.03,.25-1.39,0-2.69-.23-3.9-.68-1.21-.46-2.25-1.13-3.14-2.02-.48-.48-.91-.97-1.29-1.46-.38-.49-.7-1.02-.96-1.57-.26-.56-.46-1.16-.6-1.81-.14-.65-.21-1.37-.21-2.17v-.61Z"/><path class="cls-1" d="M449.95,265.59v-19.48h2.64v19.48h-2.64Z"/><path class="cls-1" d="M470.71,246.11h2.56l8.65,19.48h-2.87l-2.81-6.32h-10.8l-2.81,6.32h-.58l8.65-19.48Zm-5.04,12.63h10.32l-5.15-11.63-5.18,11.63Z"/><path class="cls-1" d="M489.02,255.54c0-.8,.07-1.52,.21-2.17,.14-.65,.34-1.26,.6-1.82,.26-.57,.58-1.09,.96-1.59,.38-.49,.81-.97,1.29-1.43,.89-.87,1.94-1.54,3.14-2,1.21-.46,2.5-.7,3.9-.7,.7,0,1.44,.05,2.21,.15,.77,.1,1.53,.26,2.27,.46,.74,.2,1.44,.46,2.09,.78,.65,.32,1.2,.69,1.64,1.11l-1.45,2.2c-.48-.82-1.01-1.49-1.57-2.02-.57-.53-1.15-.96-1.74-1.28-.59-.32-1.18-.55-1.77-.68-.58-.13-1.15-.19-1.68-.19-2.13,0-3.87,.65-5.2,1.95-.35,.35-.66,.81-.93,1.38-.27,.57-.49,1.18-.67,1.85s-.31,1.35-.4,2.05c-.09,.69-.14,1.35-.14,1.96v.61c0,.61,.05,1.27,.14,1.96,.09,.7,.23,1.38,.4,2.05s.4,1.28,.67,1.85c.27,.57,.58,1.02,.93,1.38,1.34,1.3,3.07,1.95,5.2,1.95,.54,0,1.12-.1,1.75-.31,.63-.2,1.27-.5,1.92-.89s1.28-.88,1.91-1.46c.62-.58,1.19-1.25,1.71-1.99l1.67,2.03c-.44,.44-.95,.86-1.52,1.24-.57,.38-1.21,.71-1.95,.99-.73,.28-1.55,.5-2.46,.67-.91,.17-1.92,.25-3.03,.25-1.39,0-2.69-.23-3.9-.68-1.21-.46-2.25-1.13-3.14-2.02-.48-.48-.91-.97-1.29-1.46-.38-.49-.7-1.02-.96-1.57-.26-.56-.46-1.16-.6-1.81-.14-.65-.21-1.37-.21-2.17v-.61Z"/><path class="cls-1" d="M517.54,265.59v-19.48h2.64v19.48h-2.64Z"/><path class="cls-1" d="M549.87,255.54v.61c0,3.17-1.14,5.12-3.06,7.01-1.78,1.73-4.29,2.7-7.07,2.7s-5.26-.97-7.04-2.7c-1.92-1.89-3.06-3.84-3.06-7.01v-.61c0-3.17,1.14-5.12,3.06-7.01,1.78-1.73,4.29-2.7,7.04-2.7s5.29,.97,7.07,2.7c1.92,1.89,3.06,3.84,3.06,7.01Zm-2.76,0c0-2.45-.75-5.84-2.14-7.24-1.31-1.28-3.12-1.95-5.23-1.95s-3.9,.67-5.2,1.95c-1.42,1.39-2.14,4.79-2.14,7.24v.61c0,2.45,.72,5.84,2.14,7.24,1.31,1.28,3.12,1.95,5.2,1.95s3.92-.67,5.23-1.95c1.39-1.39,2.14-4.79,2.14-7.24v-.61Zm-8.43-10.63h-1.28l2.48-3.51h2.23l-3.42,3.51Z"/><path class="cls-1" d="M559.33,265.59v-19.48h2.89l12.99,15.36v-15.36h.5v19.48h-.5l-15.36-18.2v18.2h-.53Z"/><path class="cls-1" d="M609.47,246.11c1.34,0,2.56,.26,3.69,.77,1.12,.51,2.09,1.21,2.89,2.09,.81,.88,1.44,1.92,1.89,3.1s.68,2.45,.68,3.78-.23,2.6-.68,3.78c-.45,1.19-1.09,2.22-1.89,3.1-.81,.88-1.77,1.58-2.89,2.09-1.12,.51-2.35,.77-3.69,.77h-9.27v-19.48h9.27Zm-6.62,.53v18.42h4.87c1.21,0,2.31-.2,3.32-.6,1.01-.4,1.88-.99,2.62-1.77,.73-.78,1.3-1.74,1.71-2.89,.41-1.15,.61-2.47,.61-3.95s-.2-2.88-.61-4.03c-.41-1.15-.98-2.11-1.71-2.87-.73-.76-1.6-1.34-2.62-1.73-1.01-.39-2.12-.58-3.32-.58h-4.87Z"/><path class="cls-1" d="M628.08,246.11h11.99v.53h-9.35v8.32h5.7v.53h-5.7v9.57h10.18v.53h-12.83v-19.48Z"/><path class="cls-1" d="M665.39,246.11h11.99v.53h-9.35v8.32h5.7v.53h-5.7v9.57h10.18v.53h-12.83v-19.48Z"/><path class="cls-1" d="M686.99,246.11h3.45l6.4,8.4,7.01-8.4h.78l-7.4,8.9,8.04,10.57h-3.45l-6.4-8.4-7.01,8.4h-.78l7.4-8.9-8.04-10.57Z"/><path class="cls-1" d="M714.73,246.11h10.1c.72,0,1.41,.14,2.05,.42,.64,.28,1.2,.67,1.67,1.17,.47,.5,.85,1.1,1.13,1.78,.28,.69,.42,1.44,.42,2.25s-.14,1.54-.42,2.23c-.28,.69-.65,1.28-1.13,1.78-.47,.5-1.03,.9-1.67,1.18-.64,.29-1.32,.43-2.05,.43h-7.46v8.24h-2.64v-19.48Zm2.64,.53v10.18h6.51c.67,0,1.23-.17,1.68-.52,.46-.34,.82-.77,1.1-1.28,.28-.51,.48-1.06,.6-1.66,.12-.59,.18-1.14,.18-1.64,0-.45-.05-.96-.15-1.54s-.29-1.14-.57-1.67c-.28-.53-.66-.97-1.14-1.34-.48-.36-1.11-.54-1.89-.54h-6.32Z"/><path class="cls-1" d="M741.91,248.53c.89-.87,1.94-1.54,3.14-2,1.2-.46,2.5-.7,3.89-.7s2.7,.23,3.91,.68c1.22,.46,2.27,1.13,3.16,2.02,.48,.48,.91,.97,1.29,1.46,.38,.49,.7,1.02,.96,1.57,.26,.56,.46,1.16,.6,1.81,.14,.65,.21,1.37,.21,2.17v.61c0,1.58-.26,2.91-.79,3.99s-1.28,2.09-2.27,3.02c-.89,.87-1.94,1.54-3.16,2-1.21,.46-2.52,.69-3.91,.69s-2.69-.23-3.89-.68c-1.21-.46-2.25-1.13-3.14-2.02-.48-.48-.91-.97-1.29-1.46-.38-.49-.7-1.02-.96-1.57-.26-.56-.46-1.16-.6-1.81-.14-.65-.21-1.37-.21-2.17v-.61c0-.8,.07-1.52,.21-2.17,.14-.65,.34-1.25,.6-1.81,.26-.56,.58-1.08,.96-1.58,.38-.5,.81-.98,1.29-1.45Zm-.31,7.62c0,.61,.04,1.27,.14,1.96,.09,.7,.23,1.38,.4,2.05,.18,.67,.4,1.28,.67,1.85,.27,.57,.58,1.02,.93,1.38,1.34,1.3,3.07,1.95,5.2,1.95,1.06,0,2.03-.16,2.92-.49,.89-.32,1.66-.81,2.31-1.46,.35-.35,.66-.81,.93-1.38s.49-1.18,.67-1.85c.18-.67,.31-1.35,.4-2.05,.09-.69,.14-1.35,.14-1.96v-.61c0-.61-.05-1.27-.14-1.97s-.23-1.39-.4-2.06c-.18-.67-.4-1.28-.67-1.85s-.58-1.02-.93-1.35c-1.34-1.3-3.08-1.95-5.23-1.95s-3.87,.65-5.2,1.95c-.35,.35-.66,.81-.93,1.38-.27,.57-.49,1.18-.67,1.85-.18,.67-.31,1.35-.4,2.05-.09,.69-.14,1.35-.14,1.96v.61Z"/><path class="cls-1" d="M778.28,246.11c.72,0,1.4,.12,2.05,.36,.64,.24,1.2,.59,1.67,1.06,.47,.46,.85,1.02,1.13,1.66,.28,.64,.42,1.37,.42,2.18,0,.7-.12,1.35-.35,1.93-.23,.58-.54,1.1-.93,1.54s-.85,.81-1.39,1.1-1.11,.49-1.73,.6c.31,.11,.61,.29,.88,.54s.52,.6,.74,1.04l3.45,7.46h-3.87l-3.14-8.29c-.11-.26-.28-.43-.52-.52-.23-.08-.52-.13-.85-.15h-4.65v8.96h-2.64v-19.48h9.74Zm-1.17,9.99c.67,0,1.24-.15,1.73-.46s.88-.69,1.18-1.15c.31-.46,.53-.97,.68-1.53,.15-.56,.22-1.08,.22-1.58,0-.45-.05-.94-.15-1.49-.1-.55-.29-1.06-.57-1.54-.28-.48-.66-.89-1.16-1.21-.49-.32-1.13-.49-1.9-.49h-5.95v9.46h5.93Z"/><path class="cls-1" d="M792.28,246.64v-.53h16.22v.53h-6.79v18.95h-2.64v-18.95h-6.79Z"/><path class="cls-1" d="M823.13,246.11h2.56l8.65,19.48h-2.87l-2.81-6.32h-10.8l-2.81,6.32h-.58l8.65-19.48Zm-5.04,12.63h10.32l-5.15-11.63-5.18,11.63Z"/><path class="cls-1" d="M853.07,246.11c1.34,0,2.56,.26,3.69,.77,1.12,.51,2.09,1.21,2.89,2.09,.81,.88,1.44,1.92,1.89,3.1,.45,1.19,.68,2.45,.68,3.78s-.23,2.6-.68,3.78c-.46,1.19-1.09,2.22-1.89,3.1-.81,.88-1.77,1.58-2.89,2.09-1.12,.51-2.35,.77-3.69,.77h-9.27v-19.48h9.27Zm-6.62,.53v18.42h4.87c1.21,0,2.31-.2,3.32-.6s1.88-.99,2.62-1.77c.73-.78,1.3-1.74,1.71-2.89,.41-1.15,.61-2.47,.61-3.95s-.2-2.88-.61-4.03c-.41-1.15-.98-2.11-1.71-2.87s-1.61-1.34-2.62-1.73-2.12-.58-3.32-.58h-4.87Z"/><path class="cls-1" d="M874.19,248.53c.89-.87,1.94-1.54,3.14-2,1.2-.46,2.5-.7,3.89-.7s2.7,.23,3.91,.68c1.22,.46,2.27,1.13,3.16,2.02,.48,.48,.91,.97,1.29,1.46,.38,.49,.7,1.02,.96,1.57,.26,.56,.46,1.16,.6,1.81,.14,.65,.21,1.37,.21,2.17v.61c0,1.58-.26,2.91-.79,3.99-.53,1.08-1.28,2.09-2.27,3.02-.89,.87-1.94,1.54-3.16,2-1.21,.46-2.52,.69-3.91,.69s-2.69-.23-3.89-.68c-1.21-.46-2.25-1.13-3.14-2.02-.48-.48-.91-.97-1.29-1.46-.38-.49-.7-1.02-.96-1.57-.26-.56-.46-1.16-.6-1.81-.14-.65-.21-1.37-.21-2.17v-.61c0-.8,.07-1.52,.21-2.17,.14-.65,.34-1.25,.6-1.81,.26-.56,.58-1.08,.96-1.58,.38-.5,.81-.98,1.29-1.45Zm-.31,7.62c0,.61,.04,1.27,.14,1.96,.09,.7,.23,1.38,.4,2.05,.18,.67,.4,1.28,.67,1.85,.27,.57,.58,1.02,.93,1.38,1.34,1.3,3.07,1.95,5.2,1.95,1.06,0,2.03-.16,2.92-.49,.89-.32,1.66-.81,2.31-1.46,.35-.35,.66-.81,.93-1.38,.27-.57,.49-1.18,.67-1.85,.18-.67,.31-1.35,.4-2.05,.09-.69,.14-1.35,.14-1.96v-.61c0-.61-.05-1.27-.14-1.97s-.23-1.39-.4-2.06c-.18-.67-.4-1.28-.67-1.85-.27-.57-.58-1.02-.93-1.35-1.34-1.3-3.08-1.95-5.23-1.95s-3.87,.65-5.2,1.95c-.35,.35-.66,.81-.93,1.38-.27,.57-.49,1.18-.67,1.85-.18,.67-.31,1.35-.4,2.05-.09,.69-.14,1.35-.14,1.96v.61Z"/><path class="cls-1" d="M910.56,246.11c.72,0,1.4,.12,2.05,.36,.64,.24,1.2,.59,1.67,1.06,.47,.46,.85,1.02,1.13,1.66,.28,.64,.42,1.37,.42,2.18,0,.7-.12,1.35-.35,1.93-.23,.58-.54,1.1-.93,1.54-.39,.45-.85,.81-1.39,1.1s-1.11,.49-1.73,.6c.31,.11,.61,.29,.88,.54s.52,.6,.74,1.04l3.45,7.46h-3.87l-3.14-8.29c-.11-.26-.28-.43-.52-.52-.23-.08-.52-.13-.85-.15h-4.65v8.96h-2.64v-19.48h9.74Zm-1.17,9.99c.67,0,1.24-.15,1.73-.46s.88-.69,1.18-1.15c.31-.46,.53-.97,.68-1.53,.15-.56,.22-1.08,.22-1.58,0-.45-.05-.94-.15-1.49-.1-.55-.29-1.06-.57-1.54-.28-.48-.66-.89-1.16-1.21-.49-.32-1.13-.49-1.9-.49h-5.95v9.46h5.93Z"/><path class="cls-1" d="M925.95,246.11h11.99v.53h-9.35v8.32h5.7v.53h-5.7v9.57h10.18v.53h-12.83v-19.48Z"/><path class="cls-1" d="M948.93,260.69c.56,.84,1.17,1.57,1.84,2.2,.56,.56,1.21,1.07,1.96,1.53,.75,.46,1.56,.7,2.44,.7h.61c.74,0,1.42-.09,2.03-.28s1.14-.45,1.57-.79c.43-.34,.77-.77,1.02-1.27,.24-.5,.36-1.06,.36-1.67,0-.5-.14-.96-.43-1.38-.29-.42-.69-.81-1.2-1.17-.51-.36-1.11-.69-1.81-.99-.7-.3-1.45-.58-2.27-.86-.8-.26-1.61-.54-2.43-.85-.83-.31-1.57-.68-2.23-1.11s-1.2-.96-1.61-1.56c-.42-.6-.63-1.33-.63-2.18s.22-1.66,.67-2.3c.45-.64,1.02-1.17,1.71-1.6,.7-.43,1.46-.74,2.28-.95,.82-.2,1.61-.31,2.35-.31h.61c1.17,0,2.24,.13,3.2,.4,.96,.27,1.89,.7,2.78,1.29l1.08,.72-1.45,2.2c-.45-.74-.95-1.41-1.5-2-.48-.5-1.07-.96-1.77-1.38-.7-.42-1.48-.63-2.35-.63h-.61c-.87,0-1.62,.1-2.24,.31-.62,.2-1.13,.48-1.52,.82-.39,.34-.68,.75-.86,1.21-.19,.46-.28,.96-.28,1.47,0,.58,.15,1.05,.45,1.43s.7,.71,1.21,1c.51,.29,1.1,.54,1.78,.76,.68,.22,1.4,.46,2.18,.72,.82,.26,1.63,.53,2.44,.82s1.53,.64,2.18,1.07c1.73,1.08,2.59,2.48,2.59,4.2,0,1-.22,1.86-.65,2.56s-1,1.28-1.7,1.73c-.69,.45-1.48,.76-2.35,.96-.87,.19-1.74,.29-2.62,.29h-.61c-2.73,0-5.02-.76-6.87-2.28l-1.03-.83,1.67-2.03Z"/></g><g><path class="cls-1" d="M348.33,279.5c1.34,0,2.56,.26,3.69,.77,1.12,.51,2.09,1.21,2.89,2.09,.81,.88,1.44,1.92,1.89,3.1,.45,1.19,.68,2.45,.68,3.78s-.23,2.6-.68,3.78c-.45,1.19-1.09,2.22-1.89,3.1-.81,.88-1.77,1.58-2.89,2.09-1.12,.51-2.35,.77-3.69,.77h-9.27v-19.48h9.27Zm-6.62,.53v18.42h4.87c1.21,0,2.31-.2,3.32-.6,1.01-.4,1.88-.99,2.62-1.77,.73-.78,1.3-1.74,1.71-2.89,.41-1.15,.61-2.47,.61-3.95s-.2-2.88-.61-4.03c-.41-1.15-.98-2.11-1.71-2.87-.73-.76-1.6-1.34-2.62-1.73s-2.12-.58-3.32-.58h-4.87Z"/><path class="cls-1" d="M366.95,279.5h11.99v.53h-9.35v8.32h5.7v.53h-5.7v9.57h10.18v.53h-12.83v-19.48Z"/><path class="cls-1" d="M414.05,279.5c.72,0,1.39,.13,2,.39,.61,.26,1.15,.62,1.6,1.08,.45,.46,.81,1.01,1.06,1.64,.25,.63,.38,1.31,.38,2.03,0,.41-.08,.82-.25,1.24-.17,.42-.39,.8-.68,1.14s-.62,.63-.99,.88-.77,.4-1.2,.47c.67,0,1.3,.13,1.89,.4,.59,.27,1.11,.63,1.56,1.07,.45,.45,.8,.96,1.06,1.53,.26,.58,.39,1.18,.39,1.81,0,.95-.15,1.78-.46,2.5-.31,.72-.72,1.33-1.24,1.81-.52,.48-1.13,.85-1.84,1.1-.71,.25-1.46,.38-2.25,.38h-10.82v-19.48h9.79Zm-7.15,8.6h6.43c.59,0,1.1-.11,1.52-.32,.42-.21,.77-.48,1.04-.81,.28-.32,.48-.68,.61-1.07,.13-.39,.19-.77,.19-1.14,0-1.43-.3-2.57-.9-3.44-.6-.86-1.46-1.29-2.57-1.29h-6.32v8.07Zm0,.53v9.82h6.87c.74,0,1.39-.15,1.95-.45,.56-.3,1.02-.69,1.4-1.18,.38-.49,.66-1.05,.85-1.68,.19-.63,.28-1.28,.28-1.95,0-.48-.05-.99-.15-1.53-.1-.54-.31-1.03-.61-1.48-.31-.44-.74-.81-1.29-1.11s-1.28-.45-2.17-.45h-7.12Z"/><path class="cls-1" d="M437.18,279.5h2.56l8.65,19.48h-2.87l-2.81-6.32h-10.8l-2.81,6.32h-.58l8.65-19.48Zm-5.04,12.63h10.32l-5.15-11.63-5.18,11.63Z"/><path class="cls-1" d="M457.85,298.98v-19.48h2.89l12.99,15.36v-15.36h.5v19.48h-.5l-15.36-18.2v18.2h-.53Z"/><path class="cls-1" d="M492.35,279.5h2.56l8.65,19.48h-2.87l-2.81-6.32h-10.8l-2.81,6.32h-.58l8.65-19.48Zm-5.04,12.63h10.32l-5.15-11.63-5.18,11.63Z"/><path class="cls-1" d="M513.03,298.98v-19.48h2.89l12.99,15.36v-15.36h.5v19.48h-.5l-15.36-18.2v18.2h-.53Z"/><path class="cls-1" d="M541.94,281.92c.89-.87,1.94-1.54,3.14-2,1.21-.46,2.5-.7,3.9-.7s2.69,.23,3.91,.68c1.21,.46,2.27,1.13,3.16,2.02,.48,.48,.91,.97,1.29,1.46s.7,1.02,.96,1.57c.26,.56,.46,1.16,.6,1.81,.14,.65,.21,1.37,.21,2.17v.61c0,1.58-.26,2.91-.79,3.99-.53,1.08-1.28,2.09-2.27,3.02-.89,.87-1.94,1.54-3.16,2-1.22,.46-2.52,.69-3.91,.69s-2.69-.23-3.9-.68c-1.21-.46-2.25-1.13-3.14-2.02-.48-.48-.91-.97-1.29-1.46-.38-.49-.7-1.02-.96-1.57-.26-.56-.46-1.16-.6-1.81-.14-.65-.21-1.37-.21-2.17v-.61c0-.8,.07-1.52,.21-2.17,.14-.65,.34-1.25,.6-1.81,.26-.56,.58-1.08,.96-1.58,.38-.5,.81-.98,1.29-1.45Zm-.31,7.62c0,.61,.05,1.27,.14,1.96,.09,.7,.23,1.38,.4,2.05,.18,.67,.4,1.28,.67,1.85,.27,.57,.58,1.02,.93,1.38,1.34,1.3,3.07,1.95,5.2,1.95,1.06,0,2.03-.16,2.92-.49,.89-.32,1.66-.81,2.31-1.46,.35-.35,.66-.81,.93-1.38,.27-.57,.49-1.18,.67-1.85,.18-.67,.31-1.35,.4-2.05,.09-.69,.14-1.35,.14-1.96v-.61c0-.61-.05-1.27-.14-1.97-.09-.7-.23-1.39-.4-2.06-.18-.67-.4-1.28-.67-1.85-.27-.57-.58-1.02-.93-1.35-1.34-1.3-3.08-1.95-5.23-1.95s-3.87,.65-5.2,1.95c-.35,.35-.66,.81-.93,1.38-.27,.57-.49,1.18-.67,1.85-.18,.67-.31,1.35-.4,2.05-.09,.69-.14,1.35-.14,1.96v.61Z"/><path class="cls-1" d="M592.86,279.5c1.34,0,2.56,.26,3.69,.77,1.12,.51,2.09,1.21,2.89,2.09,.81,.88,1.44,1.92,1.89,3.1,.45,1.19,.68,2.45,.68,3.78s-.23,2.6-.68,3.78c-.46,1.19-1.09,2.22-1.89,3.1-.81,.88-1.77,1.58-2.89,2.09-1.12,.51-2.35,.77-3.69,.77h-9.27v-19.48h9.27Zm-6.62,.53v18.42h4.87c1.21,0,2.31-.2,3.32-.6s1.88-.99,2.62-1.77c.73-.78,1.3-1.74,1.71-2.89,.41-1.15,.61-2.47,.61-3.95s-.2-2.88-.61-4.03c-.41-1.15-.98-2.11-1.71-2.87s-1.6-1.34-2.62-1.73c-1.01-.39-2.12-.58-3.32-.58h-4.87Z"/><path class="cls-1" d="M611.47,279.5h11.99v.53h-9.35v8.32h5.7v.53h-5.7v9.57h10.18v.53h-12.83v-19.48Z"/><path class="cls-1" d="M636.4,279.5v18.95h10.18v.53h-12.83v-19.48h2.64Z"/><path class="cls-1" d="M671.07,279.5h11.99v.53h-9.35v8.32h5.7v.53h-5.7v9.57h10.18v.53h-12.83v-19.48Z"/><path class="cls-1" d="M691.55,288.93c0-.8,.07-1.52,.21-2.17,.14-.65,.34-1.26,.6-1.82,.26-.57,.58-1.09,.96-1.59,.38-.49,.81-.97,1.29-1.43,.89-.87,1.94-1.54,3.14-2,1.2-.46,2.5-.7,3.89-.7,.71,0,1.44,.05,2.21,.15,.77,.1,1.52,.26,2.27,.46,.74,.2,1.44,.46,2.09,.78,.65,.32,1.2,.69,1.64,1.11l-1.45,2.2c-.48-.82-1.01-1.49-1.57-2.02-.57-.53-1.15-.96-1.74-1.28-.59-.32-1.18-.55-1.77-.68s-1.15-.19-1.68-.19c-2.13,0-3.87,.65-5.2,1.95-.35,.35-.66,.81-.93,1.38-.27,.57-.49,1.18-.67,1.85-.18,.67-.31,1.35-.4,2.05-.09,.69-.14,1.35-.14,1.96v.61c0,.61,.04,1.27,.14,1.96,.09,.7,.23,1.38,.4,2.05,.18,.67,.4,1.28,.67,1.85,.27,.57,.58,1.02,.93,1.38,1.34,1.3,3.07,1.95,5.2,1.95,.54,0,1.12-.1,1.75-.31,.63-.2,1.27-.5,1.92-.89,.65-.39,1.28-.88,1.9-1.46,.62-.58,1.19-1.25,1.71-1.99l1.67,2.03c-.44,.44-.95,.86-1.52,1.24-.57,.38-1.22,.71-1.95,.99-.73,.28-1.55,.5-2.46,.67-.91,.17-1.92,.25-3.03,.25-1.39,0-2.69-.23-3.89-.68-1.21-.46-2.25-1.13-3.14-2.02-.48-.48-.91-.97-1.29-1.46-.38-.49-.7-1.02-.96-1.57-.26-.56-.46-1.16-.6-1.81-.14-.65-.21-1.37-.21-2.17v-.61Z"/><path class="cls-1" d="M720.07,279.5h2.64v11.83c0,1,.13,1.95,.39,2.84,.26,.89,.62,1.67,1.08,2.35s1.01,1.21,1.64,1.6c.63,.39,1.31,.58,2.03,.58h1.87c1.06,0,1.99-.21,2.81-.63,.82-.42,1.51-.97,2.09-1.66,.58-.69,1.01-1.47,1.31-2.36,.3-.89,.45-1.8,.45-2.73v-11.83h.53v11.83c0,1.08-.17,2.1-.52,3.06-.34,.96-.83,1.8-1.45,2.52-.62,.71-1.37,1.28-2.25,1.7-.88,.42-1.87,.63-2.96,.63h-1.87c-1.3,0-2.44-.21-3.42-.63-.98-.42-1.79-.98-2.44-1.7-.64-.71-1.12-1.55-1.45-2.52-.32-.96-.49-1.99-.49-3.06v-11.83Z"/><path class="cls-1" d="M753.63,279.5h2.56l8.65,19.48h-2.87l-2.81-6.32h-10.8l-2.81,6.32h-.58l8.65-19.48Zm-5.04,12.63h10.32l-5.15-11.63-5.18,11.63Z"/><path class="cls-1" d="M783.57,279.5c1.34,0,2.56,.26,3.69,.77,1.12,.51,2.09,1.21,2.89,2.09,.81,.88,1.44,1.92,1.89,3.1,.45,1.19,.68,2.45,.68,3.78s-.23,2.6-.68,3.78c-.46,1.19-1.09,2.22-1.89,3.1-.81,.88-1.77,1.58-2.89,2.09-1.12,.51-2.35,.77-3.69,.77h-9.27v-19.48h9.27Zm-6.62,.53v18.42h4.87c1.21,0,2.31-.2,3.32-.6,1.01-.4,1.88-.99,2.62-1.77,.73-.78,1.3-1.74,1.71-2.89,.41-1.15,.61-2.47,.61-3.95s-.2-2.88-.61-4.03c-.41-1.15-.98-2.11-1.71-2.87s-1.61-1.34-2.62-1.73-2.12-.58-3.32-.58h-4.87Z"/><path class="cls-1" d="M804.69,281.92c.89-.87,1.94-1.54,3.14-2,1.2-.46,2.5-.7,3.89-.7s2.7,.23,3.91,.68c1.22,.46,2.27,1.13,3.16,2.02,.48,.48,.91,.97,1.29,1.46s.7,1.02,.96,1.57c.26,.56,.46,1.16,.6,1.81,.14,.65,.21,1.37,.21,2.17v.61c0,1.58-.26,2.91-.79,3.99s-1.28,2.09-2.27,3.02c-.89,.87-1.94,1.54-3.16,2-1.21,.46-2.52,.69-3.91,.69s-2.69-.23-3.89-.68c-1.21-.46-2.25-1.13-3.14-2.02-.48-.48-.91-.97-1.29-1.46-.38-.49-.7-1.02-.96-1.57-.26-.56-.46-1.16-.6-1.81-.14-.65-.21-1.37-.21-2.17v-.61c0-.8,.07-1.52,.21-2.17,.14-.65,.34-1.25,.6-1.81,.26-.56,.58-1.08,.96-1.58,.38-.5,.81-.98,1.29-1.45Zm-.31,7.62c0,.61,.04,1.27,.14,1.96,.09,.7,.23,1.38,.4,2.05,.18,.67,.4,1.28,.67,1.85,.27,.57,.58,1.02,.93,1.38,1.34,1.3,3.07,1.95,5.2,1.95,1.06,0,2.03-.16,2.92-.49,.89-.32,1.66-.81,2.31-1.46,.35-.35,.66-.81,.93-1.38s.49-1.18,.67-1.85c.18-.67,.31-1.35,.4-2.05,.09-.69,.14-1.35,.14-1.96v-.61c0-.61-.05-1.27-.14-1.97s-.23-1.39-.4-2.06c-.18-.67-.4-1.28-.67-1.85s-.58-1.02-.93-1.35c-1.34-1.3-3.08-1.95-5.23-1.95s-3.87,.65-5.2,1.95c-.35,.35-.66,.81-.93,1.38-.27,.57-.49,1.18-.67,1.85-.18,.67-.31,1.35-.4,2.05-.09,.69-.14,1.35-.14,1.96v.61Z"/><path class="cls-1" d="M841.05,279.5c.72,0,1.4,.12,2.05,.36,.64,.24,1.2,.59,1.67,1.06,.47,.46,.85,1.02,1.13,1.66,.28,.64,.42,1.37,.42,2.18,0,.7-.12,1.35-.35,1.93-.23,.58-.54,1.1-.93,1.54s-.85,.81-1.39,1.1-1.11,.49-1.73,.6c.31,.11,.61,.29,.88,.54s.52,.6,.74,1.04l3.45,7.46h-3.87l-3.14-8.29c-.11-.26-.28-.43-.52-.52-.23-.08-.52-.13-.85-.15h-4.65v8.96h-2.64v-19.48h9.74Zm-1.17,9.99c.67,0,1.24-.15,1.73-.46,.48-.31,.88-.69,1.18-1.15,.31-.46,.53-.97,.68-1.53,.15-.56,.22-1.08,.22-1.58,0-.45-.05-.94-.15-1.49-.1-.55-.29-1.06-.57-1.54s-.66-.89-1.16-1.21c-.49-.32-1.13-.49-1.9-.49h-5.95v9.46h5.93Z"/></g></g><g><path class="cls-1" d="M534.16,196.39c-3.94,0-7.38-.93-10.24-2.76-2.87-1.84-4.83-4.13-5.95-6.97L452.08,1.05c-.21-.6-.78-1-1.42-1h-26.96c-.64,0-1.2,.4-1.42,1l-65.88,185.56c-1.13,2.85-3.14,5.21-5.97,7.02-2.86,1.83-6.17,2.76-9.86,2.76-.83,0-1.5,.67-1.5,1.5v4.1c0,.83,.67,1.5,1.5,1.5h32.58c.83,0,1.5-.67,1.5-1.5v-4.1c0-.83-.67-1.5-1.5-1.5-3.09,0-5.54-1.03-7.51-3.15-1.85-1.99-2.24-4.03-1.18-6.53l18.74-53.29h78.38l19.51,54.61c.79,1.99,.4,3.76-1.21,5.54-1.72,1.9-4.05,2.82-7.12,2.82-.83,0-1.5,.67-1.5,1.5v4.1c0,.83,.67,1.5,1.5,1.5h61.41c.83,0,1.5-.67,1.5-1.5v-4.1c0-.83-.67-1.5-1.5-1.5Zm-148.39-70.08l36.8-102.92,36.45,102.92h-73.25Z"/><path class="cls-1" d="M894.77,108.13c-4.96-4.93-11.09-9.12-18.21-12.45-5.01-2.34-10.39-4.08-16.06-5.2,9.72-3.11,17.72-8.03,23.84-14.67,7.59-8.25,11.44-17.94,11.44-28.8,0-6.52-1.44-12.69-4.28-18.35-2.84-5.64-6.94-10.64-12.2-14.86-5.23-4.19-11.56-7.57-18.8-10.04-7.25-2.46-15.41-3.71-24.26-3.71h-94.74c-.83,0-1.5,.67-1.5,1.5V5.65c0,.4,.16,.78,.44,1.06,.28,.28,.66,.44,1.06,.44,3.42,0,6.3,.98,8.79,2.98,2.4,1.93,3.56,4.28,3.56,7.19V88.75h-73.01c-6.1,0-11.39-1.8-15.71-5.34-4.29-3.52-6.38-7.68-6.38-12.73,0-.83-.67-1.5-1.5-1.5h-4.49c-.83,0-1.5,.67-1.5,1.5v51.46c0,.83,.67,1.5,1.5,1.5h4.49c.83,0,1.5-.67,1.5-1.5v-7.89c0-5.05,2.09-9.27,6.39-12.9,4.32-3.64,9.6-5.49,15.69-5.49h73.01v90.36c0,2.91-1.16,5.26-3.56,7.19-2.5,2.01-5.37,2.98-8.79,2.98-.83,0-1.5,.67-1.5,1.5v4.1c0,.83,.67,1.5,1.5,1.5h102.97c9.63,0,18.62-1.52,26.73-4.51,8.11-2.99,15.2-7.12,21.07-12.28,5.87-5.17,10.47-11.28,13.66-18.17,3.2-6.9,4.82-14.44,4.82-22.41,0-7.32-1.43-14.32-4.24-20.8-2.81-6.46-6.76-12.24-11.74-17.2Zm-101.41,85.28c-2.39-1.92-3.56-4.27-3.56-7.19V95.86h45.3c4.68,0,9.21,1.31,13.45,3.88,4.28,2.61,8.04,6.23,11.15,10.77,3.14,4.59,5.66,9.98,7.48,16,1.82,6.04,2.75,12.64,2.75,19.61s-.92,13.63-2.75,19.78c-1.82,6.13-4.33,11.5-7.46,15.98-3.12,4.45-6.88,8.02-11.16,10.63-4.23,2.58-8.75,3.88-13.45,3.88h-32.58c-3.68,0-6.68-.98-9.17-2.98Zm59.59-161.58c1.57,4.99,2.36,10.42,2.36,16.12s-.8,11.13-2.36,16.12c-1.57,4.99-3.65,9.37-6.17,13.01-2.49,3.59-5.48,6.48-8.91,8.57-3.37,2.05-7.07,3.09-11.01,3.09h-37.06V7.16h37.06c3.94,0,7.65,1.04,11.01,3.09,3.42,2.09,6.42,4.98,8.91,8.57,2.52,3.64,4.59,8.02,6.17,13.01Z"/><path class="cls-1" d="M712.19,149.04h-4.87c-.74,0-1.37,.54-1.49,1.28-.97,6.33-3,12.38-6.02,17.98-3.03,5.61-6.89,10.52-11.47,14.58-4.59,4.07-10.1,7.37-16.4,9.82-6.29,2.45-13.28,3.69-20.8,3.69h-24.71c-3.68,0-6.68-.98-9.17-2.98-2.39-1.92-3.56-4.28-3.56-7.19V7.16h28.08c7.52,0,14.58,1.24,20.99,3.69,6.41,2.45,12.05,5.81,16.76,9.98,4.71,4.18,8.57,9.08,11.46,14.57,2.89,5.49,4.73,11.47,5.45,17.78,.09,.76,.73,1.33,1.49,1.33h4.87c.42,0,.83-.18,1.11-.49,.28-.31,.42-.73,.38-1.15l-4.87-51.45c-.07-.77-.72-1.36-1.5-1.36h-132.55c-.83,0-1.5,.67-1.5,1.5V5.65c0,.83,.67,1.5,1.5,1.5,3.66,0,6.65,1.02,9.14,3.12,2.41,2.04,3.59,4.35,3.59,7.06V186.22c0,2.91-1.16,5.26-3.56,7.19-2.5,2.01-5.5,2.98-9.17,2.98-.83,0-1.5,.67-1.5,1.5v4.1c0,.83,.67,1.5,1.5,1.5h141.92c.78,0,1.42-.59,1.5-1.36l4.87-51.45c.04-.42-.1-.84-.38-1.15s-.69-.49-1.11-.49Z"/><path class="cls-1" d="M1079.61,149.54c-.28-.31-.69-.49-1.11-.49h-4.87c-.74,0-1.37,.54-1.49,1.28-.97,6.32-2.99,12.31-6.01,17.81-3.03,5.52-6.9,10.43-11.49,14.61-4.58,4.17-10.09,7.52-16.38,9.97-6.28,2.44-13.28,3.68-20.8,3.68h-24.71c-3.65,0-6.57-1.01-8.93-3.1-2.3-2.03-3.42-4.35-3.42-7.08V97.44h41.56c6.1,0,11.38,1.8,15.71,5.34,4.29,3.52,6.38,7.68,6.38,12.73v7.89c0,.83,.67,1.5,1.5,1.5h4.87c.83,0,1.5-.67,1.5-1.5v-51.45c0-.83-.67-1.5-1.5-1.5h-4.87c-.83,0-1.5,.67-1.5,1.5,0,5.05-2.09,9.27-6.39,12.9-4.32,3.64-9.6,5.49-15.69,5.49h-41.56V7.16h27.7c7.52,0,14.58,1.24,20.99,3.69,6.42,2.45,12.07,5.76,16.78,9.83,4.7,4.07,8.55,8.96,11.44,14.55,2.9,5.6,4.73,11.64,5.46,17.95,.09,.76,.73,1.33,1.49,1.33h4.87c.42,0,.83-.18,1.11-.49,.28-.31,.42-.73,.38-1.15l-4.87-51.45c-.07-.77-.72-1.36-1.5-1.36h-132.55c-.83,0-1.5,.67-1.5,1.5V5.65c0,.83,.67,1.5,1.5,1.5,3.67,0,6.67,.98,9.17,2.98,2.39,1.93,3.56,4.28,3.56,7.19V186.22c0,2.72-1.17,5.02-3.58,7.06-2.49,2.1-5.48,3.12-9.14,3.12-.83,0-1.5,.67-1.5,1.5v4.1c0,.83,.67,1.5,1.5,1.5h141.91c.78,0,1.42-.59,1.5-1.36l4.87-51.45c.04-.42-.1-.84-.38-1.15Z"/></g></g><g><g><g><path class="cls-1" d="M109.43,41.15c-.91-1.81-1.81-3.62-2.72-5.44-.37-3.57-.74-7.13-1.11-10.7-.14-1.39-1.19-3.01-2.83-2.83-2.83,.31-5.66,.63-8.5,.94-1.39,.15-3.01,1.18-2.83,2.83,.44,4.11,.88,8.23,1.32,12.34,.06,.58,.12,1.16,.19,1.74-.7,4.18-1.22,8.4-1.5,12.62-.51,7.98-.13,16.07,1.59,23.9,1.88,8.53,5.54,16.59,11.09,23.36,6.57,8.02,15.67,13.5,25.38,16.88,1.23,.43,22.81,4.96,42.59-6.28,9.38-5.39,16.84-13.55,22.18-22.89,5.01-8.75,8.3-18.45,10.42-28.28,1.78-8.25,2.79-16.69,3.16-25.13,.17-3.99,.3-8.05,0-12.04,0-.06,0-.11-.01-.17-.1-1.4-1-2.61-2.46-2.78-1.51-.18-2.56,.69-3.11,2.03,.33-.81,0-.02-.17,.28-.15,.28-.69,1.09-.78,1.23-.21,.23-.4,.49-.61,.72-1.06,1.17-2.27,2.18-3.5,3.17h0l-.04,.04c-.16,.12-3.17,2.28-3.94,2.8-1.7,1.16-3.43,2.29-5.13,3.44-8.02,5.4-15.72,11.37-21.18,19.48-2.39,3.55-4.19,7.39-5.44,11.43-3.46,2.78-7.48,5.16-11.39,6.37-.94,.29-1.89,.53-2.85,.72-.33,.07-2.06,.29-2.38,.32-.86,.06-1.71,.08-2.57,.05-.46-.01-.92-.04-1.37-.08-.23-.02-.95-.11-1.04-.12-1.68-.3-3.33-.71-4.93-1.29-.35-.13-1.63-.67-1.76-.73-.86-.4-1.7-.85-2.53-1.32-.69-.4-3.75-2.5-3.89-2.6-1.32-1.04-2.58-2.14-3.79-3.32-1.15-1.12-2.26-2.3-3.31-3.52-.53-.61-2.43-3.01-2.65-3.3-1.56-2.12-3-4.33-4.28-6.63-1.31-2.55-2.46-4.99-3.34-7.25Zm6.4,21.34c7.09,8.14,17.02,14.9,28.23,14.48,5.58-.21,10.74-2.1,15.44-4.89-1.18,4.81-2.7,9.61-4.56,13.99-1.51,3.56-3.43,7.25-5.6,10.67-8.58-1.75-16.81-4.98-23.91-10.18-6.33-4.63-11.48-10.72-15.33-17.53-3.42-6.07-5.81-12.67-7.39-19.44-.69-2.96-1.2-5.85-1.58-8.76,.5-.22,1-.43,1.5-.65,.58,1.16,1.16,2.32,1.74,3.47,.29,.59,3,6.7,3.69,7.92,2.21,3.89,4.84,7.55,7.78,10.92Zm13.24,48.14c-.32-.12-.64-.25-.95-.37-.12-.05-.64-.26-.72-.29-2.37-1-4.69-2.17-6.9-3.49-1.07-.63-2.12-1.31-3.14-2.01-.45-.31-.89-.63-1.32-.95-.08-.06-.36-.27-.44-.33-.22-.17-.43-.34-.64-.51-1.78-1.44-3.46-3.01-5.01-4.69-.72-.78-1.42-1.59-2.09-2.42-.04-.04-.24-.31-.34-.43-.09-.12-.28-.37-.32-.42-.33-.45-.66-.9-.97-1.36-1.18-1.71-2.25-3.51-3.2-5.36-.48-.93-.92-1.87-1.34-2.83-.07-.15-.19-.44-.18-.44-.06-.16-.13-.31-.19-.47-.2-.5-.39-.99-.57-1.5-.69-1.89-1.28-3.82-1.77-5.77-.49-1.93-.88-3.88-1.2-5.84-.07-.43-.13-.87-.19-1.31-.01-.09-.03-.21-.04-.3-.03-.27-.07-.55-.1-.82-.11-.99-.21-1.97-.28-2.96-.29-3.76-.32-7.54-.14-11.3,.08-1.8,.22-3.6,.39-5.39,.08-.86,.78-6.15,.92-7.03l.11-.05c.3,2.15,.66,4.29,1.1,6.41,1.45,6.89,3.72,13.64,6.95,19.91,3.66,7.1,8.65,13.55,14.83,18.63,7.43,6.1,16.31,10.11,25.67,12.21,.21,.05,.43,.09,.64,.13-.47,.67-.95,1.33-1.44,1.98l-.05,.07s-.03,.04-.06,.07c-.14,.17-.27,.35-.41,.52-.31,.39-.63,.78-.95,1.16-1.08,1.28-2.22,2.51-3.41,3.69-1,.99-2.05,1.93-3.14,2.83-.21,.17-.41,.33-.62,.5l.08-.06c-.12,.09-.23,.18-.35,.27-.4,.29-.79,.59-1.2,.87-.62,.43-1.26,.81-1.91,1.19-1.06-.32-2.11-.64-3.15-1.01-.66-.23-1.31-.47-1.96-.71Zm37.42-43.88c.11-.24,.18-.51,.21-.78,.02-.06,.03-.11,.05-.17,.84-2.7,1.67-4.67,3.03-7.14,2.47-4.51,5.24-7.86,9.02-11.42,.85-.81,1.73-1.59,2.63-2.35,.8-.68,2.03-1.67,2.61-2.12,.52-.4,1.73-1.3,2.53-1.87,.92-.66,1.86-1.32,2.8-1.96,3.32-2.28,6.74-4.41,9.98-6.8,1.02-.75,2.04-1.52,3.01-2.34-.01,.61-.02,1.22-.04,1.83-.09,3.46-.3,6.91-.62,10.35-.09,1.01-.2,2.01-.31,3.02-.06,.51-.12,1.01-.18,1.52-.03,.22-.05,.43-.08,.65-.02,.14-.04,.27-.05,.41h0c-.3,2.15-.63,4.29-1.03,6.42-.86,4.64-1.95,9.23-3.35,13.74-.74,2.37-1.55,4.72-2.47,7.04-.21,.54-.43,1.07-.65,1.61h0c-.04,.1-.09,.2-.13,.3-.14,.33-.28,.65-.43,.98-.5,1.12-1.03,2.24-1.58,3.34-1.12,2.24-2.35,4.43-3.69,6.54-.68,1.08-1.39,2.13-2.13,3.17-.34,.48-.7,.95-1.05,1.42l-.02,.03c-.09,.11-.17,.22-.26,.33-.2,.26-.41,.51-.62,.77-1.61,1.97-3.34,3.83-5.19,5.57-.95,.89-1.93,1.75-2.95,2.57-.23,.18-.46,.36-.69,.55h-.01c-.11,.09-.22,.17-.32,.25-.54,.41-1.1,.8-1.66,1.19-2.21,1.52-4.54,2.87-6.96,4.04-.62,.3-1.24,.58-1.86,.85-.06,.03-.12,.05-.19,.08-.07,.03-.18,.08-.24,.1-.37,.15-.75,.3-1.13,.45-1.33,.51-2.68,.97-4.05,1.37-2.94,.87-5.94,1.5-8.97,1.94h-.05l-.06,.02c-.17,.02-.33,.04-.5,.06-.42,.05-.84,.1-1.26,.14-.86,.09-1.72,.16-2.58,.21-.59,.04-1.17,.06-1.76,.08,.13-.11,.25-.22,.38-.33,6.07-5.42,10.86-12.32,14.45-19.59"/><path class="cls-1" d="M139.72,110.11l.02-.02c-.62,.45-.19,.15-.02,.02Z"/><path class="cls-1" d="M153.59,38.29c8.92-1.75,15.3-9.97,15.39-18.94-.08-8.17-5.19-15.35-12.82-18.21-7.41-2.77-16.34-.35-21.34,5.77-5.16,6.32-6.05,15.37-1.77,22.42,4.27,7.02,12.52,10.53,20.54,8.95Z"/></g><g><path class="cls-1" d="M189.88,258.16c.91,1.81,1.81,3.62,2.72,5.44,.37,3.57,.74,7.13,1.11,10.7,.14,1.39,1.19,3.01,2.83,2.83,2.83-.31,5.66-.63,8.5-.94,1.39-.15,3.01-1.18,2.83-2.83-.44-4.11-.88-8.23-1.32-12.34-.06-.58-.12-1.16-.19-1.74,.7-4.18,1.22-8.4,1.5-12.62,.51-7.98,.13-16.07-1.59-23.9-1.88-8.53-5.54-16.59-11.09-23.36-6.57-8.02-15.67-13.5-25.38-16.88-1.23-.43-22.81-4.96-42.59,6.28-9.38,5.39-16.84,13.55-22.18,22.89-5.01,8.75-8.3,18.45-10.42,28.28-1.78,8.25-2.79,16.69-3.16,25.13-.17,3.99-.3,8.05,0,12.04,0,.06,0,.11,.01,.17,.1,1.4,1,2.61,2.46,2.78,1.51,.18,2.56-.69,3.11-2.03-.33,.81,0,.02,.17-.28,.15-.28,.69-1.09,.78-1.23,.21-.23,.4-.49,.61-.72,1.06-1.17,2.27-2.18,3.5-3.17h0l.04-.04c.16-.12,3.17-2.28,3.94-2.8,1.7-1.16,3.43-2.29,5.13-3.44,8.02-5.4,15.72-11.37,21.18-19.48,2.39-3.55,4.19-7.39,5.44-11.43,3.46-2.78,7.48-5.16,11.39-6.37,.94-.29,1.89-.53,2.85-.72,.33-.07,2.06-.29,2.38-.32,.86-.06,1.71-.08,2.57-.05,.46,.01,.92,.04,1.37,.08,.23,.02,.95,.11,1.04,.12,1.68,.3,3.33,.71,4.93,1.29,.35,.13,1.63,.67,1.76,.73,.86,.4,1.7,.85,2.53,1.32,.69,.4,3.75,2.5,3.89,2.6,1.32,1.04,2.58,2.14,3.79,3.32,1.15,1.12,2.26,2.3,3.31,3.52,.53,.61,2.43,3.01,2.65,3.3,1.56,2.12,3,4.33,4.28,6.63,1.31,2.55,2.46,4.99,3.34,7.25Zm-6.4-21.34c-7.09-8.14-17.02-14.9-28.23-14.48-5.58,.21-10.74,2.1-15.44,4.89,1.18-4.81,2.7-9.61,4.56-13.99,1.51-3.56,3.43-7.25,5.6-10.67,8.58,1.75,16.81,4.98,23.91,10.18,6.33,4.63,11.48,10.72,15.33,17.53,3.42,6.07,5.81,12.67,7.39,19.44,.69,2.96,1.2,5.85,1.58,8.76-.5,.22-1,.43-1.5,.65-.58-1.16-1.16-2.32-1.74-3.47-.29-.59-3-6.7-3.69-7.92-2.21-3.89-4.84-7.55-7.78-10.92Zm-13.24-48.14c.32,.12,.64,.25,.95,.37,.12,.05,.64,.26,.72,.29,2.37,1,4.69,2.17,6.9,3.49,1.07,.63,2.12,1.31,3.14,2.01,.45,.31,.89,.63,1.32,.95,.08,.06,.36,.27,.44,.33,.22,.17,.43,.34,.64,.51,1.78,1.44,3.46,3.01,5.01,4.69,.72,.78,1.42,1.59,2.09,2.42,.04,.04,.24,.31,.34,.43,.09,.12,.28,.37,.32,.42,.33,.45,.66,.9,.97,1.36,1.18,1.71,2.25,3.51,3.2,5.36,.48,.93,.92,1.87,1.34,2.83,.07,.15,.19,.44,.18,.44,.06,.16,.13,.31,.19,.47,.2,.5,.39,.99,.57,1.5,.69,1.89,1.28,3.82,1.77,5.77,.49,1.93,.88,3.88,1.2,5.84,.07,.43,.13,.87,.19,1.31,.01,.09,.03,.21,.04,.3,.03,.27,.07,.55,.1,.82,.11,.99,.21,1.97,.28,2.96,.29,3.76,.32,7.54,.14,11.3-.08,1.8-.22,3.6-.39,5.39-.08,.86-.78,6.15-.92,7.03l-.11,.05c-.3-2.15-.66-4.29-1.1-6.41-1.45-6.89-3.72-13.64-6.95-19.91-3.66-7.1-8.65-13.55-14.83-18.63-7.43-6.1-16.31-10.11-25.67-12.21-.21-.05-.43-.09-.64-.13,.47-.67,.95-1.33,1.44-1.98l.05-.07s.03-.04,.06-.07c.14-.17,.27-.35,.41-.52,.31-.39,.63-.78,.95-1.16,1.08-1.28,2.22-2.51,3.41-3.69,1-.99,2.05-1.93,3.14-2.83,.21-.17,.41-.33,.62-.5l-.08,.06c.12-.09,.23-.18,.35-.27,.4-.29,.79-.59,1.2-.87,.62-.43,1.26-.81,1.91-1.19,1.06,.32,2.11,.64,3.15,1.01,.66,.23,1.31,.47,1.96,.71Zm-72.62,68.65c.09-1.01,.2-2.01,.31-3.02,.06-.51,.12-1.01,.18-1.52,.03-.22,.05-.43,.08-.65,.02-.14,.04-.27,.05-.41h0c.3-2.15,.63-4.29,1.03-6.42,.86-4.64,1.95-9.23,3.35-13.74,.74-2.37,1.55-4.72,2.47-7.04,.21-.54,.43-1.07,.65-1.61h0c.04-.1,.09-.2,.13-.3,.14-.33,.28-.65,.43-.98,.5-1.12,1.03-2.24,1.58-3.34,1.12-2.24,2.35-4.43,3.69-6.54,.68-1.08,1.39-2.13,2.13-3.17,.34-.48,.7-.95,1.05-1.42l.02-.03c.09-.11,.17-.22,.26-.33,.2-.26,.41-.51,.62-.77,1.61-1.97,3.34-3.83,5.19-5.57,.95-.89,1.93-1.75,2.95-2.57,.23-.18,.46-.36,.69-.55h.01c.11-.09,.22-.17,.32-.25,.54-.41,1.1-.8,1.66-1.19,2.21-1.52,4.54-2.87,6.96-4.04,.62-.3,1.24-.58,1.86-.85,.06-.03,.12-.05,.19-.08,.07-.03,.18-.08,.24-.1,.37-.15,.75-.3,1.13-.45,1.33-.51,2.68-.97,4.05-1.37,2.94-.87,5.94-1.5,8.97-1.94h.05l.06-.02c.17-.02,.33-.04,.5-.06,.42-.05,.84-.1,1.26-.14,.86-.09,1.72-.16,2.58-.21,.59-.04,1.17-.06,1.76-.08-.13,.11-.25,.22-.38,.33-6.07,5.42-10.86,12.32-14.45,19.59-2.68,5.44-4.78,11.17-6.35,17.03-.8,2.97-1.26,6.04-2.08,9-.11,.24-.18,.51-.21,.78-.02,.06-.03,.11-.05,.17-.84,2.7-1.67,4.67-3.03,7.14-2.47,4.51-5.24,7.86-9.02,11.42-.85,.81-1.73,1.59-2.63,2.35-.8,.68-2.03,1.67-2.61,2.12-.52,.4-1.73,1.3-2.53,1.87-.92,.66-1.86,1.32-2.8,1.96-3.32,2.28-6.74,4.41-9.98,6.8-1.02,.75-2.04,1.52-3.01,2.34,.01-.61,.02-1.22,.04-1.83,.09-3.46,.3-6.91,.62-10.35Z"/><path class="cls-1" d="M159.58,189.19l-.02,.02c.62-.45,.19-.15,.02-.02Z"/><path class="cls-1" d="M145.71,261.01c-8.92,1.75-15.3,9.97-15.39,18.94,.08,8.17,5.19,15.35,12.82,18.21,7.41,2.77,16.34,.35,21.34-5.77,5.16-6.32,6.05-15.37,1.77-22.42-4.27-7.02-12.52-10.53-20.54-8.95Z"/></g></g><g><g><path class="cls-1" d="M258.16,109.43c1.81-.91,3.62-1.81,5.44-2.72,3.57-.37,7.13-.74,10.7-1.11,1.39-.14,3.01-1.19,2.83-2.83-.31-2.83-.63-5.66-.94-8.5-.15-1.39-1.18-3.01-2.83-2.83-4.11,.44-8.23,.88-12.34,1.32-.58,.06-1.16,.12-1.74,.19-4.18-.7-8.4-1.22-12.62-1.5-7.98-.51-16.07-.13-23.9,1.59-8.53,1.88-16.59,5.54-23.36,11.09-8.02,6.57-13.5,15.67-16.88,25.38-.43,1.23-4.96,22.81,6.28,42.59,5.39,9.38,13.55,16.84,22.89,22.18,8.75,5.01,18.45,8.3,28.28,10.42,8.25,1.78,16.69,2.79,25.13,3.16,3.99,.17,8.05,.3,12.04,0,.06,0,.11,0,.17-.01,1.4-.1,2.61-1,2.78-2.46,.18-1.51-.69-2.56-2.03-3.11,.81,.33,.02,0-.28-.17-.28-.15-1.09-.69-1.23-.78-.23-.21-.49-.4-.72-.61-1.17-1.06-2.18-2.27-3.17-3.5h0l-.03-.05c-.12-.16-2.28-3.17-2.8-3.94-1.16-1.7-2.29-3.43-3.44-5.13-5.4-8.02-11.37-15.72-19.48-21.18-3.55-2.39-7.39-4.19-11.43-5.44-2.78-3.46-5.16-7.48-6.37-11.39-.29-.94-.53-1.89-.72-2.85-.07-.33-.29-2.06-.32-2.38-.06-.86-.08-1.71-.05-2.57,.01-.46,.04-.92,.08-1.37,.02-.23,.11-.95,.12-1.04,.3-1.68,.71-3.33,1.29-4.93,.13-.35,.67-1.63,.73-1.76,.4-.86,.85-1.7,1.32-2.53,.4-.69,2.5-3.75,2.6-3.89,1.04-1.32,2.14-2.58,3.32-3.79,1.12-1.15,2.3-2.26,3.52-3.31,.61-.53,3.01-2.43,3.3-2.65,2.12-1.56,4.33-3,6.63-4.28,2.55-1.31,4.99-2.46,7.25-3.34Zm-21.34,6.4c-8.14,7.09-14.9,17.02-14.48,28.23,.21,5.58,2.1,10.74,4.89,15.44-4.81-1.18-9.61-2.7-13.99-4.56-3.56-1.51-7.25-3.43-10.67-5.6,1.75-8.58,4.98-16.81,10.18-23.91,4.63-6.33,10.72-11.48,17.53-15.33,6.07-3.42,12.67-5.81,19.44-7.39,2.96-.69,5.85-1.2,8.76-1.58,.22,.5,.43,1,.65,1.5-1.16,.58-2.32,1.16-3.47,1.74-.59,.29-6.7,3-7.92,3.69-3.89,2.21-7.55,4.84-10.92,7.78Zm-48.14,13.24c.12-.32,.25-.64,.37-.95,.05-.12,.26-.64,.29-.72,1-2.37,2.17-4.69,3.49-6.9,.63-1.07,1.31-2.12,2.01-3.14,.31-.45,.63-.89,.95-1.32,.06-.08,.27-.36,.33-.44,.17-.22,.34-.43,.51-.64,1.44-1.78,3.01-3.46,4.69-5.01,.78-.72,1.59-1.42,2.42-2.09,.04-.04,.31-.24,.43-.34,.12-.09,.37-.28,.42-.32,.45-.33,.9-.66,1.36-.97,1.71-1.18,3.51-2.25,5.36-3.2,.93-.48,1.87-.92,2.83-1.34,.15-.07,.44-.19,.44-.18,.16-.06,.31-.13,.47-.19,.5-.2,.99-.39,1.5-.57,1.89-.69,3.82-1.28,5.77-1.77,1.93-.49,3.88-.88,5.84-1.2,.43-.07,.87-.13,1.31-.19,.09-.01,.21-.03,.3-.04,.27-.03,.55-.07,.82-.1,.99-.11,1.97-.21,2.96-.28,3.76-.29,7.54-.32,11.3-.14,1.8,.08,3.6,.22,5.39,.39,.86,.08,6.15,.78,7.03,.92l.05,.11c-2.15,.3-4.29,.66-6.41,1.1-6.89,1.45-13.64,3.72-19.91,6.95-7.1,3.66-13.55,8.65-18.63,14.83-6.1,7.43-10.11,16.31-12.21,25.67-.05,.21-.09,.43-.13,.64-.67-.47-1.33-.95-1.98-1.44l-.07-.05s-.04-.03-.07-.06c-.17-.14-.35-.27-.52-.41-.39-.31-.78-.63-1.16-.95-1.28-1.08-2.51-2.22-3.69-3.41-.99-1-1.93-2.05-2.83-3.14-.17-.21-.33-.41-.5-.62l.06,.08c-.09-.12-.18-.23-.27-.35-.29-.4-.59-.79-.87-1.2-.43-.62-.81-1.26-1.19-1.91,.32-1.06,.64-2.11,1.01-3.15,.23-.66,.47-1.31,.71-1.96Zm68.65,72.62c-1.01-.09-2.01-.2-3.02-.31-.51-.06-1.01-.12-1.52-.18-.22-.03-.43-.05-.65-.08-.14-.02-.27-.04-.41-.05h0c-2.15-.3-4.28-.63-6.42-1.03-4.64-.86-9.23-1.95-13.74-3.35-2.37-.74-4.72-1.55-7.04-2.47-.54-.21-1.07-.43-1.61-.65h0c-.1-.04-.2-.09-.3-.13-.33-.14-.65-.28-.98-.43-1.12-.5-2.24-1.03-3.34-1.58-2.24-1.12-4.43-2.35-6.54-3.69-1.08-.68-2.13-1.39-3.17-2.13-.48-.34-.95-.7-1.42-1.05l-.03-.02c-.11-.09-.22-.17-.33-.26-.26-.2-.51-.41-.77-.62-1.97-1.61-3.83-3.34-5.57-5.19-.89-.95-1.75-1.93-2.57-2.95-.18-.23-.36-.46-.55-.69h0c-.08-.12-.16-.23-.24-.34-.41-.54-.8-1.1-1.19-1.66-1.52-2.21-2.87-4.54-4.04-6.96-.3-.62-.58-1.24-.85-1.86-.03-.06-.05-.12-.08-.19-.03-.07-.08-.18-.1-.24-.15-.37-.3-.75-.45-1.13-.51-1.33-.97-2.68-1.37-4.05-.87-2.94-1.5-5.94-1.94-8.97v-.05l-.02-.06c-.02-.17-.04-.33-.06-.5-.05-.42-.1-.84-.14-1.26-.09-.86-.16-1.72-.21-2.58-.04-.59-.06-1.17-.08-1.76,.11,.13,.22,.25,.33,.38,5.42,6.07,12.32,10.86,19.59,14.45,5.44,2.68,11.17,4.78,17.03,6.35,2.97,.8,6.04,1.26,9,2.08,.24,.11,.51,.18,.78,.21,.06,.02,.11,.03,.17,.05,2.7,.84,4.67,1.67,7.14,3.03,4.51,2.47,7.86,5.24,11.42,9.02,.81,.85,1.59,1.73,2.35,2.63,.68,.8,1.67,2.03,2.12,2.61,.4,.52,1.3,1.73,1.87,2.53,.66,.92,1.32,1.86,1.96,2.8,2.28,3.32,4.41,6.74,6.8,9.98,.75,1.02,1.52,2.04,2.34,3.01-.61-.01-1.22-.02-1.83-.04-3.46-.09-6.91-.3-10.35-.62Z"/><path class="cls-1" d="M189.19,139.72l.02,.02c-.45-.62-.15-.19-.02-.02Z"/><path class="cls-1" d="M261.01,153.59c1.75,8.92,9.97,15.3,18.94,15.39,8.17-.08,15.35-5.19,18.21-12.82,2.77-7.41,.35-16.34-5.77-21.34-6.32-5.16-15.37-6.05-22.42-1.77-7.02,4.27-10.53,12.52-8.95,20.54Z"/></g><g><path class="cls-1" d="M41.15,189.88c-1.81,.91-3.62,1.81-5.44,2.72-3.57,.37-7.13,.74-10.7,1.11-1.39,.14-3.01,1.19-2.83,2.83,.31,2.83,.63,5.66,.94,8.5,.15,1.39,1.18,3.01,2.83,2.83,4.11-.44,8.23-.88,12.34-1.32,.58-.06,1.16-.12,1.74-.19,4.18,.7,8.4,1.22,12.62,1.5,7.98,.51,16.07,.13,23.9-1.59,8.53-1.88,16.59-5.54,23.36-11.09,8.02-6.57,13.5-15.67,16.88-25.38,.43-1.23,4.96-22.81-6.28-42.59-5.39-9.38-13.55-16.84-22.89-22.18-8.75-5.01-18.45-8.3-28.28-10.42-8.25-1.78-16.69-2.79-25.13-3.16-3.99-.17-8.05-.3-12.04,0-.06,0-.11,0-.17,.01-1.4,.1-2.61,1-2.78,2.46-.18,1.51,.69,2.56,2.03,3.11-.81-.33-.02,0,.28,.17,.28,.15,1.09,.69,1.23,.78,.23,.21,.49,.4,.72,.61,1.17,1.06,2.18,2.27,3.17,3.5h0l.03,.05c.12,.16,2.28,3.17,2.8,3.94,1.16,1.7,2.29,3.43,3.44,5.13,5.4,8.02,11.37,15.72,19.48,21.18,3.55,2.39,7.39,4.19,11.43,5.44,2.78,3.46,5.16,7.48,6.37,11.39,.29,.94,.53,1.89,.72,2.85,.07,.33,.29,2.06,.32,2.38,.06,.86,.08,1.71,.05,2.57-.01,.46-.04,.92-.08,1.37-.02,.23-.11,.95-.12,1.04-.3,1.68-.71,3.33-1.29,4.93-.13,.35-.67,1.63-.73,1.76-.4,.86-.85,1.7-1.32,2.53-.4,.69-2.5,3.75-2.6,3.89-1.04,1.32-2.14,2.58-3.32,3.79-1.12,1.15-2.3,2.26-3.52,3.31-.61,.53-3.01,2.43-3.3,2.65-2.12,1.56-4.33,3-6.63,4.28-2.55,1.31-4.99,2.46-7.25,3.34Zm21.34-6.4c8.14-7.09,14.9-17.02,14.48-28.23-.21-5.58-2.1-10.74-4.89-15.44,4.81,1.18,9.61,2.7,13.99,4.56,3.56,1.51,7.25,3.43,10.67,5.6-1.75,8.58-4.98,16.81-10.18,23.91-4.63,6.33-10.72,11.48-17.53,15.33-6.07,3.42-12.67,5.81-19.44,7.39-2.96,.69-5.85,1.2-8.76,1.58-.22-.5-.43-1-.65-1.5,1.16-.58,2.32-1.16,3.47-1.74,.59-.29,6.7-3,7.92-3.69,3.89-2.21,7.55-4.84,10.92-7.78Zm48.14-13.24c-.12,.32-.25,.64-.37,.95-.05,.12-.26,.64-.29,.72-1,2.37-2.17,4.69-3.49,6.9-.63,1.07-1.31,2.12-2.01,3.14-.31,.45-.63,.89-.95,1.32-.06,.08-.27,.36-.33,.44-.17,.22-.34,.43-.51,.64-1.44,1.78-3.01,3.46-4.69,5.01-.78,.72-1.59,1.42-2.42,2.09-.04,.04-.31,.24-.43,.34-.12,.09-.37,.28-.42,.32-.45,.33-.9,.66-1.36,.97-1.71,1.18-3.51,2.25-5.36,3.2-.93,.48-1.87,.92-2.83,1.34-.15,.07-.44,.19-.44,.18-.16,.06-.31,.13-.47,.19-.5,.2-.99,.39-1.5,.57-1.89,.69-3.82,1.28-5.77,1.77-1.93,.49-3.88,.88-5.84,1.2-.43,.07-.87,.13-1.31,.19-.09,.01-.21,.03-.3,.04-.27,.03-.55,.07-.82,.1-.99,.11-1.97,.21-2.96,.28-3.76,.29-7.54,.32-11.3,.14-1.8-.08-3.6-.22-5.39-.39-.86-.08-6.15-.78-7.03-.92l-.05-.11c2.15-.3,4.29-.66,6.41-1.1,6.89-1.45,13.64-3.72,19.91-6.95,7.1-3.66,13.55-8.65,18.63-14.83,6.1-7.43,10.11-16.31,12.21-25.67,.05-.21,.09-.43,.13-.64,.67,.47,1.33,.95,1.98,1.44l.07,.05s.04,.03,.07,.06c.17,.14,.35,.27,.52,.41,.39,.31,.78,.63,1.16,.95,1.28,1.08,2.51,2.22,3.69,3.41,.99,1,1.93,2.05,2.83,3.14,.17,.21,.33,.41,.5,.62l-.06-.08c.09,.12,.18,.23,.27,.35,.29,.4,.59,.79,.87,1.2,.43,.62,.81,1.26,1.19,1.91-.32,1.06-.64,2.11-1.01,3.15-.23,.66-.47,1.31-.71,1.96ZM41.98,97.62c1.01,.09,2.01,.2,3.02,.31,.51,.06,1.01,.12,1.52,.18,.22,.03,.43,.05,.65,.08,.14,.02,.27,.04,.41,.05h0c2.15,.3,4.28,.63,6.42,1.03,4.64,.86,9.23,1.95,13.74,3.35,2.37,.74,4.72,1.55,7.04,2.47,.54,.21,1.07,.43,1.61,.65h0c.1,.04,.2,.09,.3,.13,.33,.14,.65,.28,.98,.43,1.12,.5,2.24,1.03,3.34,1.58,2.24,1.12,4.43,2.35,6.54,3.69,1.08,.68,2.13,1.39,3.17,2.13,.48,.34,.95,.7,1.42,1.05l.03,.02c.11,.09,.22,.17,.33,.26,.26,.2,.51,.41,.77,.62,1.97,1.61,3.83,3.34,5.57,5.19,.89,.95,1.75,1.93,2.57,2.95,.18,.23,.36,.46,.55,.69h0c.08,.12,.16,.23,.24,.34,.41,.54,.8,1.1,1.19,1.66,1.52,2.21,2.87,4.54,4.04,6.96,.3,.62,.58,1.24,.85,1.86,.03,.06,.05,.12,.08,.19,.03,.07,.08,.18,.1,.24,.15,.37,.3,.75,.45,1.13,.51,1.33,.97,2.68,1.37,4.05,.87,2.94,1.5,5.94,1.94,8.97v.05l.02,.06c.02,.17,.04,.33,.06,.5,.05,.42,.1,.84,.14,1.26,.09,.86,.16,1.72,.21,2.58,.04,.59,.06,1.17,.08,1.76-.11-.13-.22-.25-.33-.38-5.42-6.07-12.32-10.86-19.59-14.45-5.44-2.68-11.17-4.78-17.03-6.35-2.97-.8-6.04-1.26-9-2.08-.24-.11-.51-.18-.78-.21-.06-.02-.11-.03-.17-.05-2.7-.84-4.67-1.67-7.14-3.03-4.51-2.47-7.86-5.24-11.42-9.02-.81-.85-1.59-1.73-2.35-2.63-.68-.8-1.67-2.03-2.12-2.61-.4-.52-1.3-1.73-1.87-2.53-.66-.92-1.32-1.86-1.96-2.8-2.28-3.32-4.41-6.74-6.8-9.98-.75-1.02-1.52-2.04-2.34-3.01,.61,.01,1.22,.02,1.83,.04,3.46,.09,6.91,.3,10.35,.62Z"/><path class="cls-1" d="M110.11,159.58l-.02-.02c.45,.62,.15,.19,.02,.02Z"/><path class="cls-1" d="M38.29,145.71c-1.75-8.92-9.97-15.3-18.94-15.39-8.17,.08-15.35,5.19-18.21,12.82-2.77,7.41-.35,16.34,5.77,21.34,6.32,5.16,15.37,6.05,22.42,1.77,7.02-4.27,10.53-12.52,8.95-20.54Z"/></g></g></g></g></g></svg>