<?xml version="1.0" encoding="UTF-8"?><svg id="Capa_2" xmlns="http://www.w3.org/2000/svg" viewBox="0 0 367.13 287.28"><defs><style>.cls-1,.cls-2{fill:#fff;}.cls-3{fill:#f39200;}.cls-2{font-family:Montserrat-Bold, Montserrat;font-size:79.62px;font-weight:700;}.cls-4{fill:#f9b233;}</style></defs><g id="Capa_1-2"><g><g><g><path class="cls-1" d="M254.28,.7c-11.72,0-24.51-.15-33.79-.15h-81.51C57.49,.55,0,53.6,0,144.03c0,13.8,1.48,26.77,4.29,38.79,.01,.03,.01,.07,.03,.12,3.55,15.26,9.23,28.98,16.65,41.05,.36,.57,.73,1.15,1.09,1.73,1.62,2.55,3.33,5.01,5.11,7.38,.31,.42,.61,.83,.93,1.25,.38,.49,.77,.99,1.16,1.5,21.27,26.6,78.39,61.11,156.42-1.5,4.12-3.29,8.02-6.96,11.66-11.03-24.05,15.08-44.08,20.64-59.36,21.94-2.24,.25-4.51,.36-6.81,.36-1.6,0-3.2-.04-4.79-.16-.06,0-.12-.01-.16-.01-8.02-.54-15.62-2.42-22.69-5.44l-.03-.03c-21.2-9.11-37.67-28.72-46.39-54.5-4.44-13.14-6.87-27.89-6.87-43.69,0-39.33,15.07-80.34,47.79-96.83,4.22-2.14,8.72-3.86,13.52-5.11,.04-.01,.07-.03,.13-.03,.39-.1,.82-.22,1.22-.31,.12-.03,.22-.06,.33-.07,.54-.13,1.06-.25,1.59-.36,.48-.1,.96-.19,1.46-.29,8.36-1.69,19.91-2.98,35.4-2.77,7.73,.12,15.94,.32,24.14,.55,1.6-10.67,10.79-18.84,21.91-18.84s20.29,8.15,21.89,18.81c8.33,.32,15.58,.52,21.97,.67,21.15,.47,38.81-16.06,39.76-37.21-4.99,.55-15.5,.7-27.06,.7Z"/><path class="cls-4" d="M280.41,198.21c-.67,2.59-1.43,5.18-2.24,7.74-10.06,31.18-30.16,55.91-56.69,69.79-.39,.2-.8,.42-1.21,.63-23.12,11.72-49.07,14.06-73.54,6.73-.8-.23-1.59-.49-2.39-.74-.54-.19-1.08-.36-1.62-.55-2.49-.86-4.11-2.62-4.98-4.72-.82-1.95-.98-4.16-.55-6.19,.29-1.48,1.44-2.61,2.85-2.77,23.89-2.65,46.26-13.79,64.12-31.73,3-3.03,5.88-6.23,8.62-9.62,19.14-23.79,29.54-54.46,29.29-86.4-.13-15.08-2.65-30.09-7.38-44.14-1.63-4.83-3.51-9.55-5.65-14.12-4.35-9.3-9.77-18.01-16.01-25.85-.06-.07-.12-.15-.17-.22,1.94-1.79,3.54-3.93,4.72-6.33,24.4,11.73,44.63,33.09,56.32,60.32,2.78,6.51,5.05,13.17,6.77,19.97,5.65,22.21,5.59,45.68-.26,68.2Z"/><path class="cls-4" d="M219.78,170.13c-.83,1.97-1.7,3.9-2.63,5.82-11.31,23.31-29.22,40.48-50.44,48.49-.33,.12-.66,.23-.98,.35-18.47,6.68-37.85,5.72-54.91-2.66-.57-.28-1.11-.55-1.66-.84-.38-.2-.74-.39-1.12-.6-1.72-.95-2.68-2.5-3.06-4.24-.36-1.6-.2-3.36,.36-4.89,.41-1.14,1.38-1.88,2.45-1.85,17.89,.49,35.75-5.81,51.12-17.93,2.59-2.04,5.11-4.24,7.56-6.59,17.08-16.54,28.58-39.42,32.4-64.44,1.81-11.81,1.83-23.82,.13-35.32-.6-3.96-1.38-7.85-2.37-11.66-1.11-4.22-2.46-8.36-4.08-12.33,1.66,.41,3.39,.61,5.17,.61,3.09,0,6.04-.63,8.71-1.79,9.26,10.93,16.11,24.7,19.65,40.19,1.24,5.39,2.05,10.86,2.46,16.36,1.35,17.98-1.64,36.33-8.76,53.32Z"/></g><path class="cls-3" d="M213.45,36.42c-1.59-7.22-8.04-12.64-15.72-12.64s-14.34,5.59-15.78,12.97c-.22,1.02-.32,2.07-.32,3.13,0,5.63,2.9,10.6,7.29,13.47,2.53,1.67,5.56,2.63,8.81,2.63,1.47,0,2.88-.2,4.24-.57,2.68-.73,5.07-2.13,7-4,1.24-1.22,2.29-2.62,3.07-4.18,1.15-2.2,1.79-4.7,1.79-7.35,0-1.19-.13-2.34-.38-3.46Zm-15.72,13.74c-.6,0-1.18-.06-1.75-.16-3.14-.54-5.81-2.52-7.29-5.23h0c-.79-1.47-1.24-3.13-1.24-4.89,0-1.12,.19-2.21,.54-3.23,1.34-4.09,5.21-7.05,9.74-7.05s8.2,2.81,9.64,6.74c.42,1.11,.64,2.3,.64,3.54,0,5.66-4.61,10.28-10.28,10.28Z"/></g><text class="cls-2" transform="translate(299.93 108.87)"><tspan x="0" y="0">O</tspan><tspan x="6.89" y="65.8">E</tspan><tspan x="3.15" y="131.6">B</tspan></text></g></g></svg>