<?xml version="1.0" encoding="UTF-8"?><svg id="Capa_2" xmlns="http://www.w3.org/2000/svg" viewBox="0 0 863.04 307.22"><defs><style>.cls-1{fill:#fff;}.cls-2{fill:#f39200;}.cls-3{fill:#f9b233;}</style></defs><g id="Capa_1-2"><g><g><g><path class="cls-1" d="M271.69,.75c-12.45,0-26.04-.15-35.89-.15h-87.17C61.49,.59,0,57.3,0,154.01c0,14.78,1.59,28.64,4.58,41.5,.02,.02,.02,.07,.02,.13,3.81,16.3,9.87,31,17.82,43.88,.37,.62,.77,1.23,1.17,1.87,1.74,2.71,3.55,5.33,5.46,7.89,.33,.44,.66,.88,.99,1.32,.42,.55,.82,1.08,1.26,1.61,22.73,28.44,83.82,65.36,167.27-1.61,4.41-3.5,8.57-7.42,12.47-11.79-25.71,16.13-47.12,22.07-63.47,23.46-2.4,.26-4.85,.37-7.29,.37-1.72,0-3.44-.04-5.13-.15-.07,0-.13-.02-.18-.02-8.57-.57-16.7-2.58-24.25-5.84h-.04c-22.67-9.76-40.29-30.73-49.61-58.29-4.76-14.05-7.34-29.83-7.34-46.73,0-42.08,16.08-85.94,51.09-103.58,4.52-2.27,9.34-4.1,14.47-5.44,.04-.02,.09-.02,.13-.04,.42-.11,.88-.22,1.3-.31,.13-.04,.24-.07,.37-.09,.57-.13,1.12-.26,1.7-.4,.51-.09,1.01-.2,1.54-.31,8.94-1.81,21.3-3.19,37.87-2.95,9.01,.13,18.59,.37,28.13,.66,4.01-9.1,13.13-15.44,23.7-15.44s19.67,6.34,23.7,15.44c7.71,.29,14.52,.48,20.62,.62,22.62,.48,41.48-17.18,42.5-39.79-5.35,.59-16.7,.75-29.17,.75Z"/><path class="cls-3" d="M299.89,211.97c-.73,2.78-1.54,5.55-2.4,8.28-10.77,33.35-32.27,59.79-60.63,74.64-.44,.22-.86,.44-1.3,.66-24.72,12.53-52.48,15.05-78.65,7.18-.86-.24-1.7-.51-2.56-.79-.57-.2-1.15-.37-1.74-.57-2.64-.93-4.38-2.82-5.31-5.07-.88-2.07-1.04-4.45-.59-6.61,.31-1.59,1.54-2.78,3.04-2.95,25.55-2.82,49.5-14.74,68.58-33.95,3.22-3.24,6.3-6.65,9.23-10.29,20.47-25.42,31.59-58.25,31.33-92.39-.13-16.13-2.84-32.16-7.91-47.21-1.74-5.16-3.75-10.2-6.04-15.09-3.37-7.25-7.36-14.12-11.85-20.58,2.75-3.02,4.85-6.7,5.95-10.77,23.24,13.04,42.41,34.5,53.86,61.2,3,6.96,5.42,14.1,7.25,21.37,6.04,23.75,5.97,48.84-.26,72.94Z"/><path class="cls-3" d="M235.04,181.94c-.88,2.09-1.83,4.16-2.82,6.21-12.09,24.94-31.24,43.31-53.95,51.86-.35,.13-.68,.26-1.04,.37-19.76,7.14-40.47,6.12-58.73-2.84-.59-.29-1.17-.59-1.76-.9-.4-.22-.79-.42-1.21-.64-1.83-1.01-2.86-2.67-3.26-4.54-.4-1.72-.2-3.59,.4-5.22,.42-1.21,1.48-2.03,2.6-1.98,19.14,.53,38.24-6.21,54.7-19.17,2.75-2.18,5.46-4.54,8.06-7.07,18.26-17.69,30.56-42.17,34.65-68.91,1.94-12.62,1.98-25.47,.15-37.78-.64-4.23-1.48-8.39-2.56-12.47-.33-1.26-.68-2.51-1.06-3.74,1.56,.31,3.17,.46,4.82,.46,4.6,0,8.92-1.21,12.67-3.3,6.9,10.18,12.09,22.07,15.07,35.14,1.32,5.75,2.2,11.61,2.64,17.49,1.45,19.23-1.76,38.86-9.38,57.04Z"/><path class="cls-1" d="M134.98,262.49c-15.25-.84-23.7-5.52-24.26-5.83,7.56,3.25,15.69,5.25,24.26,5.83Z"/></g><g><path class="cls-1" d="M416.01,84.95c-1.89-2.49-4.52-4.25-7.86-5.33,2.45-1.28,4.36-3.04,5.73-5.27,1.37-2.25,2.05-4.78,2.05-7.64,0-4.69-1.89-8.39-5.73-11.15-3.83-2.73-9.32-4.1-16.48-4.1h-28.66v58.67h30.34c7.67,0,13.48-1.39,17.49-4.14,3.99-2.78,5.99-6.72,5.99-11.87,0-3.61-.97-6.68-2.86-9.16Zm-37.45-23.26h13.48c3.35,0,5.9,.57,7.62,1.72,1.74,1.15,2.6,2.86,2.6,5.15s-.86,4.03-2.6,5.2c-1.72,1.17-4.27,1.76-7.62,1.76h-13.48v-13.83Zm23.92,36.46c-1.83,1.17-4.52,1.76-8.09,1.76h-15.84v-14.5h15.84c7.2,0,10.79,2.42,10.79,7.29,0,2.45-.9,4.27-2.71,5.44Z"/><path class="cls-1" d="M462.54,69.35c-3.74-3.33-9.12-4.98-16.1-4.98-3.63,0-7.16,.48-10.6,1.43s-6.39,2.29-8.83,4.01l4.69,9.14c1.61-1.28,3.59-2.31,5.9-3.06,2.31-.75,4.67-1.12,7.07-1.12,3.46,0,6.06,.77,7.8,2.29,1.74,1.54,2.6,3.75,2.6,6.59h-10.4c-6.59,0-11.46,1.19-14.63,3.61-3.15,2.4-4.71,5.68-4.71,9.87,0,2.64,.66,4.98,2,7.05,1.34,2.07,3.28,3.68,5.82,4.87,2.56,1.17,5.55,1.74,9.01,1.74,6.7,0,11.28-2.09,13.75-6.28v5.62h12.23v-25.73c0-6.7-1.87-11.72-5.6-15.05Zm-7.47,26.52c-.73,2.03-1.96,3.55-3.68,4.58-1.74,1.04-3.72,1.54-5.97,1.54s-4.08-.48-5.4-1.48c-1.3-.97-1.96-2.29-1.96-3.97,0-3.52,2.69-5.29,8.04-5.29h8.97v4.6Z"/><path class="cls-1" d="M520.9,69.39c-3.44-3.35-7.95-5.02-13.53-5.02-3.08,0-5.9,.51-8.46,1.54-2.58,1.04-4.74,2.51-6.45,4.41v-5.29h-12.49v45.09h13.06v-22.29c0-4.01,.99-7.05,2.93-9.1,1.96-2.03,4.58-3.04,7.89-3.04,2.97,0,5.22,.86,6.79,2.62,1.56,1.76,2.36,4.43,2.36,8.02v23.79h13.06v-25.82c0-6.59-1.72-11.57-5.15-14.91Z"/><path class="cls-1" d="M572.16,69.35c-3.75-3.33-9.12-4.98-16.1-4.98-3.63,0-7.16,.48-10.6,1.43-3.44,.95-6.39,2.29-8.83,4.01l4.69,9.14c1.61-1.28,3.57-2.31,5.9-3.06,2.31-.75,4.67-1.12,7.07-1.12,3.46,0,6.06,.77,7.8,2.29,1.74,1.54,2.6,3.75,2.6,6.59h-10.4c-6.59,0-11.46,1.19-14.63,3.61-3.15,2.4-4.74,5.68-4.74,9.87,0,2.64,.68,4.98,2.03,7.05,1.34,2.07,3.28,3.68,5.82,4.87,2.53,1.17,5.55,1.74,9.01,1.74,6.7,0,11.28-2.09,13.75-6.28v5.62h12.23v-25.73c0-6.7-1.87-11.72-5.6-15.05Zm-7.47,26.52c-.73,2.03-1.96,3.55-3.68,4.58-1.74,1.04-3.72,1.54-5.97,1.54s-4.08-.48-5.4-1.48c-1.32-.97-1.96-2.29-1.96-3.97,0-3.52,2.67-5.29,8.04-5.29h8.97v4.6Z"/><path class="cls-1" d="M630.52,69.39c-3.44-3.35-7.95-5.02-13.53-5.02-3.08,0-5.9,.51-8.46,1.54-2.58,1.04-4.74,2.51-6.45,4.41v-5.29h-12.49v45.09h13.06v-22.29c0-4.01,.99-7.05,2.93-9.1,1.96-2.03,4.58-3.04,7.89-3.04,2.97,0,5.22,.86,6.79,2.62,1.56,1.76,2.36,4.43,2.36,8.02v23.79h13.06v-25.82c0-6.59-1.72-11.57-5.15-14.91Z"/><path class="cls-1" d="M681.78,69.35c-3.75-3.33-9.12-4.98-16.1-4.98-3.64,0-7.16,.48-10.6,1.43s-6.39,2.29-8.83,4.01l4.69,9.14c1.61-1.28,3.57-2.31,5.9-3.06,2.31-.75,4.67-1.12,7.07-1.12,3.46,0,6.06,.77,7.8,2.29,1.74,1.54,2.6,3.75,2.6,6.59h-10.4c-6.59,0-11.46,1.19-14.63,3.61-3.15,2.4-4.74,5.68-4.74,9.87,0,2.64,.68,4.98,2.03,7.05,1.34,2.07,3.28,3.68,5.82,4.87,2.53,1.17,5.55,1.74,9.01,1.74,6.7,0,11.28-2.09,13.75-6.28v5.62h12.23v-25.73c0-6.7-1.87-11.72-5.6-15.05Zm-7.47,26.52c-.73,2.03-1.96,3.55-3.68,4.58-1.74,1.04-3.72,1.54-5.97,1.54s-4.08-.48-5.4-1.48c-1.32-.97-1.96-2.29-1.96-3.97,0-3.52,2.67-5.29,8.04-5.29h8.97v4.6Z"/><path class="cls-1" d="M402.15,156.04c-1.83-2.03-4.01-3.55-6.59-4.56-2.58-1.01-6.01-2.03-10.31-3.11-3.86-.95-6.9-1.83-9.14-2.67-2.23-.84-4.1-2.05-5.62-3.61-1.5-1.56-2.25-3.66-2.25-6.28,0-3.46,1.39-6.3,4.19-8.48,2.8-2.16,6.9-3.26,12.31-3.26,2.73,0,5.53,.42,8.35,1.26,2.82,.84,5.4,2.07,7.75,3.7l1.59-3.44c-2.29-1.63-5-2.91-8.13-3.86s-6.32-1.43-9.56-1.43c-4.63,0-8.5,.7-11.61,2.09-3.08,1.39-5.4,3.28-6.92,5.66-1.5,2.38-2.25,4.98-2.25,7.82,0,3.52,.9,6.34,2.71,8.44,1.83,2.09,4.03,3.63,6.63,4.65,2.6,1.01,6.04,2.05,10.35,3.11,3.79,.88,6.81,1.76,9.05,2.6,2.23,.84,4.1,2.03,5.62,3.59,1.5,1.56,2.25,3.66,2.25,6.3,0,3.39-1.43,6.17-4.27,8.28-2.84,2.14-7.07,3.19-12.65,3.19-3.86,0-7.53-.68-11.04-2.05-3.48-1.39-6.26-3.15-8.33-5.33l-1.94,3.19c2.18,2.34,5.22,4.25,9.1,5.73,3.88,1.48,7.97,2.23,12.27,2.23,4.65,0,8.57-.7,11.74-2.09,3.19-1.39,5.55-3.28,7.09-5.62,1.52-2.36,2.29-4.93,2.29-7.8,0-3.46-.9-6.21-2.71-8.26Z"/><path class="cls-1" d="M437.97,173.68c-1.78,1.63-4.05,2.45-6.79,2.45s-4.71-.75-6.08-2.23-2.05-3.66-2.05-6.5v-28.15h13.9v-3.61h-13.9v-9.56h-4.19v9.56h-8.06v3.61h8.06v28.57c0,3.75,1.01,6.65,3.08,8.77,2.07,2.09,5,3.13,8.81,3.13,1.72,0,3.39-.26,4.98-.79,1.59-.53,2.93-1.3,3.99-2.31l-1.76-2.93Z"/><path class="cls-1" d="M478.62,139.45c-2.91-2.75-7.07-4.14-12.49-4.14-3.35,0-6.56,.55-9.63,1.63-3.08,1.1-5.71,2.62-7.89,4.56l2.09,3.02c1.85-1.67,4.1-3.02,6.74-4.01,2.67-1.01,5.44-1.52,8.35-1.52,4.25,0,7.47,1.08,9.67,3.19,2.2,2.11,3.33,5.22,3.33,9.3v3.52h-15c-5.71,0-9.85,1.12-12.45,3.39-2.6,2.27-3.9,5.2-3.9,8.83s1.41,6.76,4.23,9.05c2.82,2.29,6.65,3.44,11.52,3.44,3.74,0,6.96-.7,9.65-2.14,2.67-1.43,4.71-3.41,6.1-5.99v7.8h4.03v-27.74c0-5.38-1.45-9.43-4.36-12.2Zm.18,27.03c-1.3,3.19-3.22,5.62-5.75,7.29-2.53,1.67-5.64,2.51-9.25,2.51-3.86,0-6.85-.82-8.97-2.47-2.14-1.65-3.19-3.9-3.19-6.74s.97-4.89,2.89-6.45c1.94-1.56,5.04-2.36,9.34-2.36h14.94v8.22Z"/><path class="cls-1" d="M520.19,173.68c-1.78,1.63-4.05,2.45-6.79,2.45s-4.71-.75-6.08-2.23c-1.37-1.48-2.05-3.66-2.05-6.5v-28.15h13.9v-3.61h-13.9v-9.56h-4.19v9.56h-8.06v3.61h8.06v28.57c0,3.75,1.01,6.65,3.08,8.77,2.07,2.09,5,3.13,8.81,3.13,1.72,0,3.39-.26,4.98-.79,1.59-.53,2.93-1.3,3.99-2.31l-1.76-2.93Z"/><path class="cls-1" d="M538.12,119.18c-.66-.66-1.48-.97-2.42-.97s-1.76,.33-2.45,.99c-.66,.68-.99,1.5-.99,2.45s.33,1.74,.99,2.38c.68,.64,1.5,.97,2.45,.97s1.76-.33,2.42-1.01c.66-.66,1.01-1.48,1.01-2.42s-.35-1.74-1.01-2.38Zm-4.52,16.46v43.75h4.19v-43.75h-4.19Z"/><path class="cls-1" d="M581.61,161.28c-1.45-1.56-3.22-2.69-5.31-3.39-2.09-.7-4.85-1.34-8.26-1.96-3.06-.62-5.46-1.19-7.16-1.72-1.72-.53-3.15-1.34-4.32-2.45-1.17-1.08-1.76-2.6-1.76-4.56,0-2.45,1.04-4.45,3.11-5.95,2.07-1.52,5.13-2.27,9.21-2.27,2.4,0,4.76,.35,7.05,1.01,2.29,.66,4.32,1.65,6.1,2.93l1.94-3.35c-1.74-1.28-3.97-2.31-6.7-3.11-2.75-.77-5.51-1.17-8.31-1.17-5.31,0-9.41,1.12-12.27,3.39-2.89,2.27-4.32,5.13-4.32,8.59,0,2.84,.75,5.09,2.27,6.7,1.5,1.63,3.3,2.8,5.44,3.52,2.11,.73,4.91,1.39,8.37,2,2.97,.57,5.29,1.1,6.96,1.61,1.67,.48,3.08,1.28,4.23,2.34s1.72,2.51,1.72,4.36c0,2.58-1.04,4.58-3.15,6.04-2.09,1.45-5.33,2.18-9.76,2.18-3.06,0-6.01-.51-8.83-1.52-2.82-.99-5.13-2.25-6.92-3.77l-1.92,3.35c1.78,1.63,4.25,2.97,7.45,4.03,3.19,1.06,6.54,1.59,10.07,1.59,5.46,0,9.71-1.08,12.73-3.26,3.02-2.18,4.52-5.09,4.52-8.72,0-2.73-.73-4.89-2.18-6.45Z"/><path class="cls-1" d="M615.47,173.68c-1.78,1.63-4.05,2.45-6.79,2.45s-4.71-.75-6.08-2.23c-1.37-1.48-2.05-3.66-2.05-6.5v-28.15h13.92v-3.61h-13.92v-9.56h-4.19v9.56h-8.04v3.61h8.04v28.57c0,3.75,1.04,6.65,3.11,8.77,2.07,2.09,5,3.13,8.79,3.13,1.74,0,3.39-.26,5-.79,1.59-.53,2.91-1.3,3.97-2.31l-1.76-2.93Z"/><path class="cls-1" d="M633.4,119.18c-.66-.66-1.48-.97-2.42-.97s-1.76,.33-2.42,.99c-.68,.68-1.01,1.5-1.01,2.45s.33,1.74,1.01,2.38c.66,.64,1.48,.97,2.42,.97s1.76-.33,2.42-1.01c.68-.66,1.01-1.48,1.01-2.42s-.33-1.74-1.01-2.38Zm-4.52,16.46v43.75h4.19v-43.75h-4.19Z"/><path class="cls-1" d="M675.76,174.32c-2.31,1.08-4.87,1.63-7.67,1.63-3.39,0-6.45-.77-9.16-2.31-2.71-1.52-4.85-3.7-6.37-6.48-1.54-2.8-2.31-6.01-2.31-9.65s.77-6.85,2.31-9.63c1.52-2.8,3.66-4.96,6.37-6.5s5.77-2.31,9.16-2.31c2.8,0,5.35,.55,7.67,1.63,2.34,1.1,4.27,2.73,5.84,4.91l3.11-2.27c-1.81-2.62-4.12-4.63-7.01-5.99-2.89-1.37-6.08-2.05-9.61-2.05-4.23,0-8.04,.93-11.39,2.8s-5.97,4.52-7.89,7.89c-1.89,3.37-2.84,7.23-2.84,11.52s.95,8.06,2.84,11.43c1.92,3.39,4.54,6.04,7.89,7.93,3.35,1.89,7.16,2.84,11.39,2.84,3.52,0,6.72-.68,9.61-2.05s5.2-3.37,7.01-5.99l-3.11-2.27c-1.56,2.18-3.5,3.81-5.84,4.91Z"/><path class="cls-1" d="M724.52,139.45c-2.91-2.75-7.07-4.14-12.49-4.14-3.35,0-6.56,.55-9.65,1.63-3.06,1.1-5.68,2.62-7.86,4.56l2.09,3.02c1.85-1.67,4.1-3.02,6.74-4.01,2.67-1.01,5.44-1.52,8.35-1.52,4.23,0,7.47,1.08,9.67,3.19,2.2,2.11,3.3,5.22,3.3,9.3v3.52h-15c-5.68,0-9.85,1.12-12.45,3.39-2.6,2.27-3.9,5.2-3.9,8.83s1.41,6.76,4.25,9.05c2.82,2.29,6.65,3.44,11.52,3.44,3.74,0,6.94-.7,9.63-2.14,2.69-1.43,4.71-3.41,6.12-5.99v7.8h4.03v-27.74c0-5.38-1.48-9.43-4.36-12.2Zm.15,27.03c-1.28,3.19-3.19,5.62-5.73,7.29-2.56,1.67-5.64,2.51-9.27,2.51-3.86,0-6.83-.82-8.97-2.47-2.11-1.65-3.17-3.9-3.17-6.74s.95-4.89,2.89-6.45c1.92-1.56,5.04-2.36,9.34-2.36h14.91v8.22Z"/><path class="cls-1" d="M746.13,117.2v62.19h4.19v-62.19h-4.19Z"/><path class="cls-1" d="M419.73,204.06c-2.64-4.54-6.28-8.08-10.93-10.64-4.65-2.58-9.83-3.86-15.6-3.86s-10.95,1.3-15.57,3.9c-4.65,2.6-8.28,6.15-10.95,10.68-2.64,4.52-3.97,9.58-3.97,15.16s1.32,10.64,3.97,15.18c2.67,4.52,6.3,8.08,10.95,10.68,4.63,2.6,9.83,3.9,15.57,3.9s10.95-1.3,15.6-3.86c4.65-2.58,8.28-6.12,10.93-10.64,2.67-4.54,3.99-9.6,3.99-15.27s-1.32-10.73-3.99-15.24Zm-3.81,28.44c-2.29,3.94-5.42,7.03-9.38,9.27-3.97,2.23-8.39,3.35-13.33,3.35s-9.36-1.12-13.35-3.35c-4.01-2.25-7.14-5.33-9.43-9.27-2.29-3.92-3.44-8.33-3.44-13.2s1.15-9.25,3.44-13.2c2.29-3.94,5.42-7.03,9.43-9.25,3.99-2.25,8.44-3.35,13.35-3.35s9.36,1.1,13.33,3.35c3.97,2.23,7.09,5.31,9.38,9.25,2.29,3.94,3.44,8.35,3.44,13.2s-1.15,9.27-3.44,13.2Z"/><path class="cls-1" d="M478,215.25c-1.89-3.39-4.47-6.01-7.75-7.89-3.3-1.87-7.01-2.8-11.08-2.8-3.86,0-7.34,.9-10.46,2.71-3.13,1.83-5.57,4.36-7.29,7.6v-28.42h-4.19v62.19h4.01v-10.31c1.74,3.35,4.19,5.97,7.34,7.84,3.15,1.87,6.7,2.8,10.6,2.8s7.78-.95,11.08-2.84c3.28-1.92,5.86-4.54,7.75-7.89,1.85-3.35,2.8-7.18,2.8-11.48s-.95-8.15-2.8-11.52Zm-3.7,21.08c-1.54,2.78-3.63,4.96-6.32,6.52-2.69,1.56-5.71,2.36-9.05,2.36s-6.37-.79-9.01-2.36c-2.64-1.56-4.76-3.75-6.28-6.52-1.54-2.8-2.31-5.99-2.31-9.56s.77-6.76,2.31-9.56c1.52-2.8,3.63-4.98,6.28-6.54,2.64-1.56,5.66-2.34,9.01-2.34s6.37,.77,9.05,2.34c2.69,1.56,4.78,3.75,6.32,6.54,1.54,2.8,2.31,5.99,2.31,9.56s-.77,6.76-2.31,9.56Z"/><path class="cls-1" d="M519.95,230.54c-1.45-1.56-3.24-2.69-5.33-3.39s-4.85-1.34-8.26-1.96c-3.06-.62-5.46-1.19-7.16-1.72s-3.15-1.34-4.32-2.45c-1.17-1.08-1.76-2.6-1.76-4.56,0-2.47,1.04-4.45,3.11-5.95,2.07-1.52,5.13-2.27,9.21-2.27,2.4,0,4.76,.33,7.05,1.01,2.29,.66,4.32,1.65,6.12,2.93l1.92-3.35c-1.74-1.3-3.97-2.31-6.7-3.11-2.75-.77-5.51-1.17-8.31-1.17-5.31,0-9.41,1.12-12.27,3.39-2.89,2.25-4.32,5.13-4.32,8.59,0,2.84,.75,5.09,2.27,6.7,1.5,1.63,3.33,2.8,5.44,3.52,2.11,.73,4.91,1.39,8.37,2,2.97,.57,5.29,1.1,6.96,1.59,1.67,.51,3.08,1.3,4.23,2.36s1.72,2.51,1.72,4.36c0,2.58-1.04,4.58-3.13,6.04-2.12,1.45-5.35,2.18-9.78,2.18-3.06,0-6.01-.51-8.83-1.52-2.82-.99-5.13-2.27-6.92-3.77l-1.92,3.35c1.78,1.63,4.27,2.97,7.45,4.03,3.19,1.06,6.54,1.59,10.07,1.59,5.46,0,9.71-1.08,12.73-3.26,3.02-2.18,4.52-5.09,4.52-8.72,0-2.73-.73-4.89-2.16-6.45Z"/><path class="cls-1" d="M570.9,226.6c0-4.23-.93-8.04-2.73-11.39-1.83-3.35-4.3-5.97-7.47-7.84-3.15-1.87-6.72-2.8-10.68-2.8s-7.53,.95-10.73,2.84c-3.17,1.89-5.68,4.54-7.49,7.93-1.83,3.37-2.73,7.18-2.73,11.43s.97,8.13,2.89,11.48c1.94,3.35,4.6,5.97,8.02,7.89,3.39,1.89,7.29,2.84,11.65,2.84,3.35,0,6.45-.62,9.34-1.85,2.86-1.21,5.26-2.97,7.16-5.27l-2.42-2.78c-1.63,2-3.66,3.55-6.08,4.56-2.42,1.04-5.07,1.56-7.93,1.56-3.46,0-6.56-.73-9.34-2.18-2.75-1.45-4.96-3.5-6.59-6.17-1.61-2.64-2.47-5.68-2.58-9.08h37.63l.09-1.19Zm-37.65-2.09c.22-3.13,1.08-5.93,2.56-8.42,1.5-2.49,3.46-4.41,5.93-5.79,2.45-1.37,5.22-2.05,8.28-2.05s5.84,.7,8.31,2.09c2.45,1.41,4.43,3.33,5.95,5.79,1.5,2.45,2.34,5.24,2.51,8.37h-33.53Z"/><path class="cls-1" d="M594.19,207.12c-2.84,1.7-4.93,4.14-6.28,7.34v-9.56h-4.03v43.75h4.19v-22.8c0-5.42,1.37-9.65,4.12-12.69,2.73-3.04,6.54-4.58,11.39-4.58l1.01,.09v-4.1c-4.08,0-7.56,.84-10.4,2.56Z"/><path class="cls-1" d="M649,204.9l-17.6,39.15-17.43-39.15h-4.45l19.69,43.75h4.27l19.78-43.75h-4.27Z"/><path class="cls-1" d="M688.3,208.71c-2.91-2.75-7.07-4.14-12.47-4.14-3.37,0-6.59,.53-9.65,1.63-3.08,1.08-5.71,2.62-7.89,4.56l2.11,3.02c1.83-1.67,4.08-3.02,6.74-4.01,2.64-1.01,5.42-1.52,8.33-1.52,4.25,0,7.47,1.06,9.69,3.19,2.2,2.11,3.3,5.22,3.3,9.3v3.52h-15c-5.71,0-9.85,1.12-12.45,3.39-2.6,2.27-3.9,5.2-3.9,8.83s1.41,6.76,4.23,9.05c2.82,2.29,6.68,3.44,11.52,3.44,3.74,0,6.96-.7,9.65-2.14,2.69-1.43,4.71-3.41,6.12-5.99v7.8h4.01v-27.74c0-5.38-1.45-9.43-4.36-12.2Zm.18,27.03c-1.28,3.19-3.19,5.62-5.75,7.29-2.53,1.67-5.62,2.51-9.25,2.51-3.86,0-6.85-.82-8.97-2.47-2.14-1.65-3.19-3.9-3.19-6.74s.97-4.89,2.91-6.45c1.92-1.56,5.02-2.36,9.34-2.36h14.91v8.22Z"/><path class="cls-1" d="M729.87,242.94c-1.78,1.63-4.05,2.42-6.79,2.42s-4.71-.73-6.08-2.2c-1.37-1.5-2.05-3.66-2.05-6.5v-28.15h13.92v-3.61h-13.92v-9.56h-4.19v9.56h-8.04v3.61h8.04v28.57c0,3.75,1.04,6.65,3.11,8.75,2.05,2.09,5,3.15,8.79,3.15,1.74,0,3.39-.26,4.98-.79,1.61-.53,2.93-1.3,3.99-2.31l-1.76-2.93Z"/><path class="cls-1" d="M777.81,215.34c-1.89-3.39-4.49-6.04-7.82-7.93-3.33-1.89-7.07-2.84-11.19-2.84s-7.86,.95-11.19,2.84c-3.33,1.89-5.95,4.54-7.84,7.93-1.89,3.37-2.84,7.18-2.84,11.43s.95,8.06,2.84,11.43c1.89,3.39,4.52,6.01,7.84,7.93,3.33,1.89,7.05,2.84,11.19,2.84s7.86-.95,11.19-2.84c3.33-1.92,5.93-4.54,7.82-7.93,1.92-3.37,2.86-7.18,2.86-11.43s-.95-8.06-2.86-11.43Zm-3.72,20.99c-1.54,2.78-3.63,4.96-6.28,6.52-2.67,1.56-5.66,2.36-9.01,2.36s-6.37-.79-9.01-2.36c-2.67-1.56-4.76-3.75-6.3-6.52-1.52-2.8-2.29-5.99-2.29-9.56s.77-6.76,2.29-9.56c1.54-2.8,3.63-4.98,6.3-6.54,2.64-1.56,5.66-2.34,9.01-2.34s6.34,.77,9.01,2.34c2.64,1.56,4.74,3.75,6.28,6.54,1.54,2.8,2.31,5.99,2.31,9.56s-.77,6.76-2.31,9.56Z"/><path class="cls-1" d="M803.96,207.12c-2.84,1.7-4.93,4.14-6.28,7.34v-9.56h-4.03v43.75h4.19v-22.8c0-5.42,1.39-9.65,4.12-12.69,2.73-3.04,6.54-4.58,11.39-4.58l1.01,.09v-4.1c-4.08,0-7.53,.84-10.4,2.56Z"/><path class="cls-1" d="M858.77,204.9l-17.51,39.15-17.51-39.15h-4.45l19.69,43.57-2.34,5.29c-1.3,2.84-2.69,4.87-4.19,6.04-1.52,1.17-3.33,1.76-5.46,1.76-3.17,0-5.88-1.15-8.13-3.44l-2.09,3.17c1.23,1.3,2.73,2.27,4.49,2.93,1.76,.68,3.64,1.01,5.66,1.01,3.02,0,5.62-.82,7.82-2.42,2.2-1.63,4.16-4.36,5.84-8.22l22.45-49.7h-4.27Z"/></g></g><path class="cls-2" d="M229.57,38.95c-3.44-4.93-9.1-8.15-15.53-8.15s-12.31,3.35-15.71,8.44c-1.98,2.97-3.15,6.56-3.15,10.42,0,7.69,4.6,14.3,11.21,17.23,2.34,1.06,4.93,1.63,7.64,1.63,3.02,0,5.88-.7,8.42-1.98,2.47-1.23,4.63-3,6.32-5.13,1.89-2.36,3.22-5.18,3.81-8.28,.2-1.12,.31-2.27,.31-3.46,0-3.97-1.23-7.67-3.33-10.71Zm-5.13,17.16c-1.5,2.4-3.81,4.25-6.54,5.15-1.21,.42-2.51,.64-3.86,.64-6.76,0-12.25-5.49-12.25-12.25,0-.57,.04-1.15,.13-1.7,.51-3.79,2.78-7.03,5.95-8.88,1.81-1.08,3.9-1.67,6.17-1.67,2.11,0,4.1,.53,5.84,1.48h.02c3.79,2.09,6.39,6.12,6.39,10.77,0,.22,0,.44-.04,.66-.09,2.11-.73,4.1-1.81,5.79Z"/></g></g></svg>