<svg width="25" height="24" viewBox="0 0 25 24" fill="none" xmlns="http://www.w3.org/2000/svg">
<path fill-rule="evenodd" clip-rule="evenodd" d="M9.95 16.275C10.7 16.725 11.6 16.95 12.5 16.95C15.275 16.95 17.45 14.7 17.45 12.075C17.45 10.725 17 9.525 16.025 8.55C15.05 7.65 13.85 7.125 12.5 7.125C9.8 7.125 7.55 9.375 7.55 12.075C7.55 12.975 7.775 13.875 8.3 14.7L8.45 14.925L7.925 16.725L9.8 16.2L9.95 16.275ZM14.15 12.75C14.3 12.75 15.05 13.125 15.2 13.2C15.2234 13.2117 15.2467 13.2215 15.2698 13.2313C15.3949 13.2841 15.5117 13.3334 15.575 13.65C15.65 13.65 15.65 13.95 15.5 14.325C15.425 14.625 14.825 15 14.525 15C14.4742 15 14.4255 15.0043 14.3735 15.0089C14.1186 15.0314 13.784 15.0611 12.725 14.625C11.4106 14.0993 10.4994 12.8249 10.2435 12.4671C10.2073 12.4165 10.1843 12.3843 10.175 12.375C10.1622 12.3495 10.1364 12.3087 10.1024 12.2549C9.93644 11.993 9.575 11.4223 9.575 10.8C9.575 10.05 9.94999 9.675 10.1 9.525C10.25 9.375 10.4 9.375 10.475 9.375H10.775C10.85 9.375 11 9.375 11.075 9.6C11.225 9.9 11.525 10.65 11.525 10.725C11.525 10.75 11.5333 10.775 11.5417 10.8C11.5583 10.85 11.575 10.9 11.525 10.95C11.4875 10.9875 11.4688 11.025 11.45 11.0625C11.4313 11.1 11.4125 11.1375 11.375 11.175L11.15 11.4C11.075 11.475 11 11.55 11.075 11.7C11.15 11.85 11.45 12.375 11.9 12.75C12.4063 13.193 12.8058 13.369 13.0084 13.4582C13.0458 13.4748 13.0766 13.4883 13.1 13.5C13.25 13.5 13.325 13.5 13.4 13.425C13.4375 13.35 13.5313 13.2375 13.625 13.125C13.7187 13.0125 13.8125 12.9 13.85 12.825C13.925 12.675 14 12.675 14.15 12.75Z" fill="#F9EFC6"/>
<path fill-rule="evenodd" clip-rule="evenodd" d="M0.5 12C0.5 5.37258 5.87258 0 12.5 0C19.1274 0 24.5 5.37258 24.5 12C24.5 18.6274 19.1274 24 12.5 24C5.87258 24 0.5 18.6274 0.5 12ZM12.5 6C14.075 6 15.575 6.6 16.7 7.725C17.825 8.85 18.5 10.35 18.5 11.925C18.5 15.225 15.8 17.925 12.5 17.925C11.525 17.925 10.55 17.625 9.65001 17.175L6.5 18L7.325 15C6.80001 14.1 6.5 13.05 6.5 12C6.5 8.7 9.2 6 12.5 6Z" fill="#F9EFC6"/>
</svg>
