<svg width="126" height="75" viewBox="0 0 126 75" fill="none" xmlns="http://www.w3.org/2000/svg">
<g clip-path="url(#clip0_25_565)">
<path d="M50.1276 23.2031L62.9401 11.4648C64.3854 10.1367 66.2604 9.41406 68.2136 9.41406L84.5612 9.375C84.9714 9.375 85.362 9.53125 85.6354 9.82422L97.6862 21.8555H106.417V12.4805H101.573L92.2761 3.18359C90.2194 1.14453 87.4382 0 84.5417 0H40.2448C37.3542 0 34.5612 1.15234 32.5104 3.18359L23.2136 12.4805H18.9167V21.8359H27.1003L39.1511 9.80469C39.5417 9.64844 39.8737 9.51172 40.2643 9.35547H51.3386L43.78 16.2891C38.0378 21.543 37.7057 30.4102 42.9206 36.0742C45.8112 39.2383 54.8737 44.1211 62.7448 36.9336L64.3464 35.4688L85.4792 52.6172C86.1432 53.1641 86.2409 54.1602 85.7136 54.8242L80.6159 61.1133C80.069 61.7773 79.0925 61.8945 78.4089 61.3477L73.7409 57.5586L67.8815 64.6875C66.7097 66.1133 64.9518 65.625 64.3659 65.1562L57.1784 59.0039L54.1315 62.7539C51.4167 66.0938 46.4753 66.6016 43.3307 64.043L24.3268 46.8555H18.9167V56.2305H20.6745L37.1979 71.1523C43.2331 76.0547 51.612 76.1719 57.8229 71.8945C60.2643 74.0039 62.9011 75 65.8503 75C69.405 75 72.7448 73.5547 75.3815 70.3125C79.6979 72.0117 84.7956 70.8203 87.8815 67.0312L92.9987 60.7227C94.0925 59.375 94.7761 57.832 95.1276 56.2305H106.417V46.8555H92.9011C92.4518 46.3086 91.944 45.8008 91.3972 45.3516L71.3386 29.0625L73.78 26.8359C75.0495 25.6641 75.1472 23.6914 73.9753 22.4219L71.8464 20.1367C70.6745 18.8672 68.7018 18.7891 67.4323 19.9414L56.6511 29.8242C54.7956 31.5234 51.6315 31.6602 49.8933 29.8242C48.0768 27.8906 48.2331 24.9219 50.1276 23.2031Z" fill="#083710"/>
<path d="M0.166687 12.4805V62.4219H12.6667C16.1042 62.4219 18.8776 59.6484 18.8972 56.2305H18.9167V12.4805H0.166687ZM9.54169 24.9219C7.82294 24.9219 6.41669 23.5156 6.41669 21.7969C6.41669 20.0781 7.82294 18.6719 9.54169 18.6719C11.2604 18.6719 12.6667 20.0781 12.6667 21.7969C12.6667 23.5352 11.2604 24.9219 9.54169 24.9219Z" fill="#FFBC3B"/>
<path d="M106.417 12.4805V56.2305H106.436C106.456 59.6484 109.249 62.4219 112.667 62.4219H125.167V12.4805H106.417ZM115.792 56.1719C114.073 56.1719 112.667 54.7656 112.667 53.0469C112.667 51.3281 114.073 49.9219 115.792 49.9219C117.51 49.9219 118.917 51.3281 118.917 53.0469C118.917 54.7852 117.51 56.1719 115.792 56.1719Z" fill="#FFBC3B"/>
</g>
<defs>
<clipPath id="clip0_25_565">
<rect width="125" height="75" fill="white" transform="translate(0.166687)"/>
</clipPath>
</defs>
</svg>
