<svg width="100" height="75" viewBox="0 0 100 75" fill="none" xmlns="http://www.w3.org/2000/svg">
<g clip-path="url(#clip0_25_572)">
<path d="M32.0229 31.0559C30.3687 28.8555 27.2321 28.403 25.0317 30.0571C22.8314 31.7113 22.3789 34.8479 24.033 37.0483L29.9786 44.9757C30.7276 45.9744 30.6184 47.3633 29.7445 48.2372L27.747 50.2346C26.7015 51.2802 25.0005 51.2021 24.0642 50.063L10.0508 33.2406V10.0825C10.0508 7.32041 7.81925 5.08887 5.05713 5.08887C2.29502 5.08887 0.0634766 7.32041 0.0634766 10.0825V44.1642C0.0634766 45.8652 0.640868 47.5193 1.70202 48.8458L17.947 69.8035C18.7273 70.8178 19.2578 71.9726 19.5699 73.1898C19.8508 74.2666 20.834 75 21.9575 75H42.5095C43.8828 75 45.0064 73.8764 45.0064 72.5032V55.0254C45.0064 50.7028 43.6019 46.505 41.0114 43.0406L32.0229 31.0559ZM94.9429 5.08887C92.1808 5.08887 89.9492 7.32041 89.9492 10.0825V33.2406L75.9358 50.063C74.9995 51.1865 73.2829 51.2646 72.253 50.2346L70.2555 48.2372C69.3816 47.3633 69.2724 45.9744 70.0214 44.9757L75.967 37.0483C77.6212 34.8479 77.1686 31.7113 74.9683 30.0571C72.768 28.403 69.6313 28.8555 67.9772 31.0559L58.9886 43.0406C56.3981 46.505 54.9937 50.7028 54.9937 55.0254V72.5032C54.9937 73.8764 56.1172 75 57.4905 75H78.0425C79.1505 75 80.1492 74.2666 80.4301 73.1898C80.7422 71.9726 81.2728 70.8178 82.053 69.8035L98.298 48.8458C99.3592 47.5193 99.9366 45.8652 99.9366 44.1642V10.0825C99.9366 7.32041 97.705 5.08887 94.9429 5.08887Z" fill="#083710"/>
<path d="M47.021 1.23439L34.4417 13.8137C32.7969 15.4585 32.7969 18.127 34.4417 19.7733L47.021 32.3527C48.6658 33.9974 51.3343 33.9974 52.9806 32.3527L65.5599 19.7733C67.2047 18.1285 67.2047 15.4601 65.5599 13.8137L52.979 1.23439C51.3343 -0.411953 48.6658 -0.411953 47.021 1.23439Z" fill="#FFBC3B"/>
</g>
<defs>
<clipPath id="clip0_25_572">
<rect width="99.8731" height="75" fill="white" transform="translate(0.0634766)"/>
</clipPath>
</defs>
</svg>
