<svg width="90" height="75" viewBox="0 0 90 75" fill="none" xmlns="http://www.w3.org/2000/svg">
<g clip-path="url(#clip0_25_578)">
<path d="M6.76082 0C3.58479 0 0.969238 2.61555 0.969238 5.88385V69.2084C0.969238 72.3844 3.58479 75 6.76082 75H83.9082C87.0842 75 89.6998 72.3844 89.6998 69.2084V5.79159C89.6974 2.61555 87.0819 0 83.9082 0H6.76082ZM64.8543 8.78079C64.8543 10.2754 63.6388 11.5832 62.0519 11.5832C60.5573 11.5832 59.2495 10.3677 59.2495 8.78079C59.2495 7.28619 60.465 5.97841 62.0519 5.97841C63.5465 5.97841 64.8543 7.28619 64.8543 8.78079ZM73.5405 8.78079C73.5405 10.2754 72.325 11.5832 70.7381 11.5832C69.2435 11.5832 67.9358 10.3677 67.9358 8.78079C67.9358 7.28619 69.1513 5.97841 70.7381 5.97841C72.3273 5.97841 73.6351 7.28619 73.5405 8.78079ZM82.3213 8.78079C82.3213 10.2754 81.1058 11.5832 79.5189 11.5832C78.0243 11.5832 76.7165 10.3677 76.7165 8.78079C76.7165 7.28619 77.9321 5.97841 79.5189 5.97841C81.1058 5.97841 82.3213 7.28619 82.3213 8.78079ZM8.16086 17.8384H82.5058V67.9006H8.16086V17.8384Z" fill="#083710"/>
<path d="M61.7244 25.918C56.6801 26.7575 52.8513 31.0545 52.8513 36.2856C52.8513 37.5011 53.1304 38.6198 53.5064 39.7407L61.8189 35.2569V25.918H61.7244Z" fill="#CC9534"/>
<path d="M73.9603 36.2856C73.9603 31.0545 70.1316 26.6653 65.0873 25.918V36.2856C65.0873 36.9407 64.7136 37.5011 64.2477 37.7802L55.0956 42.7299C57.0584 45.2509 60.0453 46.9324 63.5004 46.9324C69.1974 46.8401 73.9603 42.1695 73.9603 36.2856Z" fill="#FFBC3B"/>
<path d="M42.7651 47.7281C43.1388 47.7281 43.5124 47.6359 43.7915 47.4491C44.5388 46.8886 44.7256 45.7676 44.1651 45.0203L36.6921 35.0263C36.413 34.6527 36.0394 34.4658 35.5712 34.3713C35.103 34.279 34.6371 34.3713 34.2634 34.6504L28.94 38.666L23.5267 31.2875L25.3004 29.9797C25.6741 29.7006 25.8609 29.2324 25.7686 28.7642C25.6764 28.296 25.395 27.9247 24.9291 27.7378L18.2979 25.4959C17.9243 25.4037 17.5506 25.4037 17.177 25.6827C16.8979 25.8696 16.7087 26.3378 16.7087 26.7091L16.9878 33.7139C17.0801 34.1798 17.2669 34.6481 17.7351 34.8349C18.2033 35.114 18.6693 35.0217 19.0429 34.7426L20.8166 33.4348L27.1663 42.0265C27.4454 42.4002 27.8191 42.587 28.2873 42.6815C28.7555 42.7738 29.2214 42.6815 29.5951 42.4025L34.9184 38.4791L41.3628 47.0708C41.7387 47.4467 42.2069 47.7281 42.7651 47.7281Z" fill="#CC9534"/>
<path d="M43.8284 60.2431H39.4599C38.6803 60.2431 38.0483 59.6111 38.0483 58.8315V53.5497C38.0483 52.7701 38.6803 52.1381 39.4599 52.1381H43.8284C44.608 52.1381 45.24 52.7701 45.24 53.5497V58.8315C45.24 59.6111 44.608 60.2431 43.8284 60.2431Z" fill="#FFBC3B"/>
<path d="M32.7434 60.2431H29.1545C28.1604 60.2431 27.3531 59.4359 27.3531 58.4418V49.887C27.3531 48.8929 28.1604 48.0856 29.1545 48.0856H32.7434C33.7375 48.0856 34.5448 48.8929 34.5448 49.887V58.4418C34.5448 59.4359 33.7398 60.2431 32.7434 60.2431Z" fill="#FFBC3B"/>
<path d="M61.819 58.7277V54.3777C61.819 53.5935 62.4556 52.9569 63.2398 52.9569H72.5557C73.3399 52.9569 73.9765 53.5935 73.9765 54.3777V58.7277C73.9765 59.5119 73.3399 60.1485 72.5557 60.1485H63.2398C62.4556 60.1485 61.819 59.5119 61.819 58.7277Z" fill="#FFBC3B"/>
<path d="M21.753 60.2431H18.7592C17.599 60.2431 16.6603 59.3021 16.6603 58.1442V43.731C16.6603 42.5708 17.6013 41.6321 18.7592 41.6321H21.753C22.9132 41.6321 23.8519 42.5731 23.8519 43.731V58.1419C23.8519 59.3021 22.9109 60.2431 21.753 60.2431Z" fill="#FFBC3B"/>
<path d="M52.4177 59.0022V54.1009C52.4177 53.4689 52.9298 52.9546 53.564 52.9546H56.1911C56.8231 52.9546 57.3375 53.4666 57.3375 54.1009V59.0022C57.3375 59.6342 56.8254 60.1485 56.1911 60.1485H53.564C52.9298 60.1485 52.4177 59.6365 52.4177 59.0022Z" fill="#FFBC3B"/>
<path d="M57.8425 59.1867V53.9187C57.8425 53.3882 58.2738 52.9569 58.8043 52.9569H60.3497C60.8802 52.9569 61.3115 53.3882 61.3115 53.9187V59.1867C61.3115 59.7172 60.8802 60.1485 60.3497 60.1485H58.8043C58.2738 60.1485 57.8425 59.7172 57.8425 59.1867Z" fill="#FFBC3B"/>
</g>
<defs>
<clipPath id="clip0_25_578">
<rect width="88.7282" height="75" fill="white" transform="translate(0.969238)"/>
</clipPath>
</defs>
</svg>
